  0
SECTION
  2
HEADER
  9
$ACADVER
  1
AC1014
  9
$ACADMAINTVER
 70
     9
  9
$DWGCODEPAGE
  3
ANSI_1252
  9
$INSBASE
 10
0.0
 20
0.0
 30
0.0
  9
$EXTMIN
 10
16.55200904961056
 20
35.3281123828516
 30
0.0
  9
$EXTMAX
 10
298.2416043542629
 20
176.1600978197619
 30
0.0
  9
$LIMMIN
 10
0.0
 20
0.0
  9
$LIMMAX
 10
420.0
 20
297.0
  9
$ORTHOMODE
 70
     0
  9
$REGENMODE
 70
     1
  9
$FILLMODE
 70
     1
  9
$QTEXTMODE
 70
     0
  9
$MIRRTEXT
 70
     1
  9
$DRAGMODE
 70
     2
  9
$LTSCALE
 40
12.7
  9
$OSMODE
 70
    23
  9
$ATTMODE
 70
     1
  9
$TEXTSIZE
 40
3.5
  9
$TRACEWID
 40
1.0
  9
$TEXTSTYLE
  7
ONSHAPE-STANDARD
  9
$CLAYER
  8
0
  9
$CELTYPE
  6
BYLAYER
  9
$CECOLOR
 62
   256
  9
$CELTSCALE
 40
1.0
  9
$DELOBJ
 70
     1
  9
$DISPSILH
 70
     0
  9
$DIMSCALE
 40
0.0393700787401575
  9
$DIMASZ
 40
2.5
  9
$DIMEXO
 40
0.625
  9
$DIMDLI
 40
3.75
  9
$DIMRND
 40
0.0
  9
$DIMDLE
 40
0.0
  9
$DIMEXE
 40
1.25
  9
$DIMTP
 40
0.0
  9
$DIMTM
 40
0.0
  9
$DIMTXT
 40
3.5
  9
$DIMCEN
 40
2.5
  9
$DIMTSZ
 40
0.0
  9
$DIMTOL
 70
     0
  9
$DIMLIM
 70
     0
  9
$DIMTIH
 70
     0
  9
$DIMTOH
 70
     0
  9
$DIMSE1
 70
     0
  9
$DIMSE2
 70
     0
  9
$DIMTAD
 70
     1
  9
$DIMZIN
 70
     8
  9
$DIMBLK
  1

  9
$DIMASO
 70
     1
  9
$DIMSHO
 70
     1
  9
$DIMPOST
  1

  9
$DIMAPOST
  1

  9
$DIMALT
 70
     1
  9
$DIMALTD
 70
     3
  9
$DIMALTF
 40
0.0393700787401575
  9
$DIMLFAC
 40
1.0
  9
$DIMTOFL
 70
     1
  9
$DIMTVP
 40
0.0
  9
$DIMTIX
 70
     0
  9
$DIMSOXD
 70
     0
  9
$DIMSAH
 70
     0
  9
$DIMBLK1
  1

  9
$DIMBLK2
  1

  9
$DIMSTYLE
  2
ONSHAPE-ISO-25
  9
$DIMCLRD
 70
     7
  9
$DIMCLRE
 70
     7
  9
$DIMCLRT
 70
     7
  9
$DIMTFAC
 40
1.0
  9
$DIMGAP
 40
0.625
  9
$DIMJUST
 70
     0
  9
$DIMSD1
 70
     0
  9
$DIMSD2
 70
     0
  9
$DIMTOLJ
 70
     0
  9
$DIMTZIN
 70
     8
  9
$DIMALTZ
 70
     8
  9
$DIMALTTZ
 70
     0
  9
$DIMFIT
 70
     3
  9
$DIMUPT
 70
     1
  9
$DIMUNIT
 70
     2
  9
$DIMDEC
 70
     2
  9
$DIMTDEC
 70
     2
  9
$DIMALTU
 70
     2
  9
$DIMALTTD
 70
     3
  9
$DIMTXSTY
  7
ONSHAPE-STANDARD-DIMENSION
  9
$DIMAUNIT
 70
     0
  9
$LUNITS
 70
     2
  9
$LUPREC
 70
     4
  9
$SKETCHINC
 40
1.0
  9
$FILLETRAD
 40
10.0
  9
$AUNITS
 70
     0
  9
$AUPREC
 70
     0
  9
$MENU
  1
.
  9
$ELEVATION
 40
0.0
  9
$PELEVATION
 40
0.0
  9
$THICKNESS
 40
0.0
  9
$LIMCHECK
 70
     0
  9
$CHAMFERA
 40
0.0
  9
$CHAMFERB
 40
0.0
  9
$CHAMFERC
 40
0.0
  9
$CHAMFERD
 40
0.0
  9
$SKPOLY
 70
     0
  9
$TDCREATE
 40
2460952.860706968
  9
$TDUPDATE
 40
2460952.860707465
  9
$TDINDWG
 40
0.0
  9
$TDUSRTIMER
 40
0.0
  9
$USRTIMER
 70
     1
  9
$ANGBASE
 50
0.0
  9
$ANGDIR
 70
     0
  9
$PDMODE
 70
    33
  9
$PDSIZE
 40
1.0
  9
$PLINEWID
 40
0.0
  9
$COORDS
 70
     1
  9
$SPLFRAME
 70
     0
  9
$SPLINETYPE
 70
     6
  9
$SPLINESEGS
 70
     8
  9
$ATTDIA
 70
     0
  9
$ATTREQ
 70
     1
  9
$HANDLING
 70
     1
  9
$HANDSEED
  5
1D1
  9
$SURFTAB1
 70
     6
  9
$SURFTAB2
 70
     6
  9
$SURFTYPE
 70
     6
  9
$SURFU
 70
     6
  9
$SURFV
 70
     6
  9
$UCSNAME
  2

  9
$UCSORG
 10
0.0
 20
0.0
 30
0.0
  9
$UCSXDIR
 10
1.0
 20
0.0
 30
0.0
  9
$UCSYDIR
 10
0.0
 20
1.0
 30
0.0
  9
$PUCSNAME
  2

  9
$PUCSORG
 10
0.0
 20
0.0
 30
0.0
  9
$PUCSXDIR
 10
1.0
 20
0.0
 30
0.0
  9
$PUCSYDIR
 10
0.0
 20
1.0
 30
0.0
  9
$USERI1
 70
     0
  9
$USERI2
 70
     0
  9
$USERI3
 70
     0
  9
$USERI4
 70
     0
  9
$USERI5
 70
     0
  9
$USERR1
 40
0.0
  9
$USERR2
 40
0.0
  9
$USERR3
 40
0.0
  9
$USERR4
 40
0.0
  9
$USERR5
 40
0.0
  9
$WORLDVIEW
 70
     1
  9
$SHADEDGE
 70
     3
  9
$SHADEDIF
 70
    70
  9
$TILEMODE
 70
     1
  9
$MAXACTVP
 70
    64
  9
$PINSBASE
 10
0.0
 20
0.0
 30
0.0
  9
$PLIMCHECK
 70
     0
  9
$PEXTMIN
 10
1.000000000000000E+20
 20
1.000000000000000E+20
 30
1.000000000000000E+20
  9
$PEXTMAX
 10
-1.000000000000000E+20
 20
-1.000000000000000E+20
 30
-1.000000000000000E+20
  9
$PLIMMIN
 10
0.0
 20
0.0
  9
$PLIMMAX
 10
420.0
 20
297.0
  9
$UNITMODE
 70
     0
  9
$VISRETAIN
 70
     1
  9
$PLINEGEN
 70
     0
  9
$PSLTSCALE
 70
     1
  9
$TREEDEPTH
 70
  3020
  9
$PICKSTYLE
 70
     1
  9
$CMLSTYLE
  2
STANDARD
  9
$CMLJUST
 70
     0
  9
$CMLSCALE
 40
20.0
  9
$PROXYGRAPHICS
 70
     1
  9
$MEASUREMENT
 70
     1
  0
ENDSEC
  0
SECTION
  2
CLASSES
  0
CLASS
  1
ACDBDICTIONARYWDFLT
  2
AcDbDictionaryWithDefault
  3
ObjectDBX Classes
 90
        0
280
     0
281
     0
  0
CLASS
  1
VISUALSTYLE
  2
AcDbVisualStyle
  3
ObjectDBX Classes
 90
     4095
280
     0
281
     0
  0
CLASS
  1
MATERIAL
  2
AcDbMaterial
  3
ObjectDBX Classes
 90
     1153
280
     0
281
     0
  0
CLASS
  1
SCALE
  2
AcDbScale
  3
ObjectDBX Classes
 90
     1153
280
     0
281
     0
  0
CLASS
  1
TABLESTYLE
  2
AcDbTableStyle
  3
ObjectDBX Classes
 90
     4095
280
     0
281
     0
  0
CLASS
  1
MLEADERSTYLE
  2
AcDbMLeaderStyle
  3
ACDB_MLEADERSTYLE_CLASS
 90
     4095
280
     0
281
     0
  0
CLASS
  1
SUN
  2
AcDbSun
  3
SCENEOE
 90
     1153
280
     0
281
     0
  0
CLASS
  1
DICTIONARYVAR
  2
AcDbDictionaryVar
  3
ObjectDBX Classes
 90
        0
280
     0
281
     0
  0
CLASS
  1
DIMASSOC
  2
AcDbDimAssoc
  3
"AcDbDimAssoc|Product Desc:     AcDim ARX App For Dimension|Company:          Autodesk, Inc.|WEB Address:      www.autodesk.com"
 90
        0
280
     0
281
     0
  0
CLASS
  1
BREAKDATA
  2
AcDbBreakData
  3
ObjectDBX Classes
 90
     1024
280
     0
281
     0
  0
CLASS
  1
XRECORD
  2
AcDbXrecord
  3
ObjectDBX Classes
 90
        0
280
     0
281
     0
  0
CLASS
  1
LWPOLYLINE
  2
AcDbPolyline
  3
ObjectDBX Classes
 90
        0
280
     0
281
     1
  0
CLASS
  1
HATCH
  2
AcDbHatch
  3
ObjectDBX Classes
 90
        0
280
     0
281
     1
  0
CLASS
  1
ACDBPLACEHOLDER
  2
AcDbPlaceHolder
  3
ObjectDBX Classes
 90
        0
280
     0
281
     0
  0
CLASS
  1
LAYOUT
  2
AcDbLayout
  3
ObjectDBX Classes
 90
        0
280
     0
281
     0
  0
ENDSEC
  0
SECTION
  2
TABLES
  0
TABLE
  2
VPORT
  5
8
102
{ACAD_XDICTIONARY
360
1C5
102
}
330
0
100
AcDbSymbolTable
 70
     1
  0
VPORT
  5
29
330
8
100
AcDbSymbolTableRecord
100
AcDbViewportTableRecord
  2
*ACTIVE
 70
     0
 10
0.0
 20
0.0
 11
1.0
 21
1.0
 12
157.3968067019367
 22
109.4901882075738
 13
0.0
 23
0.0
 14
10.0
 24
10.0
 15
10.0
 25
10.0
 16
0.0
 26
0.0
 36
1.0
 17
0.0
 27
0.0
 37
0.0
 40
150.2866156088637
 41
1.929889671383613
 42
50.0
 43
0.0
 44
0.0
 50
0.0
 51
0.0
 71
     0
 72
   100
 73
     1
 74
     3
 75
     0
 76
     0
 77
     0
 78
     0
  0
ENDTAB
  0
TABLE
  2
LTYPE
  5
5
330
0
100
AcDbSymbolTable
 70
     2
  0
LTYPE
  5
14
330
5
100
AcDbSymbolTableRecord
100
AcDbLinetypeTableRecord
  2
BYBLOCK
 70
     0
  3

 72
    65
 73
     0
 40
0.0
  0
LTYPE
  5
15
330
5
100
AcDbSymbolTableRecord
100
AcDbLinetypeTableRecord
  2
BYLAYER
 70
     0
  3

 72
    65
 73
     0
 40
0.0
  0
LTYPE
  5
16
330
5
100
AcDbSymbolTableRecord
100
AcDbLinetypeTableRecord
  2
CONTINUOUS
 70
     0
  3
Solid line
 72
    65
 73
     0
 40
0.0
  0
LTYPE
  5
77
330
5
100
AcDbSymbolTableRecord
100
AcDbLinetypeTableRecord
  2
CENTER
 70
     0
  3
Center line ____ _ ____ _ ____ _
 72
    65
 73
     4
 40
0.7874015748031495
 49
0.4921259842519685
 74
     0
 49
-0.0984251968503937
 74
     0
 49
0.0984251968503937
 74
     0
 49
-0.0984251968503937
 74
     0
  0
ENDTAB
  0
TABLE
  2
LAYER
  5
2
330
0
100
AcDbSymbolTable
 70
     6
  0
LAYER
  5
10
330
2
100
AcDbSymbolTableRecord
100
AcDbLayerTableRecord
  2
0
 70
     0
 62
     7
  6
CONTINUOUS
  0
LAYER
  5
70
330
2
100
AcDbSymbolTableRecord
100
AcDbLayerTableRecord
  2
DEFPOINTS
 70
     0
 62
     7
  6
CONTINUOUS
  0
LAYER
  5
74
330
2
100
AcDbSymbolTableRecord
100
AcDbLayerTableRecord
  2
MODELSKETCH_VISIBLE
 70
     0
 62
     7
  6
CONTINUOUS
  0
LAYER
  5
76
330
2
100
AcDbSymbolTableRecord
100
AcDbLayerTableRecord
  2
MODELSKETCH_CONSTRUCTION
 70
     0
 62
     7
  6
CENTER
  0
LAYER
  5
92
330
2
100
AcDbSymbolTableRecord
100
AcDbLayerTableRecord
  2
ANNOTATION_TEXT
 70
     0
 62
     7
  6
CONTINUOUS
  0
LAYER
  5
9A
330
2
100
AcDbSymbolTableRecord
100
AcDbLayerTableRecord
  2
CENTERLINES
 70
     0
 62
     7
  6
CENTER
  0
ENDTAB
  0
TABLE
  2
STYLE
  5
3
330
0
100
AcDbSymbolTable
 70
    36
  0
STYLE
  5
11
330
3
100
AcDbSymbolTableRecord
100
AcDbTextStyleTableRecord
  2
STANDARD
 70
     0
 40
0.0
 41
1.0
 50
0.0
 71
     0
 42
3.5
  3
txt
  4

  0
STYLE
  5
71
330
3
100
AcDbSymbolTableRecord
100
AcDbTextStyleTableRecord
  2
ONSHAPE-STANDARD
 70
     0
 40
0.0
 41
1.0
 50
0.0
 71
     0
 42
3.5
  3
NotoSans-Regular.ttf
  4

1001
ACAD
1000
Noto Sans
1071
        0
  0
STYLE
  5
73
330
3
100
AcDbSymbolTableRecord
100
AcDbTextStyleTableRecord
  2
ONSHAPE-STANDARD-DIMENSION
 70
     0
 40
0.0
 41
1.0
 50
0.0
 71
     0
 42
3.5
  3

  4

1001
ACAD
1000
Noto Sans
1071
        0
  0
STYLE
  5
95
330
3
100
AcDbSymbolTableRecord
100
AcDbTextStyleTableRecord
  2
ONSHAPE-STANDARD-VIEW-LABE
 70
     0
 40
3.5
 41
1.0
 50
0.0
 71
     0
 42
3.5
  3
NotoSans-Regular.ttf
  4

1001
ACAD
1000
Noto Sans
1071
        0
  0
STYLE
  5
97
330
3
100
AcDbSymbolTableRecord
100
AcDbTextStyleTableRecord
  2
ONSHAPE-STANDARD-NOTESTYLE
 70
     0
 40
3.5
 41
1.0
 50
0.0
 71
     0
 42
3.5
  3
NotoSans-Regular.ttf
  4

1001
ACAD
1000
Noto Sans
1071
        0
  0
STYLE
  5
13E
330
3
100
AcDbSymbolTableRecord
100
AcDbTextStyleTableRecord
  2
ONSHAPE-STANDARD-BOLD
 70
     0
 40
0.0
 41
1.0
 50
0.0
 71
     0
 42
3.5
  3
NotoSans-Bold.ttf
  4

1001
ACAD
1000
Noto Sans
1071
 33554432
  0
STYLE
  5
13F
330
3
100
AcDbSymbolTableRecord
100
AcDbTextStyleTableRecord
  2
ONSHAPE-STANDARD-FIELDS
 70
     0
 40
0.0
 41
1.0
 50
0.0
 71
     0
 42
3.5
  3

  4

1001
ACAD
1000
Noto Sans
1071
        0
  0
STYLE
  5
140
330
3
100
AcDbSymbolTableRecord
100
AcDbTextStyleTableRecord
  2
ONSHAPE-STANDARD-TCFIELDS
 70
     0
 40
0.0
 41
1.0
 50
0.0
 71
     0
 42
3.5
  3
NotoSansTC-Regular.otf
  4

1001
ACAD
1000
Noto Sans TC
1071
        0
  0
STYLE
  5
141
330
3
100
AcDbSymbolTableRecord
100
AcDbTextStyleTableRecord
  2
ONSHAPE-STANDARD-SCFIELDS
 70
     0
 40
0.0
 41
1.0
 50
0.0
 71
     0
 42
3.5
  3
NotoSansSC-Regular.otf
  4

1001
ACAD
1000
Noto Sans SC
1071
        0
  0
STYLE
  5
142
330
3
100
AcDbSymbolTableRecord
100
AcDbTextStyleTableRecord
  2
ONSHAPE-STANDARD-KOREANFIE
 70
     0
 40
0.0
 41
1.0
 50
0.0
 71
     0
 42
3.5
  3
NotoSansKR-Regular.otf
  4

1001
ACAD
1000
Noto Sans KR
1071
        0
  0
STYLE
  5
143
330
3
100
AcDbSymbolTableRecord
100
AcDbTextStyleTableRecord
  2
ONSHAPE-STANDARD-JAPANESEF
 70
     0
 40
0.0
 41
1.0
 50
0.0
 71
     0
 42
3.5
  3
NotoSansJP-Regular.otf
  4

1001
ACAD
1000
Noto Sans JP
1071
        0
  0
STYLE
  5
144
330
3
100
AcDbSymbolTableRecord
100
AcDbTextStyleTableRecord
  2
TTFSTYLE
 70
     0
 40
0.0
 41
1.0
 50
0.0
 71
     0
 42
3.5
  3

  4

1001
ACAD
1000
Verdana
1071
       34
  0
STYLE
  5
145
330
3
100
AcDbSymbolTableRecord
100
AcDbTextStyleTableRecord
  2
ONSHAPE-STANDARD-GTOLERANC
 70
     0
 40
0.0
 41
1.0
 50
0.0
 71
     0
 42
3.5
  3

  4

1001
ACAD
1000
Noto Sans
1071
        0
  0
STYLE
  5
146
330
3
100
AcDbSymbolTableRecord
100
AcDbTextStyleTableRecord
  2
ONSHAPE-STANDARD-TABLE-DAT
 70
     0
 40
0.0
 41
1.0
 50
0.0
 71
     0
 42
3.5
  3
NotoSans-Regular.ttf
  4

1001
ACAD
1000
Noto Sans
1071
        0
  0
STYLE
  5
147
330
3
100
AcDbSymbolTableRecord
100
AcDbTextStyleTableRecord
  2
ONSHAPE-STANDARD-TABLE-TIT
 70
     0
 40
0.0
 41
1.0
 50
0.0
 71
     0
 42
3.5
  3
NotoSans-Bold.ttf
  4

1001
ACAD
1000
Noto Sans
1071
 33554432
  0
STYLE
  5
148
330
3
100
AcDbSymbolTableRecord
100
AcDbTextStyleTableRecord
  2
ONSHAPE-STANDARD-TABLE-HEA
 70
     0
 40
0.0
 41
1.0
 50
0.0
 71
     0
 42
3.5
  3
NotoSans-Bold.ttf
  4

1001
ACAD
1000
Noto Sans
1071
 33554432
  0
STYLE
  5
149
330
3
100
AcDbSymbolTableRecord
100
AcDbTextStyleTableRecord
  2
ONSHAPE-STANDARD-BOMTABLE-
 70
     0
 40
0.0
 41
1.0
 50
0.0
 71
     0
 42
3.5
  3
NotoSans-Regular.ttf
  4

1001
ACAD
1000
Noto Sans
1071
        0
  0
STYLE
  5
14A
330
3
100
AcDbSymbolTableRecord
100
AcDbTextStyleTableRecord
  2
ONSHAPE-STANDARD-BOMTABLE0
 70
     0
 40
0.0
 41
1.0
 50
0.0
 71
     0
 42
3.5
  3
NotoSans-Bold.ttf
  4

1001
ACAD
1000
Noto Sans
1071
 33554432
  0
STYLE
  5
14B
330
3
100
AcDbSymbolTableRecord
100
AcDbTextStyleTableRecord
  2
ONSHAPE-STANDARD-BOMTABLE1
 70
     0
 40
0.0
 41
1.0
 50
0.0
 71
     0
 42
3.5
  3
NotoSans-Bold.ttf
  4

1001
ACAD
1000
Noto Sans
1071
 33554432
  0
STYLE
  5
14D
330
3
100
AcDbSymbolTableRecord
100
AcDbTextStyleTableRecord
  2
ONSHAPE-STANDARD-DATUM-DIM
 70
     0
 40
3.5
 41
1.0
 50
0.0
 71
     0
 42
3.5
  3

  4

1001
ACAD
1000
Noto Sans
1071
        0
  0
STYLE
  5
14F
330
3
100
AcDbSymbolTableRecord
100
AcDbTextStyleTableRecord
  2
ONSHAPE-DETAIL-VIEW-LEADER
 70
     0
 40
3.5
 41
1.0
 50
0.0
 71
     0
 42
3.5
  3
NotoSans-Regular.ttf
  4

1001
ACAD
1000
Noto Sans
1071
        0
  0
STYLE
  5
150
330
3
100
AcDbSymbolTableRecord
100
AcDbTextStyleTableRecord
  2
ONSHAPE-STANDARD-HOLE-CALL
 70
     0
 40
3.5
 41
1.0
 50
0.0
 71
     0
 42
3.5
  3
NotoSans-Regular.ttf
  4

1001
ACAD
1000
Noto Sans
1071
        0
  0
STYLE
  5
151
330
3
100
AcDbSymbolTableRecord
100
AcDbTextStyleTableRecord
  2
ONSHAPE-STANDARD-HOLETABLE
 70
     0
 40
0.0
 41
1.0
 50
0.0
 71
     0
 42
3.5
  3
NotoSans-Regular.ttf
  4

1001
ACAD
1000
Noto Sans
1071
        0
  0
STYLE
  5
152
330
3
100
AcDbSymbolTableRecord
100
AcDbTextStyleTableRecord
  2
ONSHAPE-STANDARD-HOLETABL0
 70
     0
 40
0.0
 41
1.0
 50
0.0
 71
     0
 42
3.5
  3
NotoSans-Bold.ttf
  4

1001
ACAD
1000
Noto Sans
1071
 33554432
  0
STYLE
  5
153
330
3
100
AcDbSymbolTableRecord
100
AcDbTextStyleTableRecord
  2
ONSHAPE-STANDARD-HOLETABL1
 70
     0
 40
0.0
 41
1.0
 50
0.0
 71
     0
 42
3.5
  3
NotoSans-Bold.ttf
  4

1001
ACAD
1000
Noto Sans
1071
 33554432
  0
STYLE
  5
154
330
3
100
AcDbSymbolTableRecord
100
AcDbTextStyleTableRecord
  2
ONSHAPE-STANDARD-HOLE-TAG
 70
     0
 40
3.5
 41
1.0
 50
0.0
 71
     0
 42
3.5
  3
NotoSans-Regular.ttf
  4

1001
ACAD
1000
Noto Sans
1071
        0
  0
STYLE
  5
155
330
3
100
AcDbSymbolTableRecord
100
AcDbTextStyleTableRecord
  2
ONSHAPE-STANDARD-REVISIONT
 70
     0
 40
0.0
 41
1.0
 50
0.0
 71
     0
 42
3.5
  3
NotoSans-Regular.ttf
  4

1001
ACAD
1000
Noto Sans
1071
        0
  0
STYLE
  5
156
330
3
100
AcDbSymbolTableRecord
100
AcDbTextStyleTableRecord
  2
ONSHAPE-STANDARD-REVISION0
 70
     0
 40
0.0
 41
1.0
 50
0.0
 71
     0
 42
3.5
  3
NotoSans-Bold.ttf
  4

1001
ACAD
1000
Noto Sans
1071
 33554432
  0
STYLE
  5
157
330
3
100
AcDbSymbolTableRecord
100
AcDbTextStyleTableRecord
  2
ONSHAPE-STANDARD-REVISION1
 70
     0
 40
0.0
 41
1.0
 50
0.0
 71
     0
 42
3.5
  3
NotoSans-Bold.ttf
  4

1001
ACAD
1000
Noto Sans
1071
 33554432
  0
STYLE
  5
158
330
3
100
AcDbSymbolTableRecord
100
AcDbTextStyleTableRecord
  2
ONSHAPE-STANDARD-REVISION-
 70
     0
 40
3.5
 41
1.0
 50
0.0
 71
     0
 42
3.5
  3
NotoSans-Regular.ttf
  4

1001
ACAD
1000
Noto Sans
1071
        0
  0
STYLE
  5
159
330
3
100
AcDbSymbolTableRecord
100
AcDbTextStyleTableRecord
  2
ONSHAPE-STANDARD-CUTLISTTA
 70
     0
 40
0.0
 41
1.0
 50
0.0
 71
     0
 42
3.5
  3
NotoSans-Regular.ttf
  4

1001
ACAD
1000
Noto Sans
1071
        0
  0
STYLE
  5
15A
330
3
100
AcDbSymbolTableRecord
100
AcDbTextStyleTableRecord
  2
ONSHAPE-STANDARD-CUTLISTT0
 70
     0
 40
0.0
 41
1.0
 50
0.0
 71
     0
 42
3.5
  3
NotoSans-Bold.ttf
  4

1001
ACAD
1000
Noto Sans
1071
 33554432
  0
STYLE
  5
15B
330
3
100
AcDbSymbolTableRecord
100
AcDbTextStyleTableRecord
  2
ONSHAPE-STANDARD-CUTLISTT1
 70
     0
 40
0.0
 41
1.0
 50
0.0
 71
     0
 42
3.5
  3
NotoSans-Bold.ttf
  4

1001
ACAD
1000
Noto Sans
1071
 33554432
  0
STYLE
  5
15C
330
3
100
AcDbSymbolTableRecord
100
AcDbTextStyleTableRecord
  2
ONSHAPE-STANDARD-CUSTOMTAB
 70
     0
 40
0.0
 41
1.0
 50
0.0
 71
     0
 42
3.5
  3
NotoSans-Regular.ttf
  4

1001
ACAD
1000
Noto Sans
1071
        0
  0
STYLE
  5
15D
330
3
100
AcDbSymbolTableRecord
100
AcDbTextStyleTableRecord
  2
ONSHAPE-STANDARD-CUSTOMTA0
 70
     0
 40
0.0
 41
1.0
 50
0.0
 71
     0
 42
3.5
  3
NotoSans-Bold.ttf
  4

1001
ACAD
1000
Noto Sans
1071
 33554432
  0
STYLE
  5
15E
330
3
100
AcDbSymbolTableRecord
100
AcDbTextStyleTableRecord
  2
ONSHAPE-STANDARD-CUSTOMTA1
 70
     0
 40
0.0
 41
1.0
 50
0.0
 71
     0
 42
3.5
  3
NotoSans-Bold.ttf
  4

1001
ACAD
1000
Noto Sans
1071
 33554432
  0
ENDTAB
  0
TABLE
  2
VIEW
  5
6
330
0
100
AcDbSymbolTable
 70
     0
  0
ENDTAB
  0
TABLE
  2
UCS
  5
7
330
0
100
AcDbSymbolTable
 70
     0
  0
ENDTAB
  0
TABLE
  2
APPID
  5
9
330
0
100
AcDbSymbolTable
 70
     8
  0
APPID
  5
12
330
9
100
AcDbSymbolTableRecord
100
AcDbRegAppTableRecord
  2
ACAD
 70
     0
  0
APPID
  5
98
330
9
100
AcDbSymbolTableRecord
100
AcDbRegAppTableRecord
  2
ONSHAPE_NOTES_REORDERING_D
 70
     0
  0
APPID
  5
99
330
9
100
AcDbSymbolTableRecord
100
AcDbRegAppTableRecord
  2
ONSHAPE_NOTES_ANNOTATION_D
 70
     0
  0
APPID
  5
DD
330
9
100
AcDbSymbolTableRecord
100
AcDbRegAppTableRecord
  2
ACAD_DIMASSOC_CALC_DIMLFAC
 70
     0
  0
APPID
  5
DE
330
9
100
AcDbSymbolTableRecord
100
AcDbRegAppTableRecord
  2
ACAD_DIMASSOC_DIMLFAC
 70
     0
  0
APPID
  5
DF
330
9
100
AcDbSymbolTableRecord
100
AcDbRegAppTableRecord
  2
ACAD_DIMASSOC_OVERRIDDEN_D
 70
     0
  0
APPID
  5
D3
330
9
100
AcDbSymbolTableRecord
100
AcDbRegAppTableRecord
  2
INDEX
 70
     0
  0
APPID
  5
1CF
330
9
100
AcDbSymbolTableRecord
100
AcDbRegAppTableRecord
  2
ACAD_MLEADERVER
 70
     0
  0
ENDTAB
  0
TABLE
  2
DIMSTYLE
  5
A
330
0
100
AcDbSymbolTable
 70
    22
  0
DIMSTYLE
105
27
330
A
100
AcDbSymbolTableRecord
100
AcDbDimStyleTableRecord
  2
ISO-25
 70
     0
  3

  4

  5

  6

  7

 40
0.0393700787401575
 41
2.5
 42
0.625
 43
3.75
 44
1.25
 45
0.0
 46
0.0
 47
0.0
 48
0.0
140
2.5
141
2.5
142
0.0
143
0.0393700787401575
144
1.0
145
0.0
146
1.0
147
0.625
 71
     0
 72
     0
 73
     0
 74
     0
 75
     0
 76
     0
 77
     1
 78
     8
170
     0
171
     3
172
     1
173
     0
174
     0
175
     0
176
     0
177
     0
178
     0
270
     2
271
     2
272
     2
273
     2
274
     3
340
11
275
     0
280
     0
281
     0
282
     0
283
     0
284
     8
285
     0
286
     0
287
     3
288
     0
  0
DIMSTYLE
105
72
330
A
100
AcDbSymbolTableRecord
100
AcDbDimStyleTableRecord
  2
ONSHAPE-ISO-25
 70
     0
  3

  4

  5

  6

  7

 40
0.0393700787401575
 41
2.5
 42
0.625
 43
3.75
 44
1.25
 45
0.0
 46
0.0
 47
0.0
 48
0.0
140
3.5
141
2.5
142
0.0
143
0.0393700787401575
144
1.0
145
0.0
146
1.0
147
0.625
 71
     0
 72
     0
 73
     0
 74
     0
 75
     0
 76
     0
 77
     1
 78
     8
170
     0
171
     3
172
     1
173
     0
174
     0
175
     0
176
     7
177
     7
178
     7
179
     1
270
     2
271
     2
272
     2
273
     2
274
     3
340
73
275
     0
280
     0
281
     0
282
     0
283
     0
284
     8
285
     8
286
     0
287
     3
288
     1
  0
DIMSTYLE
105
CE
102
{ACAD_REACTORS
330
C5
330
E0
330
FB
330
116
102
}
330
A
100
AcDbSymbolTableRecord
100
AcDbDimStyleTableRecord
  2
ONSHAPE-ISO-25$0
 70
     0
  3

  4

  5

  6

  7

 40
0.0393700787401575
 41
2.5
 42
0.625
 43
3.75
 44
1.25
 45
0.0
 46
0.0
 47
0.0
 48
0.0
140
3.5
141
2.5
142
0.0
143
0.0393700787401575
144
1.0
145
0.0
146
1.0
147
0.625
 71
     0
 72
     0
 73
     0
 74
     0
 75
     0
 76
     0
 77
     1
 78
     8
170
     0
171
     3
172
     1
173
     0
174
     0
175
     0
176
     7
177
     7
178
     7
179
     1
270
     2
271
     2
272
     2
273
     2
274
     3
340
73
275
     0
280
     0
281
     0
282
     0
283
     0
284
     8
285
     8
286
     0
287
     3
288
     1
  0
DIMSTYLE
105
161
330
A
100
AcDbSymbolTableRecord
100
AcDbDimStyleTableRecord
  2
ISO
 70
     0
  3

  4
"
  5

  6

  7

 40
0.0393700787401575
 41
3.5
 42
1.0
 43
10.0
 44
1.0
 45
0.0
 46
0.0
 47
0.1
 48
0.1
140
3.5
141
0.0
142
0.0
143
0.0393700787401575
144
1.0
145
0.0
146
0.71
147
1.5
 71
     0
 72
     0
 73
     0
 74
     0
 75
     0
 76
     0
 77
     1
 78
     8
170
     0
171
     3
172
     1
173
     0
174
     0
175
     0
176
     7
177
     7
178
     7
270
     2
271
     2
272
     3
273
     2
274
     3
340
11
275
     0
280
     0
281
     0
282
     0
283
     0
284
     8
285
     8
286
     0
287
     3
288
     1
  0
DIMSTYLE
105
162
330
A
100
AcDbSymbolTableRecord
100
AcDbDimStyleTableRecord
  2
ISO$3
 70
     0
  3

  4
"
  5

  6

  7

 40
0.0393700787401575
 41
3.5
 42
1.0
 43
10.0
 44
1.0
 45
0.0
 46
0.0
 47
0.1
 48
0.1
140
3.5
141
0.0
142
0.0
143
0.0393700787401575
144
1.0
145
0.0
146
0.71
147
1.5
 71
     0
 72
     0
 73
     0
 74
     1
 75
     0
 76
     0
 77
     1
 78
     8
170
     0
171
     3
172
     0
173
     0
174
     0
175
     0
176
     7
177
     7
178
     7
270
     2
271
     2
272
     3
273
     2
274
     3
340
11
275
     0
280
     0
281
     0
282
     0
283
     0
284
     8
285
     8
286
     0
288
     1
  0
DIMSTYLE
105
163
330
A
100
AcDbSymbolTableRecord
100
AcDbDimStyleTableRecord
  2
ISO$4
 70
     0
  3

  4
"
  5

  6

  7

 40
0.0393700787401575
 41
3.5
 42
1.0
 43
10.0
 44
1.0
 45
0.0
 46
0.0
 47
0.1
 48
0.1
140
3.5
141
0.0
142
0.0
143
0.0393700787401575
144
1.0
145
0.0
146
0.71
147
1.5
 71
     0
 72
     0
 73
     0
 74
     0
 75
     0
 76
     0
 77
     1
 78
     8
170
     0
171
     3
172
     1
173
     0
174
     0
175
     0
176
     7
177
     7
178
     7
270
     2
271
     2
272
     3
273
     2
274
     3
340
11
275
     0
280
     0
281
     0
282
     0
283
     0
284
     8
285
     8
286
     0
287
     3
288
     1
  0
DIMSTYLE
105
164
330
A
100
AcDbSymbolTableRecord
100
AcDbDimStyleTableRecord
  2
ISO$6
 70
     0
  3

  4
"
  5

  6

  7

 40
0.0393700787401575
 41
0.5
 42
1.0
 43
10.0
 44
1.0
 45
0.0
 46
0.0
 47
0.1
 48
0.1
140
3.5
141
0.0
142
0.0
143
0.0393700787401575
144
1.0
145
0.0
146
0.71
147
1.5
 71
     0
 72
     0
 73
     0
 74
     0
 75
     0
 76
     0
 77
     0
 78
     8
170
     0
171
     3
172
     1
173
     0
174
     0
175
     0
176
     7
177
     7
178
     7
270
     2
271
     2
272
     3
273
     2
274
     3
340
11
275
     0
280
     0
281
     0
282
     0
283
     0
284
     8
285
     8
286
     0
287
     3
288
     1
  0
DIMSTYLE
105
165
330
A
100
AcDbSymbolTableRecord
100
AcDbDimStyleTableRecord
  2
ISO$7
 70
     0
  3

  4
"
  5

  6

  7

 40
0.0393700787401575
 41
3.5
 42
1.0
 43
10.0
 44
1.0
 45
0.0
 46
0.0
 47
0.1
 48
0.1
140
3.5
141
0.0
142
0.0
143
0.0393700787401575
144
1.0
145
0.0
146
0.71
147
1.5
 71
     0
 72
     0
 73
     0
 74
     0
 75
     0
 76
     0
 77
     1
 78
     8
170
     0
171
     3
172
     1
173
     0
174
     0
175
     0
176
     7
177
     7
178
     7
270
     2
271
     2
272
     3
273
     2
274
     3
340
11
275
     0
280
     0
281
     0
282
     0
283
     0
284
     8
285
     8
286
     0
287
     3
288
     1
  0
DIMSTYLE
105
166
330
A
100
AcDbSymbolTableRecord
100
AcDbDimStyleTableRecord
  2
ISO$SF
 70
     0
  3

  4
"
  5

  6

  7

 40
0.0393700787401575
 41
3.5
 42
1.0
 43
10.0
 44
1.0
 45
0.0
 46
0.0
 47
0.1
 48
0.1
140
3.5
141
0.0
142
0.0
143
0.0393700787401575
144
1.0
145
0.0
146
0.71
147
1.5
 71
     0
 72
     0
 73
     0
 74
     0
 75
     1
 76
     1
 77
     1
 78
     8
170
     0
171
     3
172
     1
173
     0
174
     0
175
     0
176
     7
177
     7
178
     7
270
     2
271
     2
272
     3
273
     2
274
     3
340
11
275
     0
280
     0
281
     0
282
     0
283
     0
284
     8
285
     8
286
     0
287
     3
288
     1
  0
DIMSTYLE
105
167
330
A
100
AcDbSymbolTableRecord
100
AcDbDimStyleTableRecord
  2
ISO$SH
 70
     0
  3

  4
"
  5

  6

  7

 40
0.0393700787401575
 41
3.5
 42
1.0
 43
10.0
 44
1.0
 45
0.0
 46
0.0
 47
0.1
 48
0.1
140
3.5
141
0.0
142
0.0
143
0.0393700787401575
144
2.0
145
0.0
146
0.71
147
1.5
 71
     0
 72
     0
 73
     0
 74
     0
 75
     1
 76
     1
 77
     1
 78
     8
170
     0
171
     3
172
     1
173
     1
174
     0
175
     0
176
     7
177
     7
178
     7
270
     2
271
     2
272
     3
273
     2
274
     3
340
11
275
     0
280
     0
281
     0
282
     0
283
     0
284
     8
285
     8
286
     0
287
     3
288
     1
  0
DIMSTYLE
105
169
330
A
100
AcDbSymbolTableRecord
100
AcDbDimStyleTableRecord
  2
ONSHAPE-ISO-25$2
 70
     0
  3

  4

  5

  6

  7

 40
0.0393700787401575
 41
2.5
 42
0.625
 43
3.75
 44
1.25
 45
0.0
 46
0.0
 47
0.0
 48
0.0
140
3.5
141
2.5
142
0.0
143
0.0393700787401575
144
1.0
145
0.0
146
1.0
147
0.625
 71
     0
 72
     0
 73
     0
 74
     0
 75
     0
 76
     0
 77
     1
 78
     8
170
     0
171
     3
172
     1
173
     0
174
     0
175
     0
176
     7
177
     7
178
     7
179
     1
270
     2
271
     2
272
     2
273
     2
274
     3
340
73
275
     0
280
     0
281
     0
282
     0
283
     0
284
     8
285
     8
286
     0
287
     3
288
     1
  0
DIMSTYLE
105
16A
330
A
100
AcDbSymbolTableRecord
100
AcDbDimStyleTableRecord
  2
ONSHAPE-ISO-25$3
 70
     0
  3

  4

  5

  6

  7

 40
0.0393700787401575
 41
2.5
 42
0.625
 43
3.75
 44
1.25
 45
0.0
 46
0.0
 47
0.0
 48
0.0
140
3.5
141
0.0
142
0.0
143
0.0393700787401575
144
1.0
145
0.0
146
1.0
147
0.625
 71
     0
 72
     0
 73
     0
 74
     0
 75
     0
 76
     0
 77
     1
 78
     8
170
     0
171
     3
172
     1
173
     0
174
     0
175
     0
176
     7
177
     7
178
     7
179
     1
270
     2
271
     2
272
     2
273
     2
274
     3
340
73
275
     0
280
     0
281
     0
282
     0
283
     0
284
     8
285
     8
286
     0
287
     3
288
     1
  0
DIMSTYLE
105
16B
330
A
100
AcDbSymbolTableRecord
100
AcDbDimStyleTableRecord
  2
ONSHAPE-ISO-25$4
 70
     0
  3

  4

  5

  6

  7

 40
0.0393700787401575
 41
2.5
 42
0.625
 43
3.75
 44
1.25
 45
0.0
 46
0.0
 47
0.0
 48
0.0
140
3.5
141
0.0
142
0.0
143
0.0393700787401575
144
1.0
145
0.0
146
1.0
147
0.625
 71
     0
 72
     0
 73
     0
 74
     0
 75
     0
 76
     0
 77
     1
 78
     8
170
     0
171
     3
172
     1
173
     0
174
     0
175
     0
176
     7
177
     7
178
     7
179
     1
270
     2
271
     2
272
     2
273
     2
274
     3
340
73
275
     0
280
     0
281
     0
282
     0
283
     0
284
     8
285
     8
286
     0
287
     3
288
     1
  0
DIMSTYLE
105
16C
330
A
100
AcDbSymbolTableRecord
100
AcDbDimStyleTableRecord
  2
ONSHAPE-ISO-25$6
 70
     0
  3

  4

  5

  6

  7

 40
0.0393700787401575
 41
0.5
 42
0.625
 43
3.75
 44
1.25
 45
0.0
 46
0.0
 47
0.0
 48
0.0
140
3.5
141
2.5
142
0.0
143
0.0393700787401575
144
1.0
145
0.0
146
1.0
147
0.625
 71
     0
 72
     0
 73
     0
 74
     0
 75
     0
 76
     0
 77
     1
 78
     8
170
     0
171
     3
172
     1
173
     0
174
     0
175
     0
176
     7
177
     7
178
     7
179
     1
270
     2
271
     2
272
     2
273
     2
274
     3
340
73
275
     0
280
     0
281
     0
282
     0
283
     0
284
     8
285
     8
286
     0
287
     3
288
     1
  0
DIMSTYLE
105
16D
330
A
100
AcDbSymbolTableRecord
100
AcDbDimStyleTableRecord
  2
ONSHAPE-ISO-25$7
 70
     0
  3

  4

  5

  6

  7

 40
0.0393700787401575
 41
2.5
 42
0.625
 43
3.75
 44
1.25
 45
0.0
 46
0.0
 47
0.0
 48
0.0
140
3.5
141
2.5
142
0.0
143
0.0393700787401575
144
1.0
145
0.0
146
1.0
147
0.625
 71
     0
 72
     0
 73
     0
 74
     0
 75
     0
 76
     0
 77
     1
 78
     8
170
     0
171
     3
172
     1
173
     0
174
     0
175
     0
176
     7
177
     7
178
     7
179
     1
270
     2
271
     2
272
     2
273
     2
274
     3
340
73
275
     0
280
     0
281
     0
282
     0
283
     0
284
     8
285
     8
286
     0
287
     3
288
     1
  0
DIMSTYLE
105
16E
330
A
100
AcDbSymbolTableRecord
100
AcDbDimStyleTableRecord
  2
ONSHAPE-STANDARD-GTOLERANC
 70
     0
  3

  4

  5

  6

  7

 40
1.0
 41
2.5
 42
0.625
 43
3.75
 44
1.25
 45
0.0
 46
0.0
 47
0.0
 48
0.0
140
3.5
141
2.5
142
0.0
143
0.03937
144
1.0
145
0.0
146
1.0
147
0.625
 71
     0
 72
     0
 73
     0
 74
     0
 75
     0
 76
     0
 77
     1
 78
     8
170
     0
171
     3
172
     1
173
     0
174
     0
175
     0
176
     7
177
     7
178
     7
179
     1
270
     2
271
     2
272
     2
273
     2
274
     3
340
145
275
     0
280
     0
281
     0
282
     0
283
     0
284
     8
285
     8
286
     0
287
     3
288
     1
  0
DIMSTYLE
105
170
330
A
100
AcDbSymbolTableRecord
100
AcDbDimStyleTableRecord
  2
ONSHAPE-ORDINATESTYLE
 70
     0
  3

  4

  5

  6

  7

 40
0.0393700787401575
 41
2.5
 42
0.625
 43
3.75
 44
1.25
 45
0.0
 46
0.0
 47
0.0
 48
0.0
140
3.5
141
2.5
142
0.0
143
0.0393700787401575
144
1.0
145
0.0
146
1.0
147
0.625
 71
     0
 72
     0
 73
     0
 74
     0
 75
     0
 76
     0
 77
     1
 78
     8
170
     0
171
     3
172
     1
173
     0
174
     0
175
     0
176
     7
177
     7
178
     7
179
     1
270
     2
271
     2
272
     2
273
     2
274
     3
340
73
275
     0
280
     0
281
     0
282
     0
283
     0
284
     8
285
     8
286
     0
287
     3
288
     1
  0
DIMSTYLE
105
171
330
A
100
AcDbSymbolTableRecord
100
AcDbDimStyleTableRecord
  2
ONSHAPE-CHAMFERDIMSTYLE
 70
     0
  3

  4

  5

  6

  7

 40
0.0393700787401575
 41
2.5
 42
0.625
 43
3.75
 44
1.25
 45
0.0
 46
0.0
 47
0.0
 48
0.0
140
3.5
141
2.5
142
0.0
143
0.0393700787401575
144
1.0
145
0.0
146
1.0
147
0.625
 71
     0
 72
     0
 73
     0
 74
     0
 75
     0
 76
     0
 77
     1
 78
     8
170
     0
171
     3
172
     1
173
     0
174
     0
175
     0
176
     7
177
     7
178
     7
179
     1
270
     2
271
     2
272
     2
273
     2
274
     3
340
73
275
     0
280
     0
281
     0
282
     0
283
     0
284
     8
285
     8
286
     0
287
     3
288
     1
  0
DIMSTYLE
105
172
330
A
100
AcDbSymbolTableRecord
100
AcDbDimStyleTableRecord
  2
ONSHAPE-SKETCHDRIVENDIMSTY
 70
     0
  3

  4

  5

  6

  7

 40
0.0393700787401575
 41
2.5
 42
0.625
 43
3.75
 44
1.25
 45
0.0
 46
0.0
 47
0.0
 48
0.0
140
3.5
141
2.5
142
0.0
143
0.0393700787401575
144
1.0
145
0.0
146
1.0
147
0.625
 71
     0
 72
     0
 73
     0
 74
     0
 75
     0
 76
     0
 77
     1
 78
     8
170
     0
171
     3
172
     1
173
     0
174
     0
175
     0
176
   251
177
   251
178
   251
179
     1
270
     2
271
     2
272
     2
273
     2
274
     3
340
73
275
     0
280
     0
281
     0
282
     0
283
     0
284
     8
285
     8
286
     0
287
     3
288
     1
  0
DIMSTYLE
105
173
330
A
100
AcDbSymbolTableRecord
100
AcDbDimStyleTableRecord
  2
ONSHAPE-SKETCHDRIVENDIMST0
 70
     0
  3

  4

  5

  6

  7

 40
0.0393700787401575
 41
2.5
 42
0.625
 43
3.75
 44
1.25
 45
0.0
 46
0.0
 47
0.0
 48
0.0
140
3.5
141
2.5
142
0.0
143
0.0393700787401575
144
1.0
145
0.0
146
1.0
147
0.625
 71
     0
 72
     0
 73
     0
 74
     0
 75
     0
 76
     0
 77
     1
 78
     8
170
     0
171
     3
172
     1
173
     0
174
     0
175
     0
176
   251
177
   251
178
   251
179
     1
270
     2
271
     2
272
     2
273
     2
274
     3
340
73
275
     0
280
     0
281
     0
282
     0
283
     0
284
     8
285
     8
286
     0
287
     3
288
     1
  0
DIMSTYLE
105
174
330
A
100
AcDbSymbolTableRecord
100
AcDbDimStyleTableRecord
  2
ONSHAPE-SKETCHDRIVENDIMST1
 70
     0
  3

  4

  5

  6

  7

 40
0.0393700787401575
 41
2.5
 42
0.625
 43
3.75
 44
1.25
 45
0.0
 46
0.0
 47
0.0
 48
0.0
140
3.5
141
0.0
142
0.0
143
0.0393700787401575
144
1.0
145
0.0
146
1.0
147
0.625
 71
     0
 72
     0
 73
     0
 74
     0
 75
     0
 76
     0
 77
     1
 78
     8
170
     0
171
     3
172
     1
173
     0
174
     0
175
     0
176
   251
177
   251
178
   251
179
     1
270
     2
271
     2
272
     2
273
     2
274
     3
340
73
275
     0
280
     0
281
     0
282
     0
283
     0
284
     8
285
     8
286
     0
287
     3
288
     1
  0
DIMSTYLE
105
175
330
A
100
AcDbSymbolTableRecord
100
AcDbDimStyleTableRecord
  2
ONSHAPE-SKETCHDRIVENDIMST2
 70
     0
  3

  4

  5

  6

  7

 40
0.0393700787401575
 41
2.5
 42
0.625
 43
3.75
 44
1.25
 45
0.0
 46
0.0
 47
0.0
 48
0.0
140
3.5
141
0.0
142
0.0
143
0.0393700787401575
144
1.0
145
0.0
146
1.0
147
0.625
 71
     0
 72
     0
 73
     0
 74
     0
 75
     0
 76
     0
 77
     1
 78
     8
170
     0
171
     3
172
     1
173
     0
174
     0
175
     0
176
   251
177
   251
178
   251
179
     1
270
     2
271
     2
272
     2
273
     2
274
     3
340
73
275
     0
280
     0
281
     0
282
     0
283
     0
284
     8
285
     8
286
     0
287
     3
288
     1
  0
ENDTAB
  0
TABLE
  2
BLOCK_RECORD
  5
1
330
0
100
AcDbSymbolTable
 70
     4
  0
BLOCK_RECORD
  5
1F
330
1
100
AcDbSymbolTableRecord
100
AcDbBlockTableRecord
  2
*MODEL_SPACE
  0
BLOCK_RECORD
  5
1B
330
1
100
AcDbSymbolTableRecord
100
AcDbBlockTableRecord
  2
*PAPER_SPACE
  0
BLOCK_RECORD
  5
D0
330
1
100
AcDbSymbolTableRecord
100
AcDbBlockTableRecord
  2
*D1
  0
BLOCK_RECORD
  5
EB
330
1
100
AcDbSymbolTableRecord
100
AcDbBlockTableRecord
  2
*D2
  0
BLOCK_RECORD
  5
106
330
1
100
AcDbSymbolTableRecord
100
AcDbBlockTableRecord
  2
*D3
  0
BLOCK_RECORD
  5
121
330
1
100
AcDbSymbolTableRecord
100
AcDbBlockTableRecord
  2
*D4
  0
ENDTAB
  0
ENDSEC
  0
SECTION
  2
BLOCKS
  0
BLOCK
  5
20
330
1F
100
AcDbEntity
  8
0
100
AcDbBlockBegin
  2
*MODEL_SPACE
 70
     0
 10
0.0
 20
0.0
 30
0.0
  3
*MODEL_SPACE
  1

  0
ENDBLK
  5
21
330
1F
100
AcDbEntity
  8
0
100
AcDbBlockEnd
  0
BLOCK
  5
1C
330
1B
100
AcDbEntity
 67
     1
  8
0
100
AcDbBlockBegin
  2
*PAPER_SPACE
 70
     0
 10
0.0
 20
0.0
 30
0.0
  3
*PAPER_SPACE
  1

  0
ENDBLK
  5
1D
330
1B
100
AcDbEntity
 67
     1
  8
0
100
AcDbBlockEnd
  0
BLOCK
  5
D1
330
D0
100
AcDbEntity
  8
0
100
AcDbBlockBegin
  2
*D1
 70
     1
 10
0.0
 20
0.0
 30
0.0
  3
*D1
  1

  0
LINE
  5
D2
330
D0
100
AcDbEntity
  8
ANNOTATION_TEXT
 62
     7
100
AcDbLine
 10
221.0128124155298
 20
58.33499099488819
 30
0.0
 11
271.5423138349173
 21
58.33499099488819
 31
0.0
1001
INDEX
1070
     0
  0
LINE
  5
D4
330
D0
100
AcDbEntity
  8
ANNOTATION_TEXT
 62
     7
100
AcDbLine
 10
254.4170243961112
 20
85.33499099488819
 30
0.0
 11
271.5423138349173
 21
85.33499099488819
 31
0.0
1001
INDEX
1070
     1
  0
LINE
  5
D5
330
D0
100
AcDbEntity
  8
ANNOTATION_TEXT
 62
     7
100
AcDbLine
 10
271.4931012364921
 20
60.83499099488819
 30
0.0
 11
271.4931012364921
 21
82.83499099488819
 31
0.0
1001
INDEX
1070
     3
  0
SOLID
  5
D6
330
D0
100
AcDbEntity
  8
ANNOTATION_TEXT
 62
     7
100
AcDbTrace
 10
271.0764345698254
 20
60.83499099488819
 30
0.0
 11
271.9097679031588
 21
60.83499099488819
 31
0.0
 12
271.4931012364921
 22
58.33499099488819
 32
0.0
 13
271.4931012364921
 23
58.33499099488819
 33
0.0
  0
SOLID
  5
D7
330
D0
100
AcDbEntity
  8
ANNOTATION_TEXT
 62
     7
100
AcDbTrace
 10
271.9097679031588
 20
82.83499099488819
 30
0.0
 11
271.0764345698254
 21
82.83499099488819
 31
0.0
 12
271.4931012364921
 22
85.33499099488819
 32
0.0
 13
271.4931012364921
 23
85.33499099488819
 33
0.0
  0
MTEXT
  5
D8
330
D0
100
AcDbEntity
  8
ANNOTATION_TEXT
 62
     7
100
AcDbMText
 10
269.1002197651025
 20
71.83499099488819
 30
0.0
 40
3.5
 41
0.0
 71
     5
 72
     1
  1
27
  7
ONSHAPE-STANDARD-DIMENSION
 11
0.0
 21
1.0
 31
0.0
  0
POINT
  5
D9
330
D0
100
AcDbEntity
  8
DEFPOINTS
 62
     0
100
AcDbPoint
 10
220.9882061163172
 20
58.33499099488819
 30
0.0
  0
POINT
  5
DA
330
D0
100
AcDbEntity
  8
DEFPOINTS
 62
     0
100
AcDbPoint
 10
254.3924180968986
 20
85.33499099488819
 30
0.0
  0
POINT
  5
DB
330
D0
100
AcDbEntity
  8
DEFPOINTS
 62
     0
100
AcDbPoint
 10
271.4931012364921
 20
85.33499099488819
 30
0.0
  0
ENDBLK
  5
DC
330
D0
100
AcDbEntity
  8
0
100
AcDbBlockEnd
  0
BLOCK
  5
EC
330
EB
100
AcDbEntity
  8
0
100
AcDbBlockBegin
  2
*D2
 70
     1
 10
0.0
 20
0.0
 30
0.0
  3
*D2
  1

  0
LINE
  5
ED
330
EB
100
AcDbEntity
  8
ANNOTATION_TEXT
 62
     7
100
AcDbLine
 10
100.4882061163172
 20
53.5170451092056
 30
0.0
 11
100.4882061163172
 21
36.5288997844264
 31
0.0
1001
INDEX
1070
     0
  0
LINE
  5
EF
330
EB
100
AcDbEntity
  8
ANNOTATION_TEXT
 62
     7
100
AcDbLine
 10
205.4882061163172
 20
53.5170451092056
 30
0.0
 11
205.4882061163172
 21
36.5288997844264
 31
0.0
1001
INDEX
1070
     1
  0
LINE
  5
F0
330
EB
100
AcDbEntity
  8
ANNOTATION_TEXT
 62
     7
100
AcDbLine
 10
102.9882061163172
 20
36.5781123828516
 30
0.0
 11
202.9882061163172
 21
36.5781123828516
 31
0.0
1001
INDEX
1070
     3
  0
SOLID
  5
F1
330
EB
100
AcDbEntity
  8
ANNOTATION_TEXT
 62
     7
100
AcDbTrace
 10
102.9882061163172
 20
36.99477904951826
 30
0.0
 11
102.9882061163172
 21
36.16144571618494
 31
0.0
 12
100.4882061163172
 22
36.5781123828516
 32
0.0
 13
100.4882061163172
 23
36.5781123828516
 33
0.0
  0
SOLID
  5
F2
330
EB
100
AcDbEntity
  8
ANNOTATION_TEXT
 62
     7
100
AcDbTrace
 10
202.9882061163172
 20
36.16144571618494
 30
0.0
 11
202.9882061163172
 21
36.99477904951826
 31
0.0
 12
205.4882061163172
 22
36.5781123828516
 32
0.0
 13
205.4882061163172
 23
36.5781123828516
 33
0.0
  0
MTEXT
  5
F3
330
EB
100
AcDbEntity
  8
ANNOTATION_TEXT
 62
     7
100
AcDbMText
 10
152.9882061163172
 20
38.99722001227939
 30
0.0
 40
3.5
 41
0.0
 71
     5
 72
     1
  1
105
  7
ONSHAPE-STANDARD-DIMENSION
  0
POINT
  5
F4
330
EB
100
AcDbEntity
  8
DEFPOINTS
 62
     0
100
AcDbPoint
 10
100.4882061163172
 20
53.5416514084182
 30
0.0
  0
POINT
  5
F5
330
EB
100
AcDbEntity
  8
DEFPOINTS
 62
     0
100
AcDbPoint
 10
205.4882061163172
 20
53.5416514084182
 30
0.0
  0
POINT
  5
F6
330
EB
100
AcDbEntity
  8
DEFPOINTS
 62
     0
100
AcDbPoint
 10
205.4882061163172
 20
36.5781123828516
 30
0.0
  0
ENDBLK
  5
F7
330
EB
100
AcDbEntity
  8
0
100
AcDbBlockEnd
  0
BLOCK
  5
107
330
106
100
AcDbEntity
  8
0
100
AcDbBlockBegin
  2
*D3
 70
     1
 10
0.0
 20
0.0
 30
0.0
  3
*D3
  1

  0
LINE
  5
108
330
106
100
AcDbEntity
  8
ANNOTATION_TEXT
 62
     7
100
AcDbLine
 10
205.5128124155298
 20
128.3349909948882
 30
0.0
 11
289.1847302763646
 21
128.3349909948882
 31
0.0
1001
INDEX
1070
     0
  0
LINE
  5
10A
330
106
100
AcDbEntity
  8
ANNOTATION_TEXT
 62
     7
100
AcDbLine
 10
243.3988319112312
 20
53.5416514084182
 30
0.0
 11
289.1847302763646
 21
53.5416514084182
 31
0.0
1001
INDEX
1070
     1
  0
LINE
  5
10B
330
106
100
AcDbEntity
  8
ANNOTATION_TEXT
 62
     7
100
AcDbLine
 10
289.1355176779394
 20
125.8349909948882
 30
0.0
 11
289.1355176779394
 21
56.0416514084182
 31
0.0
1001
INDEX
1070
     3
  0
SOLID
  5
10C
330
106
100
AcDbEntity
  8
ANNOTATION_TEXT
 62
     7
100
AcDbTrace
 10
289.5521843446061
 20
125.8349909948882
 30
0.0
 11
288.7188510112727
 21
125.8349909948882
 31
0.0
 12
289.1355176779394
 22
128.3349909948882
 32
0.0
 13
289.1355176779394
 23
128.3349909948882
 33
0.0
  0
SOLID
  5
10D
330
106
100
AcDbEntity
  8
ANNOTATION_TEXT
 62
     7
100
AcDbTrace
 10
288.7188510112727
 20
56.0416514084182
 30
0.0
 11
289.5521843446061
 21
56.0416514084182
 31
0.0
 12
289.1355176779394
 22
53.5416514084182
 32
0.0
 13
289.1355176779394
 23
53.5416514084182
 33
0.0
  0
MTEXT
  5
10E
330
106
100
AcDbEntity
  8
ANNOTATION_TEXT
 62
     7
100
AcDbMText
 10
286.7080653618631
 20
90.9383212016532
 30
0.0
 40
3.5
 41
0.0
 71
     5
 72
     1
  1
74.79
  7
ONSHAPE-STANDARD-DIMENSION
 11
0.0
 21
1.0
 31
0.0
  0
POINT
  5
10F
330
106
100
AcDbEntity
  8
DEFPOINTS
 62
     0
100
AcDbPoint
 10
205.4882061163172
 20
128.3349909948882
 30
0.0
  0
POINT
  5
110
330
106
100
AcDbEntity
  8
DEFPOINTS
 62
     0
100
AcDbPoint
 10
243.3742256120186
 20
53.5416514084182
 30
0.0
  0
POINT
  5
111
330
106
100
AcDbEntity
  8
DEFPOINTS
 62
     0
100
AcDbPoint
 10
289.1355176779394
 20
53.5416514084182
 30
0.0
  0
ENDBLK
  5
112
330
106
100
AcDbEntity
  8
0
100
AcDbBlockEnd
  0
BLOCK
  5
122
330
121
100
AcDbEntity
  8
0
100
AcDbBlockBegin
  2
*D4
 70
     1
 10
0.0
 20
0.0
 30
0.0
  3
*D4
  1

  0
LINE
  5
123
330
121
100
AcDbEntity
  8
ANNOTATION_TEXT
 62
     7
100
AcDbLine
 10
205.5128124155298
 20
128.3349909948882
 30
0.0
 11
289.1847302763646
 21
128.3349909948882
 31
0.0
1001
INDEX
1070
     0
  0
LINE
  5
125
330
121
100
AcDbEntity
  8
ANNOTATION_TEXT
 62
     7
100
AcDbLine
 10
220.0128124155298
 20
148.3349909948882
 30
0.0
 11
289.1847302763646
 21
148.3349909948882
 31
0.0
1001
INDEX
1070
     1
  0
LINE
  5
126
330
121
100
AcDbEntity
  8
ANNOTATION_TEXT
 62
     7
100
AcDbLine
 10
289.1355176779394
 20
130.8349909948882
 30
0.0
 11
289.1355176779394
 21
145.8349909948882
 31
0.0
1001
INDEX
1070
     3
  0
SOLID
  5
127
330
121
100
AcDbEntity
  8
ANNOTATION_TEXT
 62
     7
100
AcDbTrace
 10
288.7188510112727
 20
130.8349909948882
 30
0.0
 11
289.5521843446061
 21
130.8349909948882
 31
0.0
 12
289.1355176779394
 22
128.3349909948882
 32
0.0
 13
289.1355176779394
 23
128.3349909948882
 33
0.0
  0
SOLID
  5
128
330
121
100
AcDbEntity
  8
ANNOTATION_TEXT
 62
     7
100
AcDbTrace
 10
289.5521843446061
 20
145.8349909948882
 30
0.0
 11
288.7188510112727
 21
145.8349909948882
 31
0.0
 12
289.1355176779394
 22
148.3349909948882
 32
0.0
 13
289.1355176779394
 23
148.3349909948882
 33
0.0
  0
MTEXT
  5
129
330
121
100
AcDbEntity
  8
ANNOTATION_TEXT
 62
     7
100
AcDbMText
 10
286.7164100485116
 20
138.3349909948882
 30
0.0
 40
3.5
 41
0.0
 71
     5
 72
     1
  1
20
  7
ONSHAPE-STANDARD-DIMENSION
 11
0.0
 21
1.0
 31
0.0
  0
POINT
  5
12A
330
121
100
AcDbEntity
  8
DEFPOINTS
 62
     0
100
AcDbPoint
 10
205.4882061163172
 20
128.3349909948882
 30
0.0
  0
POINT
  5
12B
330
121
100
AcDbEntity
  8
DEFPOINTS
 62
     0
100
AcDbPoint
 10
219.9882061163172
 20
148.3349909948882
 30
0.0
  0
POINT
  5
12C
330
121
100
AcDbEntity
  8
DEFPOINTS
 62
     0
100
AcDbPoint
 10
289.1355176779394
 20
148.3349909948882
 30
0.0
  0
ENDBLK
  5
12D
330
121
100
AcDbEntity
  8
0
100
AcDbBlockEnd
  0
ENDSEC
  0
SECTION
  2
ENTITIES
  0
CIRCLE
  5
78
330
1F
100
AcDbEntity
  8
MODELSKETCH_CONSTRUCTION
100
AcDbCircle
 10
85.9882061163172
 20
148.3349909948882
 30
0.0
 40
7.0
  0
SPLINE
  5
79
330
1F
100
AcDbEntity
  8
MODELSKETCH_VISIBLE
100
AcDbSpline
210
0.0
220
0.0
230
1.0
 70
     8
 71
     3
 72
   158
 73
   154
 74
     0
 42
0.000000001
 43
0.0000000216032242
 40
0.585571844327695
 40
0.585571844327695
 40
0.585571844327695
 40
0.585571844327695
 40
0.5869361715384164
 40
0.5883004987491376
 40
0.5910291531705801
 40
0.5937578075920227
 40
0.5964864620134652
 40
0.5992151164349078
 40
0.6019437708563503
 40
0.6046724252777929
 40
0.6074010796992354
 40
0.6087654069099567
 40
0.610129734120678
 40
0.6114940613313992
 40
0.6121762249367598
 40
0.6128583885421205
 40
0.6142227157528418
 40
0.615587042963563
 40
0.6183156973850056
 40
0.6210443518064481
 40
0.6237730062278907
 40
0.6265016606493332
 40
0.6292303150707758
 40
0.6319589694922183
 40
0.6333232967029395
 40
0.6346876239136608
 40
0.6360519511243822
 40
0.6374162783351034
 40
0.6387806055458246
 40
0.6394627691511853
 40
0.6401449327565459
 40
0.6408270963619066
 40
0.6415092599672673
 40
0.6418503417699476
 40
0.6421914235726279
 40
0.6425325053753083
 40
0.6428735871779885
 40
0.643555750783349
 40
0.6442379143887097
 40
0.6449200779940704
 40
0.645602241599431
 40
0.6469665688101524
 40
0.6483308960208736
 40
0.6496952232315948
 40
0.6510595504423161
 40
0.6524238776530374
 40
0.6537882048637587
 40
0.6565168592852012
 40
0.6578811864959225
 40
0.6592455137066437
 40
0.6599276773120043
 40
0.660609840917365
 40
0.6612920045227256
 40
0.6619741681280863
 40
0.6623152499307666
 40
0.662656331733447
 40
0.6628268726347871
 40
0.6629974135361273
 40
0.6633384953388076
 40
0.663679577141488
 40
0.6640206589441683
 40
0.6647028225495288
 40
0.6653849861548894
 40
0.66606714976025
 40
0.6674314769709714
 40
0.668113640576332
 40
0.6687958041816927
 40
0.6694779677870534
 40
0.6698190495897337
 40
0.6701601313924139
 40
0.670330672293754
 40
0.6705012131950941
 40
0.6706717540964343
 40
0.6708422949977745
 40
0.6711833768004548
 40
0.6715244586031351
 40
0.6722066222084958
 40
0.6728887858138565
 40
0.6735709494192171
 40
0.6742531130245778
 40
0.675617440235299
 40
0.6769817674460202
 40
0.6783460946567416
 40
0.6797104218674629
 40
0.6810747490781841
 40
0.6824390762889053
 40
0.683121239894266
 40
0.6838034034996266
 40
0.6844855671049873
 40
0.685167730710348
 40
0.6855088125130283
 40
0.6858498943157086
 40
0.686190976118389
 40
0.6863615170197291
 40
0.6865320579210692
 40
0.6868731397237494
 40
0.6872142215264297
 40
0.6878963851317904
 40
0.6885785487371511
 40
0.6892607123425117
 40
0.6899428759478724
 40
0.6906250395532331
 40
0.6919893667639543
 40
0.6933536939746755
 40
0.6947180211853968
 40
0.6960823483961182
 40
0.6974466756068394
 40
0.6988110028175606
 40
0.7001753300282819
 40
0.7008574936336426
 40
0.7011985754363229
 40
0.7015396572390032
 40
0.7018807390416836
 40
0.7020512799430237
 40
0.7022218208443639
 40
0.7025629026470442
 40
0.7029039844497245
 40
0.703586148055085
 40
0.7042683116604457
 40
0.7049504752658063
 40
0.705632638871167
 40
0.7069969660818883
 40
0.7083612932926096
 40
0.7097256205033308
 40
0.7110899477140521
 40
0.7138186021354946
 40
0.7165472565569372
 40
0.7192759109783797
 40
0.7220045653998223
 40
0.7247332198212648
 40
0.726097547031986
 40
0.7274618742427074
 40
0.7288262014534287
 40
0.7301905286641499
 40
0.7308726922695105
 40
0.7315548558748711
 40
0.7318959376775515
 40
0.7322370194802318
 40
0.7329191830855925
 40
0.7336013466909531
 40
0.7342835102963138
 40
0.735647837507035
 40
0.7383764919284775
 40
0.7411051463499201
 40
0.7438338007713626
 40
0.7465624551928052
 40
0.7492911096142477
 40
0.7520197640356903
 40
0.7547484184571328
 40
0.756112745667854
 40
0.7574770728785752
 40
0.7588414000892966
 40
0.7602057273000178
 40
0.7602057273000178
 40
0.7602057273000178
 40
0.7602057273000178
 10
152.9882061163172
 20
160.3695182889314
 30
0.0
 10
152.5277335906731
 20
160.3695182889314
 30
0.0
 10
151.6067833537103
 20
160.3707009507657
 30
0.0
 10
149.7648698205303
 20
160.3760446189248
 30
0.0
 10
147.4624655169019
 20
160.3855492181462
 30
0.0
 10
144.6995894333361
 20
160.3948839357395
 30
0.0
 10
141.9367434838085
 20
160.3973454731972
 30
0.0
 10
139.1739445364786
 20
160.3890901704643
 30
0.0
 10
136.4112066767958
 20
160.3668931534079
 30
0.0
 10
133.6485426255403
 20
160.3278999232335
 30
0.0
 10
131.3463930904062
 20
160.2792109520712
 30
0.0
 10
129.5047227437349
 20
160.2292766820031
 30
0.0
 10
128.123492368714
 20
160.1860208351033
 30
0.0
 10
126.9724991789305
 20
160.1448746891244
 30
0.0
 10
126.0516968515076
 20
160.1087376837674
 30
0.0
 10
125.1311707637168
 20
160.0704120711683
 30
0.0
 10
123.9809979264678
 20
160.0183027894269
 30
0.0
 10
122.1418234892382
 20
159.9255414797233
 30
0.0
 10
119.8450072797687
 20
159.7911872145409
 30
0.0
 10
117.0925881848586
 20
159.5978279539831
 30
0.0
 10
114.3442668176492
 20
159.3694449557117
 30
0.0
 10
111.6004113651718
 20
159.1028930493799
 30
0.0
 10
108.8614282275905
 20
158.7946983742229
 30
0.0
 10
106.5833805338407
 20
158.4999366518296
 30
0.0
 10
104.7638633898594
 20
158.2391619875817
 30
0.0
 10
103.400758063414
 20
158.0304827582728
 30
0.0
 10
102.039261348719
 20
157.8080550514445
 30
0.0
 10
100.6794555320845
 20
157.5711755969502
 30
0.0
 10
99.54776703457918
 20
157.3611009811852
 30
0.0
 10
98.64335431564675
 20
157.1850237953493
 30
0.0
 10
97.96552671311065
 20
157.0488466844948
 30
0.0
 10
97.28819451548117
 20
156.9084362425742
 30
0.0
 10
96.72417515327388
 20
156.7878000690233
 30
0.0
 10
96.27322226410078
 20
156.6890522687838
 30
0.0
 10
95.93513876410293
 20
156.6138552484229
 30
0.0
 10
95.59719664997934
 20
156.537507521064
 30
0.0
 10
95.14675685051193
 20
156.4341436922397
 30
0.0
 10
94.58480378718832
 20
156.302147961029
 30
0.0
 10
93.91217321677456
 20
156.1391570596298
 30
0.0
 10
93.2413221903366
 20
155.9714583742464
 30
0.0
 10
92.34928018970453
 20
155.7414187337181
 30
0.0
 10
91.23889854086818
 20
155.4414783376272
 30
0.0
 10
89.91431959232565
 20
155.0606449028244
 30
0.0
 10
88.59806583331437
 20
154.657723667058
 30
0.0
 10
87.2906257948398
 20
154.2314182459458
 30
0.0
 10
85.99253907722283
 20
153.7802970615724
 30
0.0
 10
84.27501843602303
 20
153.1436169824958
 30
0.0
 10
82.5787405777821
 20
152.4505765799663
 30
0.0
 10
80.90522312965084
 20
151.6971493768751
 30
0.0
 10
79.86910031859554
 20
151.2001885546037
 30
0.0
 10
79.04631481179425
 20
150.7864019388994
 30
0.0
 10
78.43233929411295
 20
150.4678008938127
 30
0.0
 10
77.82153630239654
 20
150.1407834131565
 30
0.0
 10
77.31522718523226
 20
149.8611205561674
 30
0.0
 10
76.91182929639422
 20
149.6330194249664
 30
0.0
 10
76.66039518963194
 20
149.488614663838
 30
0.0
 10
76.45967642071562
 20
149.3719814422109
 30
0.0
 10
76.2592080978813
 20
149.2545833319568
 30
0.0
 10
76.00945115914081
 20
149.10660487708
 30
0.0
 10
75.71111758658526
 20
148.9270777214813
 30
0.0
 10
75.31516599354674
 20
148.6850826423442
 30
0.0
 10
74.82367456382036
 20
148.3776466059306
 30
0.0
 10
74.23945261212037
 20
148.0007384688145
 30
0.0
 10
73.46798645182659
 20
147.4874450062689
 30
0.0
 10
72.70787378309544
 20
146.9578710266924
 30
0.0
 10
71.95933869209566
 20
146.4116951873501
 30
0.0
 10
71.40378380071579
 20
145.9936800280838
 30
0.0
 10
70.94574134546622
 20
145.6382781838182
 30
0.0
 10
70.58228996326437
 20
145.3496817288366
 30
0.0
 10
70.35637951812672
 20
145.1675168857482
 30
0.0
 10
70.17640853264643
 20
145.0207090139764
 30
0.0
 10
70.04179552098688
 20
144.9100518922834
 30
0.0
 10
69.90760735552917
 20
144.7988905210746
 30
0.0
 10
69.72939885820756
 20
144.6501210573099
 30
0.0
 10
69.50790340063051
 20
144.4630678363835
 30
0.0
 10
69.15623379359937
 20
144.1614782645944
 30
0.0
 10
68.72173592644688
 20
143.7801642896332
 30
0.0
 10
68.20847036989863
 20
143.3156798420159
 30
0.0
 10
67.70332092990702
 20
142.8442993959038
 30
0.0
 10
67.0405902923643
 20
142.206614680925
 30
0.0
 10
66.23239283590209
 20
141.3923329088295
 30
0.0
 10
65.29477835904797
 20
140.3878178612926
 30
0.0
 10
64.38926030963987
 20
139.3560329590376
 30
0.0
 10
63.51570973239622
 20
138.297087769666
 30
0.0
 10
62.67399485706218
 20
137.2110942541034
 30
0.0
 10
61.99898361033038
 20
136.2836544655848
 30
0.0
 10
61.47475702915161
 20
135.5282935791733
 30
0.0
 10
61.08946098063162
 20
134.9550829671685
 30
0.0
 10
60.71202169916051
 20
134.375197505504
 30
0.0
 10
60.40402107456324
 20
133.8864084306574
 30
0.0
 10
60.16153259822566
 20
133.4920564772334
 30
0.0
 10
59.98161622094904
 20
133.1946274325386
 30
0.0
 10
59.83332208613898
 20
132.9454062645674
 30
0.0
 10
59.7156380459624
 20
132.7451616673273
 30
0.0
 10
59.59873268537653
 20
132.544587430534
 30
0.0
 10
59.45407346435851
 20
132.2932866306523
 30
0.0
 10
59.22572684174592
 20
131.8899582258007
 30
0.0
 10
58.94607757969293
 20
131.3834845256586
 30
0.0
 10
58.61960376699832
 20
130.7720722381108
 30
0.0
 10
58.3020915329788
 20
130.157074256443
 30
0.0
 10
57.99340039436255
 20
129.5385466200623
 30
0.0
 10
57.59339162836223
 20
128.7092098009601
 30
0.0
 10
57.11475718298806
 20
127.6639853081743
 30
0.0
 10
56.57357117909007
 20
126.3964413477378
 30
0.0
 10
56.06458617672643
 20
125.1160126800351
 30
0.0
 10
55.58687519224997
 20
123.8230702148362
 30
0.0
 10
55.13955635981737
 20
122.5179668473935
 30
0.0
 10
54.7217901449367
 20
121.201038387771
 30
0.0
 10
54.39761226030218
 20
120.0940108328959
 30
0.0
 10
54.1829337832339
 20
119.3141909313887
 30
0.0
 10
54.06371376677541
 20
118.8671986085071
 30
0.0
 10
53.97601350460527
 20
118.5312657832404
 30
0.0
 10
53.90435180386061
 20
118.2507606473916
 30
0.0
 10
53.84786509805071
 20
118.026001832844
 30
0.0
 10
53.79198834254677
 20
117.8012089452997
 30
0.0
 10
53.72327136975803
 20
117.5201223175492
 30
0.0
 10
53.61570961090738
 20
117.0701954285663
 30
0.0
 10
53.48567936053154
 20
116.5074315629942
 30
0.0
 10
53.33656651654238
 20
115.8315606393369
 30
0.0
 10
53.19423028663581
 20
115.1551466676778
 30
0.0
 10
53.01329681696151
 20
114.2525525031538
 30
0.0
 10
52.80337226120159
 20
113.1230084663198
 30
0.0
 10
52.57643809310341
 20
111.7655546280614
 30
0.0
 10
52.37279320208547
 20
110.4062348711211
 30
0.0
 10
52.13032122289018
 20
108.5914807037575
 30
0.0
 10
51.87833975141617
 20
106.3189432244919
 30
0.0
 10
51.64886024366381
 20
103.5860577025406
 30
0.0
 10
51.48527970912533
 20
100.8478924115092
 30
0.0
 10
51.38192607364412
 20
98.10490178917925
 30
0.0
 10
51.34214211826721
 20
95.81536323246553
 30
0.0
 10
51.33624898758855
 20
93.98165455220813
 30
0.0
 10
51.34440269991861
 20
92.60536571934082
 30
0.0
 10
51.36476473213501
 20
91.22809853595471
 30
0.0
 10
51.39163616695077
 20
90.07958317447567
 30
0.0
 10
51.41893066194155
 20
89.16030480038322
 30
0.0
 10
51.43837794629564
 20
88.58556813128453
 30
0.0
 10
51.45535350751162
 20
88.12565683251968
 30
0.0
 10
51.47326811690636
 20
87.66570087563741
 30
0.0
 10
51.49739230064669
 20
87.09115358514059
 30
0.0
 10
51.52907922938474
 20
86.40220894918897
 30
0.0
 10
51.57493263180373
 20
85.48433169208252
 30
0.0
 10
51.66452850065715
 20
83.87987679750967
 30
0.0
 10
51.81865772676867
 20
81.59292654673298
 30
0.0
 10
52.0439991643811
 20
78.85650658300338
 30
0.0
 10
52.30882288888227
 20
76.12783078327914
 30
0.0
 10
52.61274860484891
 20
73.40682424961174
 30
0.0
 10
52.95598401453859
 20
70.69352780257046
 30
0.0
 10
53.33945268540312
 20
67.98812256539537
 30
0.0
 10
53.6940626655233
 20
65.74049332977852
 30
0.0
 10
54.00040372932569
 20
63.94683303880839
 30
0.0
 10
54.2420925920384
 20
62.60392833123037
 30
0.0
 10
54.49646035937578
 20
61.26351042072941
 30
0.0
 10
54.6751435422989
 20
60.37168423956776
 30
0.0
 10
54.76697697179853
 20
59.926259889596
 30
0.0
  0
LINE
  5
7A
330
1F
100
AcDbEntity
  8
MODELSKETCH_VISIBLE
100
AcDbLine
 10
100.4882061163172
 20
53.5416514084182
 30
0.0
 11
205.4882061163172
 21
53.5416514084182
 31
0.0
  0
ARC
  5
7B
330
1F
100
AcDbEntity
  8
MODELSKETCH_VISIBLE
100
AcDbCircle
 10
62.60218662061579
 20
61.5416514084183
 30
0.0
 40
8.0
100
AcDbArc
 50
191.6494883929158
 51
270.0
  0
CIRCLE
  5
7C
330
1F
100
AcDbEntity
  8
MODELSKETCH_VISIBLE
100
AcDbCircle
 10
84.9882061163172
 20
58.33499099488819
 30
0.0
 40
3.250000000000003
  0
LINE
  5
7D
330
1F
100
AcDbEntity
  8
MODELSKETCH_VISIBLE
100
AcDbLine
 10
100.4882061163172
 20
128.3349909948882
 30
0.0
 11
205.4882061163172
 21
128.3349909948882
 31
0.0
  0
LINE
  5
7E
330
1F
100
AcDbEntity
  8
MODELSKETCH_VISIBLE
100
AcDbLine
 10
62.60218662061579
 20
53.5416514084182
 30
0.0
 11
243.3742256120186
 21
53.5416514084182
 31
0.0
  0
LINE
  5
7F
330
1F
100
AcDbEntity
  8
MODELSKETCH_CONSTRUCTION
100
AcDbLine
 10
62.60218662061579
 20
57.5416514084182
 30
0.0
 11
243.3742256120186
 21
57.5416514084182
 31
0.0
  0
CIRCLE
  5
80
330
1F
100
AcDbEntity
  8
MODELSKETCH_VISIBLE
100
AcDbCircle
 10
220.9882061163172
 20
58.33499099488819
 30
0.0
 40
3.250000000000003
  0
LINE
  5
81
330
1F
100
AcDbEntity
  8
MODELSKETCH_VISIBLE
100
AcDbLine
 10
51.58399413573577
 20
85.33499099488819
 30
0.0
 11
254.3924180968986
 21
85.33499099488819
 31
0.0
  0
LINE
  5
82
330
1F
100
AcDbEntity
  8
MODELSKETCH_VISIBLE
100
AcDbLine
 10
205.4882061163172
 20
53.5416514084182
 30
0.0
 11
205.4882061163172
 21
128.3349909948882
 31
0.0
  0
CIRCLE
  5
83
330
1F
100
AcDbEntity
  8
MODELSKETCH_CONSTRUCTION
100
AcDbCircle
 10
220.9882061163172
 20
58.33499099488819
 30
0.0
 40
7.0
  0
LINE
  5
84
330
1F
100
AcDbEntity
  8
MODELSKETCH_VISIBLE
100
AcDbLine
 10
100.4882061163172
 20
53.5416514084182
 30
0.0
 11
100.4882061163172
 21
128.3349909948882
 31
0.0
  0
ARC
  5
85
330
1F
100
AcDbEntity
  8
MODELSKETCH_CONSTRUCTION
100
AcDbCircle
 10
243.3742256120186
 20
61.5416514084183
 30
0.0
 40
4.0
100
AcDbArc
 50
270.0
 51
348.3505207794964
  0
CIRCLE
  5
86
330
1F
100
AcDbEntity
  8
MODELSKETCH_VISIBLE
100
AcDbCircle
 10
85.9882061163172
 20
148.3349909948882
 30
0.0
 40
3.250000000000003
  0
SPLINE
  5
87
330
1F
100
AcDbEntity
  8
MODELSKETCH_CONSTRUCTION
100
AcDbSpline
210
0.0
220
0.0
230
1.0
 70
     8
 71
     3
 72
    49
 73
    45
 74
     0
 42
0.000000001
 43
0.00000002884653
 40
0.0
 40
0.0
 40
0.0
 40
0.0
 40
0.0054573088428851
 40
0.0109146176857702
 40
0.0218292353715403
 40
0.0327438530573105
 40
0.0436584707430807
 40
0.0491157795859658
 40
0.0545730884288509
 40
0.0600303972717359
 40
0.065487706114621
 40
0.0682163605360636
 40
0.0709450149575061
 40
0.0736736693789486
 40
0.0764023238003912
 40
0.0791309782218337
 40
0.0818596326432763
 40
0.0845882870647188
 40
0.0859526142754401
 40
0.0873169414861614
 40
0.0900455959076039
 40
0.0927742503290465
 40
0.095502904750489
 40
0.0982315591719315
 40
0.0995958863826528
 40
0.1009602135933741
 40
0.1036888680148166
 40
0.1064175224362592
 40
0.1091461768577017
 40
0.1146034857005868
 40
0.1173321401220293
 40
0.1200607945434719
 40
0.1227894489649144
 40
0.125518103386357
 40
0.1309754122292421
 40
0.1364327210721271
 40
0.1418900299150122
 40
0.1446186843364548
 40
0.1473473387578973
 40
0.1528046476007824
 40
0.1582619564436675
 40
0.1637192652865526
 40
0.1691765741294377
 40
0.1746338829723227
 40
0.1746338829723227
 40
0.1746338829723227
 40
0.1746338829723227
 10
152.9882061163172
 20
156.3695182889314
 30
0.0
 10
154.8437941692197
 20
156.3695182889314
 30
0.0
 10
158.5340923400213
 20
156.3869292477488
 30
0.0
 10
165.8736186324359
 20
156.4081752623539
 30
0.0
 10
174.9989729947583
 20
156.325199379534
 30
0.0
 10
185.8953350488981
 20
155.8768766875532
 30
0.0
 10
194.868126387644
 20
155.0893543204718
 30
0.0
 10
201.9597109300518
 20
154.1119424523467
 30
0.0
 10
207.2216525694309
 20
153.1712821523887
 30
0.0
 10
212.4190509441455
 20
151.9765610155643
 30
0.0
 10
216.6060107318857
 20
150.7414365983379
 30
0.0
 10
219.8483068077632
 20
149.5794801355856
 30
0.0
 10
222.2234884098653
 20
148.6088838537391
 30
0.0
 10
224.54701597469
 20
147.5298481756253
 30
0.0
 10
226.8144853888297
 20
146.3359338483768
 30
0.0
 10
229.0228494530256
 20
145.0182403990455
 30
0.0
 10
231.1355272769208
 20
143.5912276020813
 30
0.0
 10
232.8212861275165
 20
142.3038751924484
 30
0.0
 10
234.1218054072668
 20
141.2140335007123
 30
0.0
 10
235.3794706941179
 20
140.0931523765277
 30
0.0
 10
236.8764905077422
 20
138.6302880687394
 30
0.0
 10
238.5546613002014
 20
136.7759973610404
 30
0.0
 10
240.1176715477401
 20
134.8213129159259
 30
0.0
 10
241.3263531262681
 20
133.1070641694546
 30
0.0
 10
242.2373992239353
 20
131.6846008774211
 30
0.0
 10
243.113261161876
 20
130.224582613488
 30
0.0
 10
244.1271488718884
 20
128.3557428218461
 30
0.0
 10
245.2176847385549
 20
126.0536407983795
 30
0.0
 10
246.5146881226123
 20
122.9037749009717
 30
0.0
 10
247.5873751905651
 20
119.6416089432934
 30
0.0
 10
248.458117336845
 20
116.2659455333761
 30
0.0
 10
249.0073041675393
 20
113.7131551153589
 30
0.0
 10
249.45974173131
 20
111.1433539333918
 30
0.0
 10
249.9482831678268
 20
107.682939645101
 30
0.0
 10
250.3686013219066
 20
103.3080249716933
 30
0.0
 10
250.6224874445186
 20
98.00123003457452
 30
0.0
 10
250.6552776719434
 20
93.54336384253236
 30
0.0
 10
250.5865705647844
 20
89.96157204057099
 30
0.0
 10
250.4572292602562
 20
86.36766570273822
 30
0.0
 10
250.1885076641644
 20
81.8885855925535
 30
0.0
 10
249.7081055452378
 20
76.53931188915172
 30
0.0
 10
249.0751477232496
 20
71.22002141765722
 30
0.0
 10
248.2865983268934
 20
65.93974934131613
 30
0.0
 10
247.6471386368333
 20
62.4573250697926
 30
0.0
 10
247.2918303155903
 20
60.73395506290527
 30
0.0
  0
SPLINE
  5
88
330
1F
100
AcDbEntity
  8
MODELSKETCH_VISIBLE
100
AcDbSpline
210
0.0
220
0.0
230
1.0
 70
     8
 71
     3
 72
   158
 73
   154
 74
     0
 42
0.000000001
 43
0.0000000293978923
 40
0.0
 40
0.0
 40
0.0
 40
0.0
 40
0.0013643272107213
 40
0.0027286544214425
 40
0.0054573088428851
 40
0.0081859632643276
 40
0.0109146176857702
 40
0.0136432721072127
 40
0.0163719265286553
 40
0.0191005809500978
 40
0.0218292353715404
 40
0.0231935625822617
 40
0.0245578897929829
 40
0.0259222170037041
 40
0.0266043806090648
 40
0.0272865442144254
 40
0.0286508714251468
 40
0.030015198635868
 40
0.0327438530573105
 40
0.0354725074787531
 40
0.0382011619001956
 40
0.0409298163216382
 40
0.0436584707430807
 40
0.0463871251645233
 40
0.0477514523752445
 40
0.0491157795859658
 40
0.0504801067966871
 40
0.0518444340074083
 40
0.0532087612181296
 40
0.0538909248234902
 40
0.0545730884288509
 40
0.0552552520342116
 40
0.0559374156395722
 40
0.0562784974422526
 40
0.0566195792449329
 40
0.0569606610476132
 40
0.0573017428502934
 40
0.057983906455654
 40
0.0586660700610147
 40
0.0593482336663753
 40
0.060030397271736
 40
0.0613947244824573
 40
0.0627590516931785
 40
0.0641233789038997
 40
0.0654877061146211
 40
0.0668520333253424
 40
0.0682163605360636
 40
0.0709450149575062
 40
0.0723093421682275
 40
0.0736736693789487
 40
0.0743558329843093
 40
0.0750379965896699
 40
0.0757201601950306
 40
0.0764023238003912
 40
0.0767434056030716
 40
0.0770844874057519
 40
0.0772550283070921
 40
0.0774255692084322
 40
0.0777666510111126
 40
0.0781077328137929
 40
0.0784488146164732
 40
0.0791309782218338
 40
0.0798131418271943
 40
0.080495305432555
 40
0.0818596326432763
 40
0.082541796248637
 40
0.0832239598539977
 40
0.0839061234593583
 40
0.0842472052620387
 40
0.0845882870647189
 40
0.0847588279660589
 40
0.0849293688673991
 40
0.0850999097687393
 40
0.0852704506700794
 40
0.0856115324727598
 40
0.0859526142754401
 40
0.0866347778808008
 40
0.0873169414861614
 40
0.0879991050915221
 40
0.0886812686968828
 40
0.090045595907604
 40
0.0914099231183252
 40
0.0927742503290465
 40
0.0941385775397678
 40
0.0955029047504891
 40
0.0968672319612103
 40
0.0975493955665709
 40
0.0982315591719316
 40
0.0989137227772923
 40
0.0995958863826529
 40
0.0999369681853333
 40
0.1002780499880136
 40
0.1006191317906939
 40
0.1007896726920341
 40
0.1009602135933741
 40
0.1013012953960544
 40
0.1016423771987347
 40
0.1023245408040954
 40
0.103006704409456
 40
0.1036888680148167
 40
0.1043710316201774
 40
0.105053195225538
 40
0.1064175224362592
 40
0.1077818496469805
 40
0.1091461768577018
 40
0.1105105040684231
 40
0.1118748312791443
 40
0.1132391584898655
 40
0.1146034857005869
 40
0.1152856493059475
 40
0.1156267311086279
 40
0.1159678129113082
 40
0.1163088947139885
 40
0.1164794356153287
 40
0.1166499765166689
 40
0.1169910583193492
 40
0.1173321401220294
 40
0.11801430372739
 40
0.1186964673327506
 40
0.1193786309381113
 40
0.120060794543472
 40
0.1214251217541933
 40
0.1227894489649145
 40
0.1241537761756357
 40
0.125518103386357
 40
0.1282467578077996
 40
0.1309754122292421
 40
0.1337040666506847
 40
0.1364327210721272
 40
0.1391613754935698
 40
0.140525702704291
 40
0.1418900299150123
 40
0.1432543571257336
 40
0.1446186843364549
 40
0.1453008479418154
 40
0.1459830115471761
 40
0.1463240933498564
 40
0.1466651751525367
 40
0.1473473387578974
 40
0.1480295023632581
 40
0.1487116659686187
 40
0.15007599317934
 40
0.1528046476007825
 40
0.155533302022225
 40
0.1582619564436676
 40
0.1609906108651101
 40
0.1637192652865527
 40
0.1664479197079952
 40
0.1691765741294378
 40
0.170540901340159
 40
0.1719052285508802
 40
0.1732695557616015
 40
0.1746338829723227
 40
0.1746338829723227
 40
0.1746338829723227
 40
0.1746338829723227
 10
152.9882061163172
 20
160.3695182889314
 30
0.0
 10
153.4486786419613
 20
160.3695182889314
 30
0.0
 10
154.3696288789241
 20
160.3707009507657
 30
0.0
 10
156.2115424121041
 20
160.3760446189248
 30
0.0
 10
158.5139467157325
 20
160.3855492181462
 30
0.0
 10
161.2768227992983
 20
160.3948839357395
 30
0.0
 10
164.0396687488259
 20
160.3973454731972
 30
0.0
 10
166.8024676961558
 20
160.3890901704643
 30
0.0
 10
169.5652055558386
 20
160.3668931534079
 30
0.0
 10
172.3278696070941
 20
160.3278999232335
 30
0.0
 10
174.6300191422282
 20
160.2792109520712
 30
0.0
 10
176.4716894888995
 20
160.2292766820031
 30
0.0
 10
177.8529198639204
 20
160.1860208351033
 30
0.0
 10
179.0039130537039
 20
160.1448746891244
 30
0.0
 10
179.9247153811268
 20
160.1087376837674
 30
0.0
 10
180.8452414689176
 20
160.0704120711683
 30
0.0
 10
181.9954143061666
 20
160.0183027894269
 30
0.0
 10
183.8345887433962
 20
159.9255414797233
 30
0.0
 10
186.1314049528658
 20
159.7911872145409
 30
0.0
 10
188.8838240477758
 20
159.5978279539831
 30
0.0
 10
191.6321454149852
 20
159.3694449557117
 30
0.0
 10
194.3760008674626
 20
159.1028930493799
 30
0.0
 10
197.1149840050439
 20
158.7946983742229
 30
0.0
 10
199.3930316987937
 20
158.4999366518296
 30
0.0
 10
201.212548842775
 20
158.2391619875817
 30
0.0
 10
202.5756541692204
 20
158.0304827582728
 30
0.0
 10
203.9371508839154
 20
157.8080550514445
 30
0.0
 10
205.29695670055
 20
157.5711755969502
 30
0.0
 10
206.4286451980552
 20
157.3611009811852
 30
0.0
 10
207.3330579169877
 20
157.1850237953493
 30
0.0
 10
208.0108855195238
 20
157.0488466844948
 30
0.0
 10
208.6882177171532
 20
156.9084362425742
 30
0.0
 10
209.2522370793606
 20
156.7878000690233
 30
0.0
 10
209.7031899685336
 20
156.6890522687838
 30
0.0
 10
210.0412734685315
 20
156.6138552484229
 30
0.0
 10
210.3792155826551
 20
156.537507521064
 30
0.0
 10
210.8296553821225
 20
156.4341436922397
 30
0.0
 10
211.3916084454461
 20
156.302147961029
 30
0.0
 10
212.0642390158599
 20
156.1391570596298
 30
0.0
 10
212.7350900422978
 20
155.9714583742464
 30
0.0
 10
213.6271320429299
 20
155.7414187337181
 30
0.0
 10
214.7375136917663
 20
155.4414783376272
 30
0.0
 10
216.0620926403087
 20
155.0606449028244
 30
0.0
 10
217.37834639932
 20
154.657723667058
 30
0.0
 10
218.6857864377946
 20
154.2314182459458
 30
0.0
 10
219.9838731554116
 20
153.7802970615724
 30
0.0
 10
221.7013937966114
 20
153.1436169824958
 30
0.0
 10
223.3976716548523
 20
152.4505765799663
 30
0.0
 10
225.0711891029836
 20
151.6971493768751
 30
0.0
 10
226.1073119140389
 20
151.2001885546037
 30
0.0
 10
226.9300974208402
 20
150.7864019388994
 30
0.0
 10
227.5440729385215
 20
150.4678008938127
 30
0.0
 10
228.1548759302379
 20
150.1407834131565
 30
0.0
 10
228.6611850474021
 20
149.8611205561674
 30
0.0
 10
229.0645829362402
 20
149.6330194249664
 30
0.0
 10
229.3160170430025
 20
149.488614663838
 30
0.0
 10
229.5167358119188
 20
149.3719814422109
 30
0.0
 10
229.7172041347531
 20
149.2545833319568
 30
0.0
 10
229.9669610734936
 20
149.10660487708
 30
0.0
 10
230.2652946460491
 20
148.9270777214813
 30
0.0
 10
230.6612462390877
 20
148.6850826423442
 30
0.0
 10
231.152737668814
 20
148.3776466059306
 30
0.0
 10
231.736959620514
 20
148.0007384688145
 30
0.0
 10
232.5084257808078
 20
147.4874450062689
 30
0.0
 10
233.268538449539
 20
146.9578710266924
 30
0.0
 10
234.0170735405388
 20
146.4116951873501
 30
0.0
 10
234.5726284319186
 20
145.9936800280838
 30
0.0
 10
235.0306708871682
 20
145.6382781838182
 30
0.0
 10
235.39412226937
 20
145.3496817288366
 30
0.0
 10
235.6200327145077
 20
145.1675168857482
 30
0.0
 10
235.800003699988
 20
145.0207090139764
 30
0.0
 10
235.9346167116475
 20
144.9100518922834
 30
0.0
 10
236.0688048771053
 20
144.7988905210746
 30
0.0
 10
236.2470133744268
 20
144.6501210573099
 30
0.0
 10
236.4685088320039
 20
144.4630678363835
 30
0.0
 10
236.820178439035
 20
144.1614782645944
 30
0.0
 10
237.2546763061875
 20
143.7801642896332
 30
0.0
 10
237.7679418627358
 20
143.3156798420159
 30
0.0
 10
238.2730913027274
 20
142.8442993959038
 30
0.0
 10
238.9358219402701
 20
142.206614680925
 30
0.0
 10
239.7440193967323
 20
141.3923329088295
 30
0.0
 10
240.6816338735864
 20
140.3878178612926
 30
0.0
 10
241.5871519229946
 20
139.3560329590376
 30
0.0
 10
242.4607025002382
 20
138.297087769666
 30
0.0
 10
243.3024173755722
 20
137.2110942541034
 30
0.0
 10
243.977428622304
 20
136.2836544655848
 30
0.0
 10
244.5016552034828
 20
135.5282935791733
 30
0.0
 10
244.8869512520028
 20
134.9550829671685
 30
0.0
 10
245.2643905334739
 20
134.375197505504
 30
0.0
 10
245.5723911580712
 20
133.8864084306574
 30
0.0
 10
245.8148796344088
 20
133.4920564772334
 30
0.0
 10
245.9947960116854
 20
133.1946274325386
 30
0.0
 10
246.1430901464954
 20
132.9454062645674
 30
0.0
 10
246.260774186672
 20
132.7451616673273
 30
0.0
 10
246.3776795472579
 20
132.544587430534
 30
0.0
 10
246.5223387682759
 20
132.2932866306523
 30
0.0
 10
246.7506853908885
 20
131.8899582258007
 30
0.0
 10
247.0303346529415
 20
131.3834845256586
 30
0.0
 10
247.3568084656361
 20
130.7720722381108
 30
0.0
 10
247.6743206996556
 20
130.157074256443
 30
0.0
 10
247.9830118382719
 20
129.5385466200623
 30
0.0
 10
248.3830206042722
 20
128.7092098009601
 30
0.0
 10
248.8616550496463
 20
127.6639853081743
 30
0.0
 10
249.4028410535443
 20
126.3964413477378
 30
0.0
 10
249.911826055908
 20
125.1160126800351
 30
0.0
 10
250.3895370403844
 20
123.8230702148362
 30
0.0
 10
250.836855872817
 20
122.5179668473935
 30
0.0
 10
251.2546220876977
 20
121.201038387771
 30
0.0
 10
251.5787999723322
 20
120.0940108328959
 30
0.0
 10
251.7934784494005
 20
119.3141909313887
 30
0.0
 10
251.912698465859
 20
118.8671986085071
 30
0.0
 10
252.0003987280292
 20
118.5312657832404
 30
0.0
 10
252.0720604287738
 20
118.2507606473916
 30
0.0
 10
252.1285471345837
 20
118.026001832844
 30
0.0
 10
252.1844238900877
 20
117.8012089452997
 30
0.0
 10
252.2531408628764
 20
117.5201223175492
 30
0.0
 10
252.360702621727
 20
117.0701954285663
 30
0.0
 10
252.4907328721029
 20
116.5074315629942
 30
0.0
 10
252.639845716092
 20
115.8315606393369
 30
0.0
 10
252.7821819459986
 20
115.1551466676778
 30
0.0
 10
252.9631154156729
 20
114.2525525031538
 30
0.0
 10
253.1730399714328
 20
113.1230084663198
 30
0.0
 10
253.399974139531
 20
111.7655546280614
 30
0.0
 10
253.6036190305489
 20
110.4062348711211
 30
0.0
 10
253.8460910097442
 20
108.5914807037575
 30
0.0
 10
254.0980724812183
 20
106.3189432244919
 30
0.0
 10
254.3275519889706
 20
103.5860577025406
 30
0.0
 10
254.4911325235091
 20
100.8478924115092
 30
0.0
 10
254.5944861589903
 20
98.10490178917925
 30
0.0
 10
254.6342701143672
 20
95.81536323246553
 30
0.0
 10
254.6401632450459
 20
93.98165455220813
 30
0.0
 10
254.6320095327158
 20
92.60536571934082
 30
0.0
 10
254.6116475004994
 20
91.22809853595471
 30
0.0
 10
254.5847760656836
 20
90.07958317447567
 30
0.0
 10
254.5574815706929
 20
89.16030480038322
 30
0.0
 10
254.5380342863388
 20
88.58556813128453
 30
0.0
 10
254.5210587251228
 20
88.12565683251968
 30
0.0
 10
254.503144115728
 20
87.66570087563741
 30
0.0
 10
254.4790199319877
 20
87.09115358514059
 30
0.0
 10
254.4473330032497
 20
86.40220894918897
 30
0.0
 10
254.4014796008307
 20
85.48433169208252
 30
0.0
 10
254.3118837319773
 20
83.87987679750967
 30
0.0
 10
254.1577545058657
 20
81.59292654673298
 30
0.0
 10
253.9324130682533
 20
78.85650658300338
 30
0.0
 10
253.6675893437521
 20
76.12783078327914
 30
0.0
 10
253.3636636277855
 20
73.40682424961174
 30
0.0
 10
253.0204282180958
 20
70.69352780257046
 30
0.0
 10
252.6369595472313
 20
67.98812256539537
 30
0.0
 10
252.2823495671111
 20
65.74049332977852
 30
0.0
 10
251.9760085033087
 20
63.94683303880839
 30
0.0
 10
251.734319640596
 20
62.60392833123037
 30
0.0
 10
251.4799518732586
 20
61.26351042072941
 30
0.0
 10
251.3012686903355
 20
60.37168423956776
 30
0.0
 10
251.2094352608359
 20
59.926259889596
 30
0.0
  0
CIRCLE
  5
89
330
1F
100
AcDbEntity
  8
MODELSKETCH_CONSTRUCTION
100
AcDbCircle
 10
84.9882061163172
 20
58.33499099488819
 30
0.0
 40
7.0
  0
ARC
  5
8A
330
1F
100
AcDbEntity
  8
MODELSKETCH_VISIBLE
100
AcDbCircle
 10
243.3742256120186
 20
61.5416514084183
 30
0.0
 40
8.0
100
AcDbArc
 50
270.0
 51
348.3505116070841
  0
SPLINE
  5
8B
330
1F
100
AcDbEntity
  8
MODELSKETCH_CONSTRUCTION
100
AcDbSpline
210
0.0
220
0.0
230
1.0
 70
     8
 71
     3
 72
    49
 73
    45
 74
     0
 42
0.000000001
 43
0.0000000213087162
 40
0.585571844327695
 40
0.585571844327695
 40
0.585571844327695
 40
0.585571844327695
 40
0.59102915317058
 40
0.5964864620134651
 40
0.6074010796992353
 40
0.6183156973850055
 40
0.6292303150707756
 40
0.6346876239136607
 40
0.6401449327565458
 40
0.6456022415994309
 40
0.651059550442316
 40
0.6537882048637585
 40
0.6565168592852011
 40
0.6592455137066436
 40
0.6619741681280862
 40
0.6647028225495287
 40
0.6674314769709713
 40
0.6701601313924138
 40
0.671524458603135
 40
0.6728887858138564
 40
0.6756174402352989
 40
0.6783460946567414
 40
0.681074749078184
 40
0.6838034034996265
 40
0.6851677307103479
 40
0.6865320579210691
 40
0.6892607123425116
 40
0.6919893667639542
 40
0.6947180211853967
 40
0.7001753300282818
 40
0.7029039844497244
 40
0.7056326388711669
 40
0.7083612932926094
 40
0.711089947714052
 40
0.7165472565569371
 40
0.7220045653998222
 40
0.7274618742427073
 40
0.7301905286641498
 40
0.7329191830855923
 40
0.7383764919284774
 40
0.7438338007713625
 40
0.7492911096142476
 40
0.7547484184571327
 40
0.7602057273000178
 40
0.7602057273000178
 40
0.7602057273000178
 40
0.7602057273000178
 10
152.9882061163172
 20
156.3695182889314
 30
0.0
 10
151.1326180634148
 20
156.3695182889314
 30
0.0
 10
147.4423198926121
 20
156.3869292477488
 30
0.0
 10
140.1027936001999
 20
156.408175262354
 30
0.0
 10
130.977439237876
 20
156.325199379534
 30
0.0
 10
120.0810771837358
 20
155.8768766875531
 30
0.0
 10
111.1082858449909
 20
155.0893543204718
 30
0.0
 10
104.0167013025819
 20
154.1119424523465
 30
0.0
 10
98.75475966320334
 20
153.1712821523888
 30
0.0
 10
93.55736128848918
 20
151.9765610155645
 30
0.0
 10
89.37040150074836
 20
150.7414365983377
 30
0.0
 10
86.12810542487122
 20
149.5794801355857
 30
0.0
 10
83.75292382276913
 20
148.6088838537391
 30
0.0
 10
81.4293962579452
 20
147.5298481756258
 30
0.0
 10
79.16192684380303
 20
146.3359338483758
 30
0.0
 10
76.95356277960943
 20
145.0182403990459
 30
0.0
 10
74.8408849557135
 20
143.5912276020814
 30
0.0
 10
73.1551261051176
 20
142.3038751924481
 30
0.0
 10
71.8546068253674
 20
141.2140335007122
 30
0.0
 10
70.59694153851714
 20
140.0931523765284
 30
0.0
 10
69.09992172489189
 20
138.6302880687392
 30
0.0
 10
67.42175093243284
 20
136.7759973610401
 30
0.0
 10
65.85874068489437
 20
134.821312915926
 30
0.0
 10
64.65005910636557
 20
133.1070641694535
 30
0.0
 10
63.73901300869975
 20
131.6846008774219
 30
0.0
 10
62.86315107075837
 20
130.2245826134881
 30
0.0
 10
61.84926336074603
 20
128.3557428218461
 30
0.0
 10
60.75872749407937
 20
126.0536407983793
 30
0.0
 10
59.46172411002255
 20
122.9037749009728
 30
0.0
 10
58.38903704206925
 20
119.6416089432932
 30
0.0
 10
57.51829489578942
 20
116.2659455333762
 30
0.0
 10
56.96910806509495
 20
113.7131551153579
 30
0.0
 10
56.51667050132446
 20
111.1433539333916
 30
0.0
 10
56.02812906480754
 20
107.6829396451012
 30
0.0
 10
55.6078109107279
 20
103.3080249716931
 30
0.0
 10
55.35392478811576
 20
98.0012300345749
 30
0.0
 10
55.3211345606911
 20
93.54336384253097
 30
0.0
 10
55.38984166784993
 20
89.96157204057145
 30
0.0
 10
55.51918297237831
 20
86.36766570273682
 30
0.0
 10
55.78790456846999
 20
81.88858559255415
 30
0.0
 10
56.2683066873967
 20
76.5393118891511
 30
0.0
 10
56.90126450938477
 20
71.22002141765726
 30
0.0
 10
57.68981390574117
 20
65.9397493413155
 30
0.0
 10
58.32927359580105
 20
62.45732506979259
 30
0.0
 10
58.68458191704415
 20
60.73395506290527
 30
0.0
  0
CIRCLE
  5
8C
330
1F
100
AcDbEntity
  8
MODELSKETCH_VISIBLE
100
AcDbCircle
 10
219.9882061163172
 20
148.3349909948882
 30
0.0
 40
3.250000000000003
  0
ARC
  5
8D
330
1F
100
AcDbEntity
  8
MODELSKETCH_CONSTRUCTION
100
AcDbCircle
 10
62.60218662061579
 20
61.5416514084183
 30
0.0
 40
4.0
100
AcDbArc
 50
191.6494792205024
 51
270.0
  0
CIRCLE
  5
8E
330
1F
100
AcDbEntity
  8
MODELSKETCH_CONSTRUCTION
100
AcDbCircle
 10
219.9882061163172
 20
148.3349909948882
 30
0.0
 40
7.0
  0
MTEXT
  5
8F
102
{ACAD_XDICTIONARY
360
90
102
}
330
1F
100
AcDbEntity
  8
ANNOTATION_TEXT
 62
     7
 60
     1
100
AcDbMText
 10
152.9882061163172
 20
39.42081412524644
 30
0.0
 40
3.5
 41
0.0
 71
     2
 72
     1
  1

  7
ONSHAPE-STANDARD-VIEW-LABE
1001
ACAD
1000
ACAD_MTEXT_DEFINED_HEIGHT_BEGIN
1070
    46
1040
3.5
1000
ACAD_MTEXT_DEFINED_HEIGHT_END
  0
MTEXT
  5
96
102
{ACAD_XDICTIONARY
360
1BB
102
}
330
1F
100
AcDbEntity
  8
ANNOTATION_TEXT
100
AcDbMText
 10
123.0645986892614
 20
105.2183284968813
 30
0.0
 40
3.5
 41
57.59502724795641
 71
     4
 72
     5
  1
CONNECTOR BOSS ZONE
  7
ONSHAPE-STANDARD-NOTESTYLE
1001
ONSHAPE_NOTES_REORDERING_D
1071
        0
1070
     0
1001
ACAD
1000
ACAD_MTEXT_DEFINED_HEIGHT_BEGIN
1070
    46
1040
3.547683923705722
1000
ACAD_MTEXT_DEFINED_HEIGHT_END
  0
LINE
  5
9C
330
1F
100
AcDbEntity
  8
CENTERLINES
100
AcDbLine
 10
152.9882061163172
 20
162.8695182889314
 30
0.0
 11
152.9882061163172
 21
51.0416514084182
 31
0.0
  0
MTEXT
  5
9D
102
{ACAD_XDICTIONARY
360
1BD
102
}
330
1F
100
AcDbEntity
  8
ANNOTATION_TEXT
100
AcDbMText
 10
120.4131398033198
 20
69.42363353666909
 30
0.0
 40
3.5
 41
71.36376021798367
 71
     4
 72
     5
  1
CONNECTORS EXTERNAL ZONE
  7
ONSHAPE-STANDARD-NOTESTYLE
1001
ONSHAPE_NOTES_REORDERING_D
1071
        0
1070
     0
1001
ACAD
1000
ACAD_MTEXT_DEFINED_HEIGHT_BEGIN
1070
    46
1040
3.547683923705722
1000
ACAD_MTEXT_DEFINED_HEIGHT_END
  0
MTEXT
  5
A4
102
{ACAD_REACTORS
102
}
102
{ACAD_XDICTIONARY
360
1BF
102
}
330
1F
100
AcDbEntity
  8
ANNOTATION_TEXT
100
AcDbMText
 10
58.91679106595934
 20
150.7341910634038
 30
0.0
 40
3.5
 41
42.36478201634878
 71
     6
 72
     1
  1
CLUSTER OUTLINE
  7
ONSHAPE-STANDARD-NOTESTYLE
1001
ONSHAPE_NOTES_REORDERING_D
1071
        0
1070
     0
1001
ACAD
1000
ACAD_MTEXT_DEFINED_HEIGHT_BEGIN
1070
    46
1040
3.547683923705722
1000
ACAD_MTEXT_DEFINED_HEIGHT_END
  0
SOLID
  5
A5
330
1F
100
AcDbEntity
  8
ANNOTATION_TEXT
100
AcDbTrace
 10
65.37457039605287
 20
144.0929656190212
 30
0.0
 11
66.93292048310133
 21
142.094176956529
 31
0.0
 12
64.81054975346345
 22
143.4795121495734
 32
0.0
 13
64.81054975346345
 23
143.4795121495734
 33
0.0
  0
POLYLINE
  5
A6
330
1F
100
AcDbEntity
  8
ANNOTATION_TEXT
100
AcDb2dPolyline
 66
     1
 10
0.0
 20
0.0
 30
0.0
  0
VERTEX
  5
A7
330
A6
100
AcDbEntity
  8
ANNOTATION_TEXT
100
AcDbVertex
100
AcDb2dVertex
 10
66.93292048310133
 20
142.094176956529
 30
0.0
  0
VERTEX
  5
A8
330
A6
100
AcDbEntity
  8
ANNOTATION_TEXT
100
AcDbVertex
100
AcDb2dVertex
 10
60.16679106595934
 20
148.315083433976
 30
0.0
  0
VERTEX
  5
A9
330
A6
100
AcDbEntity
  8
ANNOTATION_TEXT
100
AcDbVertex
100
AcDb2dVertex
 10
16.55200904961056
 20
148.315083433976
 30
0.0
  0
SEQEND
  5
AA
330
A6
100
AcDbEntity
  8
ANNOTATION_TEXT
  0
MTEXT
  5
AB
102
{ACAD_REACTORS
102
}
102
{ACAD_XDICTIONARY
360
1C1
102
}
330
1F
100
AcDbEntity
  8
ANNOTATION_TEXT
100
AcDbMText
 10
56.81458830046491
 20
142.9566432030636
 30
0.0
 40
3.5
 41
30.18392370572207
 71
     6
 72
     1
  1
4mm OFFSET
  7
ONSHAPE-STANDARD-NOTESTYLE
1001
ONSHAPE_NOTES_REORDERING_D
1071
        0
1070
     0
1001
ACAD
1000
ACAD_MTEXT_DEFINED_HEIGHT_BEGIN
1070
    46
1040
3.547683923705722
1000
ACAD_MTEXT_DEFINED_HEIGHT_END
  0
SOLID
  5
B2
330
1F
100
AcDbEntity
  8
ANNOTATION_TEXT
100
AcDbTrace
 10
63.27142434091332
 20
135.1585058585678
 30
0.0
 11
64.59248914403864
 21
132.9955451799944
 31
0.0
 12
62.64133248857197
 22
134.6131356154691
 32
0.0
 13
62.64133248857197
 23
134.6131356154691
 33
0.0
  0
POLYLINE
  5
B3
330
1F
100
AcDbEntity
  8
ANNOTATION_TEXT
100
AcDb2dPolyline
 66
     1
 10
0.0
 20
0.0
 30
0.0
  0
VERTEX
  5
B4
330
B3
100
AcDbEntity
  8
ANNOTATION_TEXT
100
AcDbVertex
100
AcDb2dVertex
 10
64.59248914403864
 20
132.9955451799944
 30
0.0
  0
VERTEX
  5
B5
330
B3
100
AcDbEntity
  8
ANNOTATION_TEXT
100
AcDbVertex
100
AcDb2dVertex
 10
58.06458830046491
 20
140.5375355736358
 30
0.0
  0
VERTEX
  5
B6
330
B3
100
AcDbEntity
  8
ANNOTATION_TEXT
100
AcDbVertex
100
AcDb2dVertex
 10
26.63066459474284
 20
140.5375355736358
 30
0.0
  0
SEQEND
  5
B7
330
B3
100
AcDbEntity
  8
ANNOTATION_TEXT
  0
MTEXT
  5
B8
102
{ACAD_REACTORS
102
}
102
{ACAD_XDICTIONARY
360
1C3
102
}
330
1F
100
AcDbEntity
  8
ANNOTATION_TEXT
100
AcDbMText
 10
227.6490762186379
 20
171.4290578560925
 30
0.0
 40
3.5
 41
70.59252813562502
 71
     4
 72
     1
  1
PROTECTED SPACE FOR M4 HEATSERT BOSS
  7
ONSHAPE-STANDARD-NOTESTYLE
1001
ONSHAPE_NOTES_REORDERING_D
1071
        0
1070
     0
1001
ACAD
1000
ACAD_MTEXT_DEFINED_HEIGHT_BEGIN
1070
    46
1040
9.448569482288828
1000
ACAD_MTEXT_DEFINED_HEIGHT_END
  0
SOLID
  5
BF
330
1F
100
AcDbEntity
  8
ANNOTATION_TEXT
100
AcDbTrace
 10
223.1609624626923
 20
157.2392457375668
 30
0.0
 11
221.812960835062
 21
155.0929692588676
 31
0.0
 12
222.3920078410801
 22
157.5604205098415
 32
0.0
 13
222.3920078410801
 23
157.5604205098415
 33
0.0
  0
POLYLINE
  5
C0
330
1F
100
AcDbEntity
  8
ANNOTATION_TEXT
100
AcDb2dPolyline
 66
     1
 10
0.0
 20
0.0
 30
0.0
  0
VERTEX
  5
C1
330
C0
100
AcDbEntity
  8
ANNOTATION_TEXT
100
AcDbVertex
100
AcDb2dVertex
 10
221.812960835062
 20
155.0929692588676
 30
0.0
  0
VERTEX
  5
C2
330
C0
100
AcDbEntity
  8
ANNOTATION_TEXT
100
AcDbVertex
100
AcDb2dVertex
 10
226.3990762186379
 20
166.0730178924231
 30
0.0
  0
VERTEX
  5
C3
330
C0
100
AcDbEntity
  8
ANNOTATION_TEXT
100
AcDbVertex
100
AcDb2dVertex
 10
298.2416043542629
 20
166.0730178924231
 30
0.0
  0
SEQEND
  5
C4
330
C0
100
AcDbEntity
  8
ANNOTATION_TEXT
  0
DIMENSION
  5
C5
102
{ACAD_REACTORS
102
}
102
{ACAD_XDICTIONARY
360
C6
102
}
330
1F
100
AcDbEntity
  8
ANNOTATION_TEXT
100
AcDbDimension
  2
*D1
 10
271.4931012364921
 20
85.33499099488819
 30
0.0
 11
271.4931012364921
 21
71.83499099488819
 31
0.0
 70
   160
  3
ONSHAPE-ISO-25$0
100
AcDbAlignedDimension
 13
220.9882061163172
 23
58.33499099488819
 33
0.0
 14
254.3924180968986
 24
85.33499099488819
 34
0.0
 50
90.0
100
AcDbRotatedDimension
1001
ACAD
1000
DSTYLE
1002
{
1070
   270
1070
     2
1070
   147
1040
15.875
1070
    41
1040
63.5
1070
   140
1040
88.89999999999999
1070
    47
1040
0.0
1070
    48
1040
0.0
1070
   277
1070
     2
1070
     4
1000
[]
1070
   144
1040
1.0
1070
     3
1000

1070
   288
1070
     1
1002
}
1001
ACAD_DIMASSOC_CALC_DIMLFAC
1040
-1.0
1001
ACAD_DIMASSOC_DIMLFAC
1040
-1.0
1001
ACAD_DIMASSOC_OVERRIDDEN_D
1040
0.0
  0
DIMENSION
  5
E0
102
{ACAD_REACTORS
102
}
102
{ACAD_XDICTIONARY
360
E1
102
}
330
1F
100
AcDbEntity
  8
ANNOTATION_TEXT
100
AcDbDimension
  2
*D2
 10
205.4882061163172
 20
36.5781123828516
 30
0.0
 11
152.9882061163172
 21
36.5781123828516
 31
0.0
 70
   160
  3
ONSHAPE-ISO-25$0
100
AcDbAlignedDimension
 13
100.4882061163172
 23
53.5416514084182
 33
0.0
 14
205.4882061163172
 24
53.5416514084182
 34
0.0
100
AcDbRotatedDimension
1001
ACAD
1000
DSTYLE
1002
{
1070
   270
1070
     2
1070
   147
1040
15.875
1070
    41
1040
63.5
1070
   140
1040
88.89999999999999
1070
    47
1040
0.0
1070
    48
1040
0.0
1070
   277
1070
     2
1070
     4
1000
[]
1070
   144
1040
1.0
1070
     3
1000

1070
   288
1070
     1
1002
}
1001
ACAD_DIMASSOC_CALC_DIMLFAC
1040
-1.0
1001
ACAD_DIMASSOC_DIMLFAC
1040
-1.0
1001
ACAD_DIMASSOC_OVERRIDDEN_D
1040
0.0
  0
DIMENSION
  5
FB
102
{ACAD_REACTORS
330
11B
102
}
102
{ACAD_XDICTIONARY
360
FC
102
}
330
1F
100
AcDbEntity
  8
ANNOTATION_TEXT
100
AcDbDimension
  2
*D3
 10
289.1355176779394
 20
53.5416514084182
 30
0.0
 11
289.1355176779394
 21
90.9383212016532
 31
0.0
 70
   160
  3
ONSHAPE-ISO-25$0
100
AcDbAlignedDimension
 13
205.4882061163172
 23
128.3349909948882
 33
0.0
 14
243.3742256120186
 24
53.5416514084182
 34
0.0
 50
90.0
100
AcDbRotatedDimension
1001
ACAD
1000
DSTYLE
1002
{
1070
   270
1070
     2
1070
   147
1040
15.875
1070
    41
1040
63.5
1070
   140
1040
88.89999999999999
1070
    47
1040
0.0
1070
    48
1040
0.0
1070
   277
1070
     2
1070
     4
1000
[]
1070
   144
1040
1.0
1070
     3
1000

1070
   288
1070
     1
1002
}
1001
ACAD_DIMASSOC_CALC_DIMLFAC
1040
-1.0
1001
ACAD_DIMASSOC_DIMLFAC
1040
-1.0
1001
ACAD_DIMASSOC_OVERRIDDEN_D
1040
0.0
  0
DIMENSION
  5
116
102
{ACAD_REACTORS
102
}
102
{ACAD_XDICTIONARY
360
117
102
}
330
1F
100
AcDbEntity
  8
ANNOTATION_TEXT
100
AcDbDimension
  2
*D4
 10
289.1355176779394
 20
148.3349909948882
 30
0.0
 11
289.1355176779394
 21
138.3349909948882
 31
0.0
 70
   160
  3
ONSHAPE-ISO-25$0
100
AcDbAlignedDimension
 13
205.4882061163172
 23
128.3349909948882
 33
0.0
 14
219.9882061163172
 24
148.3349909948882
 34
0.0
 50
90.0
100
AcDbRotatedDimension
1001
ACAD
1000
DSTYLE
1002
{
1070
   270
1070
     2
1070
   147
1040
15.875
1070
    41
1040
63.5
1070
   140
1040
88.89999999999999
1070
    47
1040
0.0
1070
    48
1040
0.0
1070
   277
1070
     2
1070
     4
1000
[]
1070
   144
1040
1.0
1070
     3
1000

1070
   288
1070
     1
1002
}
1001
ACAD_DIMASSOC_CALC_DIMLFAC
1040
-1.0
1001
ACAD_DIMASSOC_DIMLFAC
1040
-1.0
1001
ACAD_DIMASSOC_OVERRIDDEN_D
1040
0.0
  0
ENDSEC
  0
SECTION
  2
OBJECTS
  0
DICTIONARY
  5
C
330
0
100
AcDbDictionary
  3
ACAD_GROUP
350
D
  3
ACAD_LAYOUT
350
1A
  3
ACAD_MATERIAL
350
43
  3
ACAD_MLEADERSTYLE
350
6B
  3
ACAD_MLINESTYLE
350
17
  3
ACAD_PLOTSETTINGS
350
19
  3
ACAD_SCALELIST
350
47
  3
ACAD_VISUALSTYLE
350
2A
  3
ACDB_RECOMPOSE_DATA
350
1D0
  3
ACDBHEADERROUNDTRIPXREC
350
190
  3
ACDBVARIABLEDICTIONARY
350
6E
  3
ONSHAPE_DATA
350
131
  0
DICTIONARY
  5
1C5
330
8
100
AcDbDictionary
280
     1
  3
ACAD_XREC_ROUNDTRIP
360
1C6
  0
DICTIONARY
  5
90
330
8F
100
AcDbDictionary
280
     1
  3
ONSHAPE_VIEW_ID
360
91
  0
DICTIONARY
  5
1BB
330
96
100
AcDbDictionary
280
     1
  3
ACAD_MTEXT_RT
360
1BC
  0
DICTIONARY
  5
1BD
330
9D
100
AcDbDictionary
280
     1
  3
ACAD_MTEXT_RT
360
1BE
  0
DICTIONARY
  5
1BF
330
A4
100
AcDbDictionary
280
     1
  3
ACAD_MTEXT_RT
360
1C0
  0
DICTIONARY
  5
1C1
330
AB
100
AcDbDictionary
280
     1
  3
ACAD_MTEXT_RT
360
1C2
  0
DICTIONARY
  5
1C3
330
B8
100
AcDbDictionary
280
     1
  3
ACAD_MTEXT_RT
360
1C4
  0
DICTIONARY
  5
C6
330
C5
100
AcDbDictionary
280
     1
  3
ACAD_BREAKDATA
360
CA
  3
OS_DIM_DISPLAY_FLAG_DATA
360
C7
  0
DICTIONARY
  5
E1
330
E0
100
AcDbDictionary
280
     1
  3
ACAD_BREAKDATA
360
E5
  3
OS_DIM_DISPLAY_FLAG_DATA
360
E2
  0
DICTIONARY
  5
FC
330
FB
100
AcDbDictionary
280
     1
  3
ACAD_BREAKDATA
360
100
  3
OS_DIM_DISPLAY_FLAG_DATA
360
FD
  0
DICTIONARY
  5
117
330
116
100
AcDbDictionary
280
     1
  3
ACAD_BREAKDATA
360
11B
  3
OS_DIM_DISPLAY_FLAG_DATA
360
118
  0
DICTIONARY
  5
D
102
{ACAD_REACTORS
330
C
102
}
330
C
100
AcDbDictionary
  0
DICTIONARY
  5
1A
102
{ACAD_REACTORS
330
C
102
}
330
C
100
AcDbDictionary
  0
DICTIONARY
  5
43
102
{ACAD_REACTORS
330
C
102
}
330
C
100
AcDbDictionary
  3
BYBLOCK
350
45
  3
BYLAYER
350
44
  3
GLOBAL
350
46
  0
DICTIONARY
  5
6B
102
{ACAD_REACTORS
330
C
102
}
330
C
100
AcDbDictionary
  3
STANDARD
350
6C
  0
DICTIONARY
  5
17
102
{ACAD_REACTORS
330
C
102
}
330
C
100
AcDbDictionary
  3
STANDARD
350
18
  0
DICTIONARY
  5
19
102
{ACAD_REACTORS
330
C
102
}
330
C
100
AcDbDictionary
  0
DICTIONARY
  5
47
102
{ACAD_REACTORS
330
C
102
}
330
C
100
AcDbDictionary
  3
A0
350
48
  3
A1
350
49
  3
A2
350
4A
  3
A3
350
4B
  3
A4
350
4C
  3
A5
350
4D
  3
A6
350
4E
  3
A7
350
4F
  3
A8
350
50
  3
A9
350
51
  3
B0
350
52
  3
B1
350
53
  3
B2
350
54
  3
B3
350
55
  3
B4
350
56
  3
B5
350
57
  3
B6
350
58
  3
B7
350
59
  3
B8
350
5A
  3
B9
350
5B
  3
C0
350
5C
  3
C1
350
5D
  3
C2
350
5E
  3
C3
350
5F
  3
C4
350
60
  3
C5
350
61
  3
C6
350
62
  3
C7
350
63
  3
C8
350
64
  3
C9
350
65
  3
D0
350
66
  3
D1
350
67
  3
D2
350
68
  0
DICTIONARY
  5
2A
102
{ACAD_REACTORS
330
C
102
}
330
C
100
AcDbDictionary
  3
2DWIREFRAME
350
2F
  3
BASIC
350
32
  3
BRIGHTEN
350
36
  3
COLORCHANGE
350
3A
  3
CONCEPTUAL
350
34
  3
DIM
350
35
  3
EDGECOLOROFF
350
3D
  3
FACEPATTERN
350
39
  3
FLAT
350
2B
  3
FLATWITHEDGES
350
2C
  3
GOURAUD
350
2D
  3
GOURAUDWITHEDGES
350
2E
  3
HIDDEN
350
31
  3
JITTEROFF
350
3B
  3
LINEPATTERN
350
38
  3
OVERHANGOFF
350
3C
  3
REALISTIC
350
33
  3
SHADED
350
42
  3
SHADED_WITH_EDGES
350
41
  3
SHADES_OF_GRAY
350
3E
  3
SKETCHY
350
3F
  3
THICKEN
350
37
  3
WIREFRAME
350
30
  3
X-RAY
350
40
  0
XRECORD
  5
1D0
102
{ACAD_REACTORS
330
C
102
}
330
C
100
AcDbXrecord
 90
        1
330
96
330
A4
330
B8
330
9D
330
AB
  0
DICTIONARY
  5
190
102
{ACAD_REACTORS
330
C
102
}
330
C
100
AcDbDictionary
  3
CEPSNID
350
19A
  3
CEPSNTYPE
350
199
  3
DIMSTYLEDATA
350
1B0
  3
FINGERPRINTGUID
350
19B
  3
HYPERLINKBASE
350
193
  3
INSUNITS
350
198
  3
LAYOUTDICT
350
195
  3
LWETCUNION
350
197
  3
PLOTSETDICT
350
196
  3
PSVPSCALE
350
19D
  3
PUCSBASE
350
1A0
  3
PUCSORGBACK
350
1A6
  3
PUCSORGBOTTOM
350
1A2
  3
PUCSORGFRONT
350
1A5
  3
PUCSORGLEFT
350
1A3
  3
PUCSORGRIGHT
350
1A4
  3
PUCSORGTOP
350
1A1
  3
PUCSORTHOREF
350
19E
  3
PUCSORTHOVIEW
350
19F
  3
STYLESHEET
350
194
  3
TSTACKALIGN
350
191
  3
TSTACKSIZE
350
192
  3
UCSBASE
350
1A9
  3
UCSORGBACK
350
1AF
  3
UCSORGBOTTOM
350
1AB
  3
UCSORGFRONT
350
1AE
  3
UCSORGLEFT
350
1AC
  3
UCSORGRIGHT
350
1AD
  3
UCSORGTOP
350
1AA
  3
UCSORTHOREF
350
1A7
  3
UCSORTHOVIEW
350
1A8
  3
VERSIONGUID
350
19C
  0
DICTIONARY
  5
6E
102
{ACAD_REACTORS
330
C
102
}
330
C
100
AcDbDictionary
  3
CANNOSCALE
350
1C7
  3
CENTEREXE
350
1B7
  3
CENTERLTYPEFILE
350
1B8
  3
CMLEADERSTYLE
350
1B2
  3
CTABLESTYLE
350
1B1
  3
DIMASSOC
350
1B9
  3
HIDETEXT
350
1BA
  3
MSLTSCALE
350
1C8
  3
OLEFRAME
350
6F
  3
PSOLHEIGHT
350
1B4
  3
PSOLWIDTH
350
1B3
  0
DICTIONARY
  5
131
102
{ACAD_REACTORS
330
C
102
}
330
C
100
AcDbDictionary
280
     1
  3
DIM_UNITS
360
132
  3
ONSHAPE_ANG_TOL_PRECISION
360
135
  3
ONSHAPE_BREAK_DIMENSION_DEFAULT
360
13B
  3
ONSHAPE_DIMENSION_TEXT_HOR
360
13A
  3
ONSHAPE_FITCLASS_TOL_PRECISION
360
136
  3
ONSHAPE_JOGDIMENSION_LOCK_
360
138
  3
ONSHAPE_SHOWDIMENSIONSLINE
360
139
  3
ONSHAPE_UNDERLINEOVERRIDEN
360
137
  3
ONSHAPE_VSHARP_EXTENSION
360
134
  3
ONSHAPE_WELD_STANDARD
360
133
  0
XRECORD
  5
1C6
102
{ACAD_REACTORS
330
1C5
102
}
330
1C5
100
AcDbXrecord
102
VTR_0.000_0.000_1.000_1.000_VISUALSTYLE
340
2F
102
VTR_0.000_0.000_1.000_1.000_GRIDDISPLAY
 70
     3
102
VTR_0.000_0.000_1.000_1.000_GRIDMAJOR
 70
     5
102
VTR_0.000_0.000_1.000_1.000_DEFAULTLIGHTING
280
     1
102
VTR_0.000_0.000_1.000_1.000_DEFAULTLIGHTINGTYPE
 70
     1
102
VTR_0.000_0.000_1.000_1.000_BRIGHTNESS
141
0.0
102
VTR_0.000_0.000_1.000_1.000_CONTRAST
142
0.0
  0
XRECORD
  5
91
102
{ACAD_REACTORS
330
90
102
}
330
90
100
AcDbXrecord
330
0
  0
XRECORD
  5
1BC
102
{ACAD_REACTORS
330
1BB
102
}
330
1BB
100
AcDbXrecord
 40
13689.0
  1
{\pxqc;CONNECTOR BOSS ZONE}
  0
XRECORD
  5
1BE
102
{ACAD_REACTORS
330
1BD
102
}
330
1BD
100
AcDbXrecord
 40
21811.0
  1
{\pxqc;CONNECTORS EXTERNAL ZONE}
  0
XRECORD
  5
1C0
102
{ACAD_REACTORS
330
1BF
102
}
330
1BF
100
AcDbXrecord
 40
8943.0
  1
{\pxqr;CLUSTER OUTLINE}
  0
XRECORD
  5
1C2
102
{ACAD_REACTORS
330
1C1
102
}
330
1C1
100
AcDbXrecord
 40
4155.0
  1
{\pxqr;4mm OFFSET}
  0
XRECORD
  5
1C4
102
{ACAD_REACTORS
330
1C3
102
}
330
1C3
100
AcDbXrecord
 40
45727.0
  1
{\pxql;PROTECTED SPACE FOR M4 HEATSERT BOSS}
  0
BREAKDATA
  5
CA
102
{ACAD_REACTORS
330
C6
102
}
330
C6
100
AcDbBreakData
 70
     0
330
C5
 90
        0
  0
XRECORD
  5
C7
102
{ACAD_REACTORS
330
C6
102
}
330
C6
100
AcDbXrecord
 90
        1
 90
        0
  0
BREAKDATA
  5
E5
102
{ACAD_REACTORS
330
E1
102
}
330
E1
100
AcDbBreakData
 70
     0
330
E0
 90
        0
  0
XRECORD
  5
E2
102
{ACAD_REACTORS
330
E1
102
}
330
E1
100
AcDbXrecord
 90
        1
 90
        0
  0
BREAKDATA
  5
100
102
{ACAD_REACTORS
330
FC
102
}
330
FC
100
AcDbBreakData
 70
     0
330
FB
 90
        0
  0
XRECORD
  5
FD
102
{ACAD_REACTORS
330
FC
102
}
330
FC
100
AcDbXrecord
 90
        1
 90
        0
  0
BREAKDATA
  5
11B
102
{ACAD_REACTORS
330
117
102
}
330
117
100
AcDbBreakData
 70
     0
330
116
 90
        1
100
AcDbBreakPointRef
 71
     0
 72
     0
 91
       -1
 10
0.0
 20
0.0
 30
0.0
 11
0.0
 21
0.0
 31
0.0
331
FB
 73
     5
 92
        0
  0
XRECORD
  5
118
102
{ACAD_REACTORS
330
117
102
}
330
117
100
AcDbXrecord
 90
        1
 90
        0
  0
MATERIAL
  5
45
102
{ACAD_REACTORS
330
43
102
}
102
{ACAD_XDICTIONARY
360
1CB
102
}
330
43
100
AcDbMaterial
  1
BYBLOCK
  0
MATERIAL
  5
44
102
{ACAD_REACTORS
330
43
102
}
102
{ACAD_XDICTIONARY
360
1C9
102
}
330
43
100
AcDbMaterial
  1
BYLAYER
  0
MATERIAL
  5
46
102
{ACAD_REACTORS
330
43
102
}
102
{ACAD_XDICTIONARY
360
1CD
102
}
330
43
100
AcDbMaterial
  1
GLOBAL
  0
ACAD_PROXY_OBJECT
  5
6C
102
{ACAD_REACTORS
330
6B
102
}
330
6B
100
AcDbProxyObject
 90
      499
 91
      505
 93
      610
310
40901902A4063FBFFFFFE0000000000000020400000000000020404214DD185B99185C990000000000000104090140501A00000000000004100000000000000041025764000000000000039000
340
14
340
0
340
11
340
0
 94
        0
1001
ACAD_MLEADERVER
1070
     2
  0
MLINESTYLE
  5
18
102
{ACAD_REACTORS
330
17
102
}
330
17
100
AcDbMlineStyle
  2
Standard
 70
     0
  3

 62
   256
 51
90.0
 52
90.0
 71
     2
 49
0.5
 62
   256
  6
BYLAYER
 49
-0.5
 62
   256
  6
BYLAYER
  0
ACAD_PROXY_OBJECT
  5
48
102
{ACAD_REACTORS
330
47
102
}
330
47
100
AcDbProxyObject
 90
      499
 91
      503
 93
       41
310
903313A31580
  0
ACAD_PROXY_OBJECT
  5
49
102
{ACAD_REACTORS
330
47
102
}
330
47
100
AcDbProxyObject
 90
      499
 91
      503
 93
      105
310
903313A324000000000000004000
  0
ACAD_PROXY_OBJECT
  5
4A
102
{ACAD_REACTORS
330
47
102
}
330
47
100
AcDbProxyObject
 90
      499
 91
      503
 93
      105
310
903313A344000000000000104000
  0
ACAD_PROXY_OBJECT
  5
4B
102
{ACAD_REACTORS
330
47
102
}
330
47
100
AcDbProxyObject
 90
      499
 91
      503
 93
      105
310
903313A354000000000000144000
  0
ACAD_PROXY_OBJECT
  5
4C
102
{ACAD_REACTORS
330
47
102
}
330
47
100
AcDbProxyObject
 90
      499
 91
      503
 93
      105
310
903313A384000000000000204000
  0
ACAD_PROXY_OBJECT
  5
4D
102
{ACAD_REACTORS
330
47
102
}
330
47
100
AcDbProxyObject
 90
      499
 91
      503
 93
      113
310
904313A31304000000000000244000
  0
ACAD_PROXY_OBJECT
  5
4E
102
{ACAD_REACTORS
330
47
102
}
330
47
100
AcDbProxyObject
 90
      499
 91
      503
 93
      113
310
904313A31364000000000000304000
  0
ACAD_PROXY_OBJECT
  5
4F
102
{ACAD_REACTORS
330
47
102
}
330
47
100
AcDbProxyObject
 90
      499
 91
      503
 93
      113
310
904313A32304000000000000344000
  0
ACAD_PROXY_OBJECT
  5
50
102
{ACAD_REACTORS
330
47
102
}
330
47
100
AcDbProxyObject
 90
      499
 91
      503
 93
      113
310
904313A333040000000000003E4000
  0
ACAD_PROXY_OBJECT
  5
51
102
{ACAD_REACTORS
330
47
102
}
330
47
100
AcDbProxyObject
 90
      499
 91
      503
 93
      113
310
904313A34304000000000000444000
  0
ACAD_PROXY_OBJECT
  5
52
102
{ACAD_REACTORS
330
47
102
}
330
47
100
AcDbProxyObject
 90
      499
 91
      503
 93
      113
310
904313A35304000000000000494000
  0
ACAD_PROXY_OBJECT
  5
53
102
{ACAD_REACTORS
330
47
102
}
330
47
100
AcDbProxyObject
 90
      499
 91
      503
 93
      121
310
905313A3130304000000000000594000
  0
ACAD_PROXY_OBJECT
  5
54
102
{ACAD_REACTORS
330
47
102
}
330
47
100
AcDbProxyObject
 90
      499
 91
      503
 93
      105
310
903323A310000000000000010100
  0
ACAD_PROXY_OBJECT
  5
55
102
{ACAD_REACTORS
330
47
102
}
330
47
100
AcDbProxyObject
 90
      499
 91
      503
 93
      105
310
903343A310000000000000410100
  0
ACAD_PROXY_OBJECT
  5
56
102
{ACAD_REACTORS
330
47
102
}
330
47
100
AcDbProxyObject
 90
      499
 91
      503
 93
      105
310
903383A310000000000000810100
  0
ACAD_PROXY_OBJECT
  5
57
102
{ACAD_REACTORS
330
47
102
}
330
47
100
AcDbProxyObject
 90
      499
 91
      503
 93
      113
310
90431303A310000000000000910100
  0
ACAD_PROXY_OBJECT
  5
58
102
{ACAD_REACTORS
330
47
102
}
330
47
100
AcDbProxyObject
 90
      499
 91
      503
 93
      121
310
9053130303A310000000000001650100
  0
ACAD_PROXY_OBJECT
  5
59
102
{ACAD_REACTORS
330
47
102
}
330
47
100
AcDbProxyObject
 90
      499
 91
      503
 93
      257
310
90E312F31323822203D2031272D3022000000000000200FC000000000000284000
  0
ACAD_PROXY_OBJECT
  5
5A
102
{ACAD_REACTORS
330
47
102
}
330
47
100
AcDbProxyObject
 90
      499
 91
      503
 93
      249
310
90D312F363422203D2031272D3022000000000000240FC000000000000284000
  0
ACAD_PROXY_OBJECT
  5
5B
102
{ACAD_REACTORS
330
47
102
}
330
47
100
AcDbProxyObject
 90
      499
 91
      503
 93
      249
310
90D312F333222203D2031272D3022000000000000280FC000000000000284000
  0
ACAD_PROXY_OBJECT
  5
5C
102
{ACAD_REACTORS
330
47
102
}
330
47
100
AcDbProxyObject
 90
      499
 91
      503
 93
      249
310
90D312F313622203D2031272D30220000000000002C0FC000000000000284000
  0
ACAD_PROXY_OBJECT
  5
5D
102
{ACAD_REACTORS
330
47
102
}
330
47
100
AcDbProxyObject
 90
      499
 91
      503
 93
      249
310
90D332F333222203D2031272D30220000000000002E0FC000000000000284000
  0
ACAD_PROXY_OBJECT
  5
5E
102
{ACAD_REACTORS
330
47
102
}
330
47
100
AcDbProxyObject
 90
      499
 91
      503
 93
      241
310
90C312F3822203D2031272D3022000000000000300FC000000000000284000
  0
ACAD_PROXY_OBJECT
  5
5F
102
{ACAD_REACTORS
330
47
102
}
330
47
100
AcDbProxyObject
 90
      499
 91
      503
 93
      249
310
90D332F313622203D2031272D3022000000000000320FC000000000000284000
  0
ACAD_PROXY_OBJECT
  5
60
102
{ACAD_REACTORS
330
47
102
}
330
47
100
AcDbProxyObject
 90
      499
 91
      503
 93
      241
310
90C312F3422203D2031272D3022000000000000340FC000000000000284000
  0
ACAD_PROXY_OBJECT
  5
61
102
{ACAD_REACTORS
330
47
102
}
330
47
100
AcDbProxyObject
 90
      499
 91
      503
 93
      241
310
90C332F3822203D2031272D3022000000000000360FC000000000000284000
  0
ACAD_PROXY_OBJECT
  5
62
102
{ACAD_REACTORS
330
47
102
}
330
47
100
AcDbProxyObject
 90
      499
 91
      503
 93
      241
310
90C312F3222203D2031272D3022000000000000380FC000000000000284000
  0
ACAD_PROXY_OBJECT
  5
63
102
{ACAD_REACTORS
330
47
102
}
330
47
100
AcDbProxyObject
 90
      499
 91
      503
 93
      241
310
90C332F3422203D2031272D30220000000000003A0FC000000000000284000
  0
ACAD_PROXY_OBJECT
  5
64
102
{ACAD_REACTORS
330
47
102
}
330
47
100
AcDbProxyObject
 90
      499
 91
      503
 93
      161
310
90A3122203D2031272D30224000000000000284000
  0
ACAD_PROXY_OBJECT
  5
65
102
{ACAD_REACTORS
330
47
102
}
330
47
100
AcDbProxyObject
 90
      499
 91
      503
 93
      257
310
90E312D312F3222203D2031272D30220000000000003E0FC000000000000284000
  0
ACAD_PROXY_OBJECT
  5
66
102
{ACAD_REACTORS
330
47
102
}
330
47
100
AcDbProxyObject
 90
      499
 91
      503
 93
      225
310
90A3322203D2031272D302200000000000002100000000000000284000
  0
ACAD_PROXY_OBJECT
  5
67
102
{ACAD_REACTORS
330
47
102
}
330
47
100
AcDbProxyObject
 90
      499
 91
      503
 93
      225
310
90A3622203D2031272D302200000000000006100000000000000284000
  0
ACAD_PROXY_OBJECT
  5
68
102
{ACAD_REACTORS
330
47
102
}
330
47
100
AcDbProxyObject
 90
      499
 91
      503
 93
      249
310
90D31272D3022203D2031272D30220000000000000A100000000000000284000
  0
ACAD_PROXY_OBJECT
  5
2F
102
{ACAD_REACTORS
330
2A
102
}
330
2A
100
AcDbProxyObject
 90
      499
 91
      501
 93
      436
310
42CC9915DA5C99599C985B595049028333333333333E33F0000000000000F90107901411070040501600405405064090741402480A0340
1001
ACAD
1000
AcDbSavedByObjectVersion
1070
     0
  0
ACAD_PROXY_OBJECT
  5
32
102
{ACAD_REACTORS
330
2A
102
}
330
2A
100
AcDbProxyObject
 90
      499
 91
      501
 93
      388
310
4150985CDA58D07406404333333333333E33F0000000000000F90107A41107004050150841D405064090741402480A0350
1001
ACAD
1000
AcDbSavedByObjectVersion
1070
     0
  0
ACAD_PROXY_OBJECT
  5
36
102
{ACAD_REACTORS
330
2A
102
}
330
2A
100
AcDbProxyObject
 90
      499
 91
      501
 93
      428
310
42109C9A59DA1D195B90C409028333333333333E33F0000000000000F9010790141107004050150841D405064090741402480A029950
1001
ACAD
1000
AcDbSavedByObjectVersion
1070
     0
  0
ACAD_PROXY_OBJECT
  5
3A
102
{ACAD_REACTORS
330
2A
102
}
330
2A
100
AcDbProxyObject
 90
      499
 91
      501
 93
      452
310
42D0DBDB1BDC90DA185B99D95104090240C333333333333E33F0000000000000F90108901411070040501508421405064090741402480A0350
1001
ACAD
1000
AcDbSavedByObjectVersion
1070
     0
  0
ACAD_PROXY_OBJECT
  5
34
102
{ACAD_REACTORS
330
2A
102
}
330
2A
100
AcDbProxyObject
 90
      499
 91
      501
 93
      500
310
4290DBDB98D95C1D1D585B10940D028333333333333E33F0000000000000F90107902409070040501000000000018199010841D405064090740C02480A0340
1001
ACAD
1000
AcDbSavedByObjectVersion
1070
     0
  0
ACAD_PROXY_OBJECT
  5
35
102
{ACAD_REACTORS
330
2A
102
}
330
2A
100
AcDbProxyObject
 90
      499
 91
      501
 93
      412
310
40D11A5B50B409028333333333333E33F0000000000000F9010790141107004050150841D405064090741402480A02677FFFFFD0
1001
ACAD
1000
AcDbSavedByObjectVersion
1070
     0
  0
ACAD_PROXY_OBJECT
  5
3D
102
{ACAD_REACTORS
330
2A
102
}
330
2A
100
AcDbProxyObject
 90
      499
 91
      501
 93
      452
310
43115919D950DBDB1BDC93D999916409028333333333333E33F0000000000000F9010790141107004050150841D405064090741402480A0350
1001
ACAD
1000
AcDbSavedByObjectVersion
1070
     0
  0
ACAD_PROXY_OBJECT
  5
39
102
{ACAD_REACTORS
330
2A
102
}
330
2A
100
AcDbProxyObject
 90
      499
 91
      501
 93
      444
310
42D19858D95C185D1D195C9B90F409028333333333333E33F0000000000000F9010790141107004050150841D405064090741402480A0350
1001
ACAD
1000
AcDbSavedByObjectVersion
1070
     0
  0
ACAD_PROXY_OBJECT
  5
2B
102
{ACAD_REACTORS
330
2A
102
}
330
2A
100
AcDbProxyObject
 90
      499
 91
      501
 93
      380
310
41119B185D240901404333333333333E33F0000000000000F9010740A907004050150841D405064090741402480A1B50
1001
ACAD
1000
AcDbSavedByObjectVersion
1070
     0
  0
ACAD_PROXY_OBJECT
  5
2C
102
{ACAD_REACTORS
330
2A
102
}
330
2A
100
AcDbProxyObject
 90
      499
 91
      501
 93
      468
310
43519B185D15DA5D1A115919D95CD0140901404333333333333E33F0000000000000F90107409019070040501600405405064090741402480A1B50
1001
ACAD
1000
AcDbSavedByObjectVersion
1070
     0
  0
ACAD_PROXY_OBJECT
  5
2D
102
{ACAD_REACTORS
330
2A
102
}
330
2A
100
AcDbProxyObject
 90
      499
 91
      501
 93
      404
310
41D1DBDD5C985D5910240902404333333333333E33F0000000000000F9010740A9070040501641D405064090741402480A1B50
1001
ACAD
1000
AcDbSavedByObjectVersion
1070
     0
  0
ACAD_PROXY_OBJECT
  5
2E
102
{ACAD_REACTORS
330
2A
102
}
330
2A
100
AcDbProxyObject
 90
      499
 91
      501
 93
      492
310
4411DBDD5C985D5915DA5D1A115919D95CD0340902404333333333333E33F0000000000000F90107409019070040501600405405064090741402480A1B50
1001
ACAD
1000
AcDbSavedByObjectVersion
1070
     0
  0
ACAD_PROXY_OBJECT
  5
31
102
{ACAD_REACTORS
330
2A
102
}
330
2A
100
AcDbProxyObject
 90
      499
 91
      501
 93
      476
310
41921A5919195B90640502408333333333333E33F0000000000000F901079024090700405020000000000001110200405405064090740C02480A0340
1001
ACAD
1000
AcDbSavedByObjectVersion
1070
     0
  0
ACAD_PROXY_OBJECT
  5
3B
102
{ACAD_REACTORS
330
2A
102
}
330
2A
100
AcDbProxyObject
 90
      499
 91
      501
 93
      428
310
42529A5D1D195C93D999914409028333333333333E33F0000000000000F9010790141107004050150A41D405064090741402480A0350
1001
ACAD
1000
AcDbSavedByObjectVersion
1070
     0
  0
ACAD_PROXY_OBJECT
  5
38
102
{ACAD_REACTORS
330
2A
102
}
330
2A
100
AcDbProxyObject
 90
      499
 91
      501
 93
      444
310
42D31A5B995C185D1D195C9B90E409028333333333333E33F0000000000000F9010790141107004050750841D405064090741402483A0350
1001
ACAD
1000
AcDbSavedByObjectVersion
1070
     0
  0
ACAD_PROXY_OBJECT
  5
3C
102
{ACAD_REACTORS
330
2A
102
}
330
2A
100
AcDbProxyObject
 90
      499
 91
      501
 93
      444
310
42D3DD995C9A185B99D3D999915409028333333333333E33F0000000000000F9010790141107004050150941D405064090741402480A0350
1001
ACAD
1000
AcDbSavedByObjectVersion
1070
     0
  0
ACAD_PROXY_OBJECT
  5
33
102
{ACAD_REACTORS
330
2A
102
}
330
2A
100
AcDbProxyObject
 90
      499
 91
      501
 93
      428
310
425499585B1A5CDD1A58D08409038333333333333E33F0000000000000F9010740A907004050150800405405064090740C02480A1B40
1001
ACAD
1000
AcDbSavedByObjectVersion
1070
     0
  0
ACAD_PROXY_OBJECT
  5
42
102
{ACAD_REACTORS
330
2A
102
}
330
2A
100
AcDbProxyObject
 90
      499
 91
      501
 93
      420
310
4194DA1859195911B40902404333333333333E33F0000000000000F9010740A41107004050150800405405064090840C02480A0B40
1001
ACAD
1000
AcDbSavedByObjectVersion
1070
     0
  0
ACAD_PROXY_OBJECT
  5
41
102
{ACAD_REACTORS
330
2A
102
}
330
2A
100
AcDbProxyObject
 90
      499
 91
      501
 93
      516
310
4454DA18591959081DDA5D1A08195919D95CD1A40902404333333333333E33F0000000000000F901074090142907004050250800405405064090740C02480A0B40
1001
ACAD
1000
AcDbSavedByObjectVersion
1070
     0
  0
ACAD_PROXY_OBJECT
  5
3E
102
{ACAD_REACTORS
330
2A
102
}
330
2A
100
AcDbProxyObject
 90
      499
 91
      501
 93
      532
310
4394DA1859195CC81BD98811DC985E5174090240C333333333333E33F0000000000000F901079024090741D01000000000000111010841D405064090740C02480A0340
1001
ACAD
1000
AcDbSavedByObjectVersion
1070
     0
  0
ACAD_PROXY_OBJECT
  5
3F
102
{ACAD_REACTORS
330
2A
102
}
330
2A
100
AcDbProxyObject
 90
      499
 91
      501
 93
      476
310
41D4DAD95D18DA1E51840502408333333333333E33F0000000000000F901079024090741D01000000000000111010B41D405064090741802480A0340
1001
ACAD
1000
AcDbSavedByObjectVersion
1070
     0
  0
ACAD_PROXY_OBJECT
  5
37
102
{ACAD_REACTORS
330
2A
102
}
330
2A
100
AcDbProxyObject
 90
      499
 91
      501
 93
      412
310
41D51A1A58DAD95B90D409028333333333333E33F0000000000000F9010790141107004050150C41D405064090741402480A0350
1001
ACAD
1000
AcDbSavedByObjectVersion
1070
     0
  0
ACAD_PROXY_OBJECT
  5
30
102
{ACAD_REACTORS
330
2A
102
}
330
2A
100
AcDbProxyObject
 90
      499
 91
      501
 93
      420
310
4255DA5C99599C985B595059028333333333333E33F0000000000000F90107901411070040501600405405064090740C02480A0340
1001
ACAD
1000
AcDbSavedByObjectVersion
1070
     0
  0
ACAD_PROXY_OBJECT
  5
40
102
{ACAD_REACTORS
330
2A
102
}
330
2A
100
AcDbProxyObject
 90
      499
 91
      501
 93
      404
310
41560B54985E51940902404000000000000E03F0000000000000F9010740501907004050150841D405064090740C02480A1B40
1001
ACAD
1000
AcDbSavedByObjectVersion
1070
     0
  0
XRECORD
  5
19A
102
{ACAD_REACTORS
330
190
102
}
330
190
100
AcDbXrecord
340
0
  0
XRECORD
  5
199
102
{ACAD_REACTORS
330
190
102
}
330
190
100
AcDbXrecord
 90
        0
  0
XRECORD
  5
1B0
102
{ACAD_REACTORS
330
190
102
}
330
190
100
AcDbXrecord
1000
DSTYLE
1002
{
1070
   179
 70
     1
1070
   170
 70
     1
1070
   143
 40
0.0393700787401575
1070
   285
 70
     8
1070
   176
 70
     7
1070
   177
 70
     7
1070
   178
 70
     7
1070
   278
 70
    46
1070
   371
 70
    13
1070
   372
 70
    13
1070
    40
 40
0.0393700787401575
1070
   340
340
73
1070
   140
 40
3.5
1070
   288
 70
     1
1002
}
  0
XRECORD
  5
19B
102
{ACAD_REACTORS
330
190
102
}
330
190
100
AcDbXrecord
  1
{77383665-f436-e578-62b8-736577727764}
  0
XRECORD
  5
193
102
{ACAD_REACTORS
330
190
102
}
330
190
100
AcDbXrecord
  1

  0
XRECORD
  5
198
102
{ACAD_REACTORS
330
190
102
}
330
190
100
AcDbXrecord
 90
        4
  0
XRECORD
  5
195
102
{ACAD_REACTORS
330
190
102
}
330
190
100
AcDbXrecord
340
1A
  0
XRECORD
  5
197
102
{ACAD_REACTORS
330
190
102
}
330
190
100
AcDbXrecord
 90
    10269
  0
XRECORD
  5
196
102
{ACAD_REACTORS
330
190
102
}
330
190
100
AcDbXrecord
340
19
  0
XRECORD
  5
19D
102
{ACAD_REACTORS
330
190
102
}
330
190
100
AcDbXrecord
 40
0.0
  0
XRECORD
  5
1A0
102
{ACAD_REACTORS
330
190
102
}
330
190
100
AcDbXrecord
340
0
  0
XRECORD
  5
1A6
102
{ACAD_REACTORS
330
190
102
}
330
190
100
AcDbXrecord
 10
0.0
 20
0.0
 30
0.0
  0
XRECORD
  5
1A2
102
{ACAD_REACTORS
330
190
102
}
330
190
100
AcDbXrecord
 10
0.0
 20
0.0
 30
0.0
  0
XRECORD
  5
1A5
102
{ACAD_REACTORS
330
190
102
}
330
190
100
AcDbXrecord
 10
0.0
 20
0.0
 30
0.0
  0
XRECORD
  5
1A3
102
{ACAD_REACTORS
330
190
102
}
330
190
100
AcDbXrecord
 10
0.0
 20
0.0
 30
0.0
  0
XRECORD
  5
1A4
102
{ACAD_REACTORS
330
190
102
}
330
190
100
AcDbXrecord
 10
0.0
 20
0.0
 30
0.0
  0
XRECORD
  5
1A1
102
{ACAD_REACTORS
330
190
102
}
330
190
100
AcDbXrecord
 10
0.0
 20
0.0
 30
0.0
  0
XRECORD
  5
19E
102
{ACAD_REACTORS
330
190
102
}
330
190
100
AcDbXrecord
340
0
  0
XRECORD
  5
19F
102
{ACAD_REACTORS
330
190
102
}
330
190
100
AcDbXrecord
 70
     0
  0
XRECORD
  5
194
102
{ACAD_REACTORS
330
190
102
}
330
190
100
AcDbXrecord
  1

  0
XRECORD
  5
191
102
{ACAD_REACTORS
330
190
102
}
330
190
100
AcDbXrecord
 90
        1
  0
XRECORD
  5
192
102
{ACAD_REACTORS
330
190
102
}
330
190
100
AcDbXrecord
 90
       70
  0
XRECORD
  5
1A9
102
{ACAD_REACTORS
330
190
102
}
330
190
100
AcDbXrecord
340
0
  0
XRECORD
  5
1AF
102
{ACAD_REACTORS
330
190
102
}
330
190
100
AcDbXrecord
 10
0.0
 20
0.0
 30
0.0
  0
XRECORD
  5
1AB
102
{ACAD_REACTORS
330
190
102
}
330
190
100
AcDbXrecord
 10
0.0
 20
0.0
 30
0.0
  0
XRECORD
  5
1AE
102
{ACAD_REACTORS
330
190
102
}
330
190
100
AcDbXrecord
 10
0.0
 20
0.0
 30
0.0
  0
XRECORD
  5
1AC
102
{ACAD_REACTORS
330
190
102
}
330
190
100
AcDbXrecord
 10
0.0
 20
0.0
 30
0.0
  0
XRECORD
  5
1AD
102
{ACAD_REACTORS
330
190
102
}
330
190
100
AcDbXrecord
 10
0.0
 20
0.0
 30
0.0
  0
XRECORD
  5
1AA
102
{ACAD_REACTORS
330
190
102
}
330
190
100
AcDbXrecord
 10
0.0
 20
0.0
 30
0.0
  0
XRECORD
  5
1A7
102
{ACAD_REACTORS
330
190
102
}
330
190
100
AcDbXrecord
340
0
  0
XRECORD
  5
1A8
102
{ACAD_REACTORS
330
190
102
}
330
190
100
AcDbXrecord
 70
     0
  0
XRECORD
  5
19C
102
{ACAD_REACTORS
330
190
102
}
330
190
100
AcDbXrecord
  1
{FAEB1C32-E019-11D5-929B-00C0DF256EC4}
  0
DICTIONARYVAR
  5
1C7
102
{ACAD_REACTORS
330
6E
102
}
330
6E
100
DictionaryVariables
280
     0
  1
1:1
  0
DICTIONARYVAR
  5
1B7
102
{ACAD_REACTORS
330
6E
102
}
330
6E
100
DictionaryVariables
280
     0
  1
3.500000
  0
DICTIONARYVAR
  5
1B8
102
{ACAD_REACTORS
330
6E
102
}
330
6E
100
DictionaryVariables
280
     0
  1
MM.LIN
  0
DICTIONARYVAR
  5
1B2
102
{ACAD_REACTORS
330
6E
102
}
330
6E
100
DictionaryVariables
280
     0
  1
Standard
  0
DICTIONARYVAR
  5
1B1
102
{ACAD_REACTORS
330
6E
102
}
330
6E
100
DictionaryVariables
280
     0
  1
Onshape-Standard
  0
DICTIONARYVAR
  5
1B9
102
{ACAD_REACTORS
330
6E
102
}
330
6E
100
DictionaryVariables
280
     0
  1
2
  0
DICTIONARYVAR
  5
1BA
102
{ACAD_REACTORS
330
6E
102
}
330
6E
100
DictionaryVariables
280
     0
  1
1
  0
DICTIONARYVAR
  5
1C8
102
{ACAD_REACTORS
330
6E
102
}
330
6E
100
DictionaryVariables
280
     0
  1
1
  0
DICTIONARYVAR
  5
6F
102
{ACAD_REACTORS
330
6E
102
}
330
6E
100
DictionaryVariables
280
     0
  1
0
  0
DICTIONARYVAR
  5
1B4
102
{ACAD_REACTORS
330
6E
102
}
330
6E
100
DictionaryVariables
280
     0
  1
80.000000
  0
DICTIONARYVAR
  5
1B3
102
{ACAD_REACTORS
330
6E
102
}
330
6E
100
DictionaryVariables
280
     0
  1
5.000000
  0
XRECORD
  5
132
102
{ACAD_REACTORS
330
131
102
}
330
131
100
AcDbXrecord
 70
     4
  0
XRECORD
  5
135
102
{ACAD_REACTORS
330
131
102
}
330
131
100
AcDbXrecord
 90
        0
  0
ACAD_PROXY_OBJECT
  5
13B
102
{ACAD_REACTORS
330
131
102
}
330
131
100
AcDbProxyObject
 90
      499
 91
      510
 93
       34
310
40C8804040
  0
XRECORD
  5
13A
102
{ACAD_REACTORS
330
131
102
}
330
131
100
AcDbXrecord
 90
        5
  0
XRECORD
  5
136
102
{ACAD_REACTORS
330
131
102
}
330
131
100
AcDbXrecord
 90
        3
  0
XRECORD
  5
138
102
{ACAD_REACTORS
330
131
102
}
330
131
100
AcDbXrecord
 90
        0
  0
ACAD_PROXY_OBJECT
  5
139
102
{ACAD_REACTORS
330
131
102
}
330
131
100
AcDbProxyObject
 90
      499
 91
      510
 93
       34
310
40C8804040
  0
ACAD_PROXY_OBJECT
  5
137
102
{ACAD_REACTORS
330
131
102
}
330
131
100
AcDbProxyObject
 90
      499
 91
      510
 93
       34
310
40C8804040
  0
XRECORD
  5
134
102
{ACAD_REACTORS
330
131
102
}
330
131
100
AcDbXrecord
 90
        0
  0
XRECORD
  5
133
102
{ACAD_REACTORS
330
131
102
}
330
131
100
AcDbXrecord
 90
        1
  0
DICTIONARY
  5
1CB
330
45
100
AcDbDictionary
280
     1
  3
ACAD_XREC_ROUNDTRIP
360
1CC
  0
DICTIONARY
  5
1C9
330
44
100
AcDbDictionary
280
     1
  3
ACAD_XREC_ROUNDTRIP
360
1CA
  0
DICTIONARY
  5
1CD
330
46
100
AcDbDictionary
280
     1
  3
ACAD_XREC_ROUNDTRIP
360
1CE
  0
XRECORD
  5
1CC
102
{ACAD_REACTORS
330
1CB
102
}
330
1CB
100
AcDbXrecord
102
MATERIAL
148
0.0
149
0.0
149
0.0
 93
        0
 94
      127
282
     0
 72
     1
 77
     1
171
     1
175
     1
179
     1
273
     0
  0
XRECORD
  5
1CA
102
{ACAD_REACTORS
330
1C9
102
}
330
1C9
100
AcDbXrecord
102
MATERIAL
148
0.0
149
0.0
149
0.0
 93
        0
 94
      127
282
     0
 72
     1
 77
     1
171
     1
175
     1
179
     1
273
     0
  0
XRECORD
  5
1CE
102
{ACAD_REACTORS
330
1CD
102
}
330
1CD
100
AcDbXrecord
102
MATERIAL
148
0.0
149
0.0
149
0.0
 93
        0
 94
      127
282
     0
 72
     1
 77
     1
171
     1
175
     1
179
     1
273
     0
  0
ENDSEC
  0
EOF
