999
FreeCAD v1.0 39319 (Git)
  0
SECTION
  2
HEADER
  9
$ACADVER
  1
AC1014
  9
$ACADMAINTVER
 70
     9
  9
$DWGCODEPAGE
  3
ANSI_1252
  9
$TEXTSTYLE
  7
STANDARD
  9
$DIMSTYLE
  2
STANDARD
  9
$DIMTXSTY
  7
STANDARD
  9
$CMLSTYLE
  2
STANDARD
  9
$LUNITS
 70
2
  9
$INSUNITS
 70
4
  9
$PEXTMAX
 10
50
 20
50
 30
50
  9
$PEXTMIN
 10
0
 20
0
 30
0
  9
$HANDSEED
  5
FFFF
  0
ENDSEC
  0
SECTION
  2
CLASSES
  0
CLASS
  1
ACDBDICTIONARYWDFLT
  2
AcDbDictionaryWithDefault
  3
ObjectDBX Classes
 90
        0
280
     0
281
     0
  0
CLASS
  1
XRECORD
  2
AcDbXrecord
  3
ObjectDBX Classes
 90
        0
280
     0
281
     0
  0
CLASS
  1
LWPOLYLINE
  2
AcDbPolyline
  3
ObjectDBX Classes
 90
        0
280
     0
281
     1
  0
ENDSEC
  0
SECTION
  2
TABLES
  0
TABLE
  2
VPORT
  5
20
330
0
100
AcDbSymbolTable
 70
     1
  0
VPORT
  5
21
330
20
100
AcDbSymbolTableRecord
100
AcDbViewportTableRecord
  2
*ACTIVE
 70
     0
  0
ENDTAB
  0
TABLE
  2
LTYPE
  5
22
330
0
100
AcDbSymbolTable
 70
     1
  0
LTYPE
  5
23
330
21
100
AcDbSymbolTableRecord
100
AcDbLinetypeTableRecord
  2
BYBLOCK
 70
     0
  3

 72
    65
 73
     0
 40
0.0
  0
LTYPE
  5
24
330
21
100
AcDbSymbolTableRecord
100
AcDbLinetypeTableRecord
  2
BYLAYER
 70
     0
  3

 72
    65
 73
     0
 40
0.0
  0
LTYPE
  5
25
330
21
100
AcDbSymbolTableRecord
100
AcDbLinetypeTableRecord
  2
CONTINUOUS
 70
     0
  3
Solid line
 72
    65
 73
     0
 40
0.0
  0
ENDTAB
  0
TABLE
  2
LAYER
  5
A1B
330
0
100
AcDbSymbolTable
 70
3
  0
LAYER
  5
A1C
330
A1B
100
AcDbSymbolTableRecord
100
AcDbLayerTableRecord
  2
0
 70
   0
 62
   7
  6
CONTINUOUS
  0
LAYER
  5
A1D
330
A1B
100
AcDbSymbolTableRecord
100
AcDbLayerTableRecord
  2
none
 70
    0
 62
    7
  6
CONTINUOUS
  0
LAYER
  5
A1E
330
A1B
100
AcDbSymbolTableRecord
100
AcDbLayerTableRecord
  2
Shape2DView
 70
    0
 62
    7
  6
CONTINUOUS
  0
ENDTAB
  0
TABLE
  2
STYLE
  5
70
330
0
100
AcDbSymbolTable
 70
     2
  0
STYLE
  5
71
330
70
100
AcDbSymbolTableRecord
100
AcDbTextStyleTableRecord
  2
STANDARD
 70
     0
 40
0.0
 41
1.0
 50
0.0
 71
     0
 42
2.5
  3
arial.ttf
  4

  0
STYLE
  5
72
330
70
100
AcDbSymbolTableRecord
100
AcDbTextStyleTableRecord
  2
ANNOTATIVE
 70
     0
 40
0.0
 41
1.0
 50
0.0
 71
     0
 42
2.5
  3
arial.ttf
  4

  0
ENDTAB
  0
TABLE
  2
VIEW
  5
73
330
0
100
AcDbSymbolTable
 70
     0
  0
ENDTAB
  0
TABLE
  2
UCS
  5
74
330
0
100
AcDbSymbolTable
 70
     0
  0
ENDTAB
  0
TABLE
  2
APPID
  5
75
330
0
100
AcDbSymbolTable
 70
     2
  0
APPID
  5
76
330
75
100
AcDbSymbolTableRecord
100
AcDbRegAppTableRecord
  2
ACAD
 70
     0
  0
APPID
  5
77
330
75
100
AcDbSymbolTableRecord
100
AcDbRegAppTableRecord
  2
ACADANNOTATIVE
 70
     0
  0
ENDTAB
  0
TABLE
  2
DIMSTYLE
  5
78
330
0
100
AcDbSymbolTable
 70
     2
  0
DIMSTYLE
105
79
330
78
100
AcDbSymbolTableRecord
100
AcDbDimStyleTableRecord
  2
STANDARD
 70
     0
  3

  4

  5

  6

  7

 40
0.0
 41
2.5
 42
0.625
 43
3.75
 44
1.25
 45
0.0
 46
0.0
 47
0.0
 48
0.0
140
2.5
141
2.5
142
0.0
143
0.03937007874016
144
1.0
145
0.0
146
1.0
147
0.625
 71
     0
 72
     0
 73
     0
 74
     0
 75
     0
 76
     0
 77
     1
 78
     8
170
     0
171
     3
172
     1
173
     0
174
     0
175
     0
176
     0
177
     0
178
     0
270
     2
271
     2
272
     2
273
     2
274
     3
340
71
275
     0
280
     0
281
     0
282
     0
283
     0
284
     8
285
     0
286
     0
287
     3
288
     0
  0
ENDTAB
  0
TABLE
  2
BLOCK_RECORD
  5
A01
330
0
100
AcDbSymbolTable
  70
5
  0
BLOCK_RECORD
  5
A02
330
A01
100
AcDbSymbolTableRecord
100
AcDbBlockTableRecord
  2
*MODEL_SPACE
  0
BLOCK_RECORD
  5
A03
330
A01
100
AcDbSymbolTableRecord
100
AcDbBlockTableRecord
  2
*PAPER_SPACE
  0
ENDTAB
  0
ENDSEC
  0
SECTION
  2
BLOCKS
  0
BLOCK
  5
A04
330
A02
100
AcDbEntity
  8
0
100
AcDbBlockBegin
  2
*MODEL_SPACE
 70
   0
 10
0
 20
0
 30
0
  3
*MODEL_SPACE
  1
 
  0
ENDBLK
  5
A05
330
A02
100
AcDbEntity
  8
0
100
AcDbBlockEnd
  0
BLOCK
  5
A06
330
A03
100
AcDbEntity
 67
1
  8
0
100
AcDbBlockBegin
  2
*PAPER_SPACE
 70
   0
 10
0
 20
0
 30
0
  3
*PAPER_SPACE
  1
 
  0
ENDBLK
  5
A07
330
A03
100
AcDbEntity
 67
    1
  8
0
100
AcDbBlockEnd
  0
ENDSEC
  0
SECTION
  2
ENTITIES
  0
SPLINE
  5
A08
330
A02
100
AcDbEntity
  8
Shape2DView
100
AcDbSpline
210
0
220
0
230
1
 70
8
 71
3
 72
38
 73
34
 74
0
 40
0.000000048
 40
0.000000048
 40
0.000000048
 40
0.000000048
 40
7.805953650
 40
7.805953650
 40
7.805953650
 40
15.611907300
 40
15.611907300
 40
15.611907300
 40
22.289011133
 40
22.289011133
 40
22.289011133
 40
27.886942154
 40
27.886942154
 40
27.886942154
 40
33.484873175
 40
33.484873175
 40
33.484873175
 40
44.473351385
 40
44.473351385
 40
44.473351385
 40
48.851790549
 40
48.851790549
 40
48.851790549
 40
53.213627226
 40
53.213627226
 40
53.213627226
 40
57.588546774
 40
57.588546774
 40
57.588546774
 40
70.445749030
 40
70.445749030
 40
70.445749030
 40
84.928501683
 40
84.928501683
 40
84.928501683
 40
84.928501683
 10
-106.222362047
 20
24.506883884
 30
0.000000000
 10
-105.972375932
 20
22.267996435
 30
0.000000000
 10
-105.598027533
 20
20.080449844
 30
0.000000000
 10
-105.116717377
 20
17.962590793
 30
0.000000000
 10
-104.634756042
 20
15.842701057
 30
0.000000000
 10
-104.042534254
 20
13.767103538
 30
0.000000000
 10
-103.327838218
 20
11.699597531
 30
0.000000000
 10
-102.717342932
 20
9.934173277
 30
0.000000000
 10
-102.016840449
 20
8.179420776
 30
0.000000000
 10
-101.230956315
 20
6.456894187
 30
0.000000000
 10
-100.570741436
 20
5.011353699
 30
0.000000000
 10
-99.863540990
 20
3.611056891
 30
0.000000000
 10
-99.109354979
 20
2.256003763
 30
0.000000000
 10
-98.356421792
 20
0.900176197
 30
0.000000000
 10
-97.541118083
 20
-0.437796200
 30
0.000000000
 10
-96.663443850
 20
-1.757913428
 30
0.000000000
 10
-94.944658167
 20
-4.341244021
 30
0.000000000
 10
-93.004585047
 20
-6.806431322
 30
0.000000000
 10
-90.898120702
 20
-9.077672597
 30
0.000000000
 10
-90.056704592
 20
-9.985018850
 30
0.000000000
 10
-89.189754165
 20
-10.861574785
 30
0.000000000
 10
-88.297269422
 20
-11.707340402
 30
0.000000000
 10
-87.409239108
 20
-12.549108946
 30
0.000000000
 10
-86.492877066
 20
-13.362834579
 30
0.000000000
 10
-85.548183297
 20
-14.148517300
 30
0.000000000
 10
-84.596494935
 20
-14.939474599
 30
0.000000000
 10
-83.659542929
 20
-15.668331414
 30
0.000000000
 10
-82.659693574
 20
-16.395031935
 30
0.000000000
 10
-79.734667304
 20
-18.520392080
 30
0.000000000
 10
-76.603372433
 20
-20.358159674
 30
0.000000000
 10
-73.325595219
 20
-21.860381456
 30
0.000000000
 10
-69.635758754
 20
-23.552968215
 30
0.000000000
 10
-65.750832276
 20
-24.819254888
 30
0.000000000
 10
-61.822305905
 20
-25.604846650
 30
0.000000000
  0
SPLINE
  5
A09
330
A02
100
AcDbEntity
  8
Shape2DView
100
AcDbSpline
210
0
220
0
230
1
 70
8
 71
1
 72
4
 73
2
 74
0
 40
0.000004501
 40
0.000004501
 40
1.789727135
 40
1.789727135
 10
-106.222364122
 20
24.506886089
 30
0.000000000
 10
-107.810914043
 20
24.329515452
 30
0.000000000
  0
SPLINE
  5
A0A
330
A02
100
AcDbEntity
  8
Shape2DView
100
AcDbSpline
210
0
220
0
230
1
 70
8
 71
3
 72
17
 73
13
 74
0
 40
0.000000000
 40
0.000000000
 40
0.000000000
 40
0.000000000
 40
10.877162486
 40
10.877162486
 40
10.877162486
 40
22.000836139
 40
22.000836139
 40
22.000836139
 40
45.000093201
 40
45.000093201
 40
45.000093201
 40
72.697938015
 40
72.697938015
 40
72.697938015
 40
72.697938015
 10
-62.113655110
 20
-27.083877578
 30
0.000000000
 10
-65.731323198
 20
-26.366843261
 30
0.000000000
 10
-69.281435836
 20
-25.264808257
 30
0.000000000
 10
-72.674739930
 20
-23.821214388
 30
0.000000000
 10
-76.145983894
 20
-22.345296483
 30
0.000000000
 10
-79.455466177
 20
-20.513122827
 30
0.000000000
 10
-82.544199080
 20
-18.380330883
 30
0.000000000
 10
-88.934348707
 20
-13.970762227
 30
0.000000000
 10
-94.372050252
 20
-8.276953581
 30
0.000000000
 10
-98.542570149
 20
-1.786611254
 30
0.000000000
 10
-103.569760468
 20
6.030659651
 30
0.000000000
 10
-106.772802153
 20
14.995519191
 30
0.000000000
 10
-107.810904059
 20
24.329516009
 30
0.000000000
  0
SPLINE
  5
A0B
330
A02
100
AcDbEntity
  8
Shape2DView
100
AcDbSpline
210
0
220
0
230
1
 70
8
 71
1
 72
4
 73
2
 74
0
 40
0.000000007
 40
0.000000007
 40
1.604065764
 40
1.604065764
 10
-61.822305904
 20
-25.604846650
 30
0.000000000
 10
-62.113655110
 20
-27.083877578
 30
0.000000000
  0
SPLINE
  5
A0C
330
A02
100
AcDbEntity
  8
Shape2DView
100
AcDbSpline
210
0
220
0
230
1
 70
8
 71
3
 72
23
 73
19
 74
0
 40
0.000000000
 40
0.000000000
 40
0.000000000
 40
0.000000000
 40
14.280793003
 40
14.280793003
 40
14.280793003
 40
23.609530323
 40
23.609530323
 40
23.609530323
 40
28.327187238
 40
28.327187238
 40
28.327187238
 40
43.085258854
 40
43.085258854
 40
43.085258854
 40
65.546621539
 40
65.546621539
 40
65.546621539
 40
88.007983440
 40
88.007983440
 40
88.007983440
 40
88.007983440
 10
-61.822305906
 20
-25.604846560
 30
0.000000000
 10
-58.487542234
 20
-26.273676300
 30
0.000000000
 10
-55.149182703
 20
-26.852979935
 30
0.000000000
 10
-51.807227313
 20
-27.342757467
 30
0.000000000
 10
-49.625729050
 20
-27.661926019
 30
0.000000000
 10
-47.439372826
 20
-27.941560343
 30
0.000000000
 10
-45.248158641
 20
-28.181660436
 30
0.000000000
 10
-44.135220019
 20
-28.303518516
 30
0.000000000
 10
-43.072292389
 20
-28.410183708
 30
0.000000000
 10
-41.961982641
 20
-28.511772034
 30
0.000000000
 10
-38.504729639
 20
-28.828452879
 30
0.000000000
 10
-35.054498738
 20
-29.043786103
 30
0.000000000
 10
-31.594837719
 20
-29.187583662
 30
0.000000000
 10
-26.328815753
 20
-29.406373337
 30
0.000000000
 10
-21.062917085
 20
-29.467203965
 30
0.000000000
 10
-15.796884599
 20
-29.480336002
 30
0.000000000
 10
-10.530499481
 20
-29.490842559
 30
0.000000000
 10
-5.264829911
 20
-29.457983095
 30
0.000000000
 10
-0.000000001
 20
-29.418012996
 30
0.000000000
  0
SPLINE
  5
A0D
330
A02
100
AcDbEntity
  8
Shape2DView
100
AcDbSpline
210
0
220
0
230
1
 70
8
 71
3
 72
17
 73
13
 74
0
 40
0.000000004
 40
0.000000004
 40
0.000000004
 40
0.000000004
 40
18.666349799
 40
18.666349799
 40
18.666349799
 40
31.132277548
 40
31.132277548
 40
31.132277548
 40
46.674968604
 40
46.674968604
 40
46.674968604
 40
62.217659661
 40
62.217659661
 40
62.217659661
 40
62.217659661
 10
-62.113655101
 20
-27.083877526
 30
0.000000000
 10
-55.936531197
 20
-28.321550310
 30
0.000000000
 10
-49.717589848
 20
-29.265721806
 30
0.000000000
 10
-43.486364669
 20
-29.879792099
 30
0.000000000
 10
-39.320487263
 20
-30.292698324
 30
0.000000000
 10
-35.191546161
 20
-30.554525285
 30
0.000000000
 10
-31.027894715
 20
-30.716770357
 30
0.000000000
 10
-25.842144881
 20
-30.919090201
 30
0.000000000
 10
-20.663863665
 20
-30.973468207
 30
0.000000000
 10
-15.493211141
 20
-30.983663690
 30
0.000000000
 10
-10.322239396
 20
-30.991356034
 30
0.000000000
 10
-5.160761715
 20
-30.958826126
 30
0.000000000
 10
-0.000000001
 20
-30.919745381
 30
0.000000000
  0
SPLINE
  5
A0E
330
A02
100
AcDbEntity
  8
Shape2DView
100
AcDbSpline
210
0
220
0
230
1
 70
8
 71
1
 72
4
 73
2
 74
0
 40
0.000000000
 40
0.000000000
 40
2.263021162
 40
2.263021162
 10
-0.000000001
 20
-30.919745381
 30
0.000000000
 10
-0.000000001
 20
-29.418012995
 30
0.000000000
  0
SPLINE
  5
A0F
330
A02
100
AcDbEntity
  8
Shape2DView
100
AcDbSpline
210
0
220
0
230
1
 70
8
 71
3
 72
23
 73
19
 74
0
 40
0.000000000
 40
0.000000000
 40
0.000000000
 40
0.000000000
 40
14.280793006
 40
14.280793006
 40
14.280793006
 40
23.609530317
 40
23.609530317
 40
23.609530317
 40
28.327187159
 40
28.327187159
 40
28.327187159
 40
43.085258774
 40
43.085258774
 40
43.085258774
 40
65.546621461
 40
65.546621461
 40
65.546621461
 40
88.007983366
 40
88.007983366
 40
88.007983366
 40
88.007983366
 10
61.822305904
 20
-25.604846560
 30
0.000000000
 10
58.487542231
 20
-26.273676300
 30
0.000000000
 10
55.149182700
 20
-26.852979935
 30
0.000000000
 10
51.807227310
 20
-27.342757467
 30
0.000000000
 10
49.625729049
 20
-27.661926019
 30
0.000000000
 10
47.439372827
 20
-27.941560342
 30
0.000000000
 10
45.248158644
 20
-28.181660436
 30
0.000000000
 10
44.135220047
 20
-28.303518512
 30
0.000000000
 10
43.072292365
 20
-28.410183711
 30
0.000000000
 10
41.961982642
 20
-28.511772034
 30
0.000000000
 10
38.504729640
 20
-28.828452879
 30
0.000000000
 10
35.054498740
 20
-29.043786102
 30
0.000000000
 10
31.594837721
 20
-29.187583662
 30
0.000000000
 10
26.328815755
 20
-29.406373337
 30
0.000000000
 10
21.062917087
 20
-29.467203965
 30
0.000000000
 10
15.796884599
 20
-29.480336002
 30
0.000000000
 10
10.530499481
 20
-29.490842559
 30
0.000000000
 10
5.264829909
 20
-29.457983095
 30
0.000000000
 10
-0.000000001
 20
-29.418012996
 30
0.000000000
  0
SPLINE
  5
A10
330
A02
100
AcDbEntity
  8
Shape2DView
100
AcDbSpline
210
0
220
0
230
1
 70
8
 71
1
 72
4
 73
2
 74
0
 40
-1.600000000
 40
-1.600000000
 40
0.000216532
 40
0.000216532
 10
62.113655103
 20
-27.083877525
 30
0.000000000
 10
61.822305904
 20
-25.604846560
 30
0.000000000
  0
SPLINE
  5
A11
330
A02
100
AcDbEntity
  8
Shape2DView
100
AcDbSpline
210
0
220
0
230
1
 70
8
 71
3
 72
17
 73
13
 74
0
 40
0.000000004
 40
0.000000004
 40
0.000000004
 40
0.000000004
 40
18.666349799
 40
18.666349799
 40
18.666349799
 40
31.132277548
 40
31.132277548
 40
31.132277548
 40
46.674968604
 40
46.674968604
 40
46.674968604
 40
62.217659661
 40
62.217659661
 40
62.217659661
 40
62.217659661
 10
62.113655099
 20
-27.083877526
 30
0.000000000
 10
55.936531195
 20
-28.321550310
 30
0.000000000
 10
49.717589847
 20
-29.265721806
 30
0.000000000
 10
43.486364667
 20
-29.879792099
 30
0.000000000
 10
39.320487262
 20
-30.292698324
 30
0.000000000
 10
35.191546159
 20
-30.554525285
 30
0.000000000
 10
31.027894713
 20
-30.716770357
 30
0.000000000
 10
25.842144879
 20
-30.919090201
 30
0.000000000
 10
20.663863663
 20
-30.973468207
 30
0.000000000
 10
15.493211139
 20
-30.983663690
 30
0.000000000
 10
10.322239394
 20
-30.991356034
 30
0.000000000
 10
5.160761714
 20
-30.958826126
 30
0.000000000
 10
-0.000000001
 20
-30.919745381
 30
0.000000000
  0
SPLINE
  5
A12
330
A02
100
AcDbEntity
  8
Shape2DView
100
AcDbSpline
210
0
220
0
230
1
 70
8
 71
3
 72
38
 73
34
 74
0
 40
0.000000048
 40
0.000000048
 40
0.000000048
 40
0.000000048
 40
7.805953669
 40
7.805953669
 40
7.805953669
 40
15.611907338
 40
15.611907338
 40
15.611907338
 40
22.289011171
 40
22.289011171
 40
22.289011171
 40
27.886942167
 40
27.886942167
 40
27.886942167
 40
33.484873162
 40
33.484873162
 40
33.484873162
 40
44.473351363
 40
44.473351363
 40
44.473351363
 40
48.851790526
 40
48.851790526
 40
48.851790526
 40
53.213627203
 40
53.213627203
 40
53.213627203
 40
57.588546758
 40
57.588546758
 40
57.588546758
 40
70.445749015
 40
70.445749015
 40
70.445749015
 40
84.928501669
 40
84.928501669
 40
84.928501669
 40
84.928501669
 10
106.222362045
 20
24.506883884
 30
0.000000000
 10
105.972375930
 20
22.267996428
 30
0.000000000
 10
105.598027530
 20
20.080449839
 30
0.000000000
 10
105.116717375
 20
17.962590794
 30
0.000000000
 10
104.634756042
 20
15.842701063
 30
0.000000000
 10
104.042534254
 20
13.767103546
 30
0.000000000
 10
103.327838216
 20
11.699597533
 30
0.000000000
 10
102.717342931
 20
9.934173279
 30
0.000000000
 10
102.016840448
 20
8.179420778
 30
0.000000000
 10
101.230956314
 20
6.456894189
 30
0.000000000
 10
100.570741439
 20
5.011353708
 30
0.000000000
 10
99.863540993
 20
3.611056900
 30
0.000000000
 10
99.109354978
 20
2.256003765
 30
0.000000000
 10
98.356421787
 20
0.900176191
 30
0.000000000
 10
97.541118077
 20
-0.437796206
 30
0.000000000
 10
96.663443848
 20
-1.757913427
 30
0.000000000
 10
94.944658169
 20
-4.341244017
 30
0.000000000
 10
93.004585045
 20
-6.806431323
 30
0.000000000
 10
90.898120702
 20
-9.077672595
 30
0.000000000
 10
90.056704592
 20
-9.985018848
 30
0.000000000
 10
89.189754165
 20
-10.861574783
 30
0.000000000
 10
88.297269422
 20
-11.707340400
 30
0.000000000
 10
87.409239108
 20
-12.549108945
 30
0.000000000
 10
86.492877066
 20
-13.362834577
 30
0.000000000
 10
85.548183297
 20
-14.148517298
 30
0.000000000
 10
84.596494933
 20
-14.939474599
 30
0.000000000
 10
83.659542932
 20
-15.668331411
 30
0.000000000
 10
82.659693574
 20
-16.395031933
 30
0.000000000
 10
79.734667304
 20
-18.520392079
 30
0.000000000
 10
76.603372434
 20
-20.358159672
 30
0.000000000
 10
73.325595219
 20
-21.860381455
 30
0.000000000
 10
69.635758754
 20
-23.552968215
 30
0.000000000
 10
65.750832274
 20
-24.819254888
 30
0.000000000
 10
61.822305903
 20
-25.604846650
 30
0.000000000
  0
SPLINE
  5
A13
330
A02
100
AcDbEntity
  8
Shape2DView
100
AcDbSpline
210
0
220
0
230
1
 70
8
 71
1
 72
4
 73
2
 74
0
 40
0.000002652
 40
0.000002652
 40
1.604065764
 40
1.604065764
 10
106.222367285
 20
24.506883299
 30
0.000000000
 10
107.810908120
 20
24.329552523
 30
0.000000000
  0
SPLINE
  5
A14
330
A02
100
AcDbEntity
  8
Shape2DView
100
AcDbSpline
210
0
220
0
230
1
 70
8
 71
3
 72
17
 73
13
 74
0
 40
0.000000000
 40
0.000000000
 40
0.000000000
 40
0.000000000
 40
10.877162486
 40
10.877162486
 40
10.877162486
 40
22.000836139
 40
22.000836139
 40
22.000836139
 40
45.000093201
 40
45.000093201
 40
45.000093201
 40
72.697938015
 40
72.697938015
 40
72.697938015
 40
72.697938015
 10
62.113655108
 20
-27.083877578
 30
0.000000000
 10
65.731323197
 20
-26.366843261
 30
0.000000000
 10
69.281435834
 20
-25.264808257
 30
0.000000000
 10
72.674739928
 20
-23.821214388
 30
0.000000000
 10
76.145983892
 20
-22.345296483
 30
0.000000000
 10
79.455466175
 20
-20.513122827
 30
0.000000000
 10
82.544199078
 20
-18.380330883
 30
0.000000000
 10
88.934348706
 20
-13.970762227
 30
0.000000000
 10
94.372050250
 20
-8.276953581
 30
0.000000000
 10
98.542570148
 20
-1.786611254
 30
0.000000000
 10
103.569760467
 20
6.030659651
 30
0.000000000
 10
106.772802150
 20
14.995519191
 30
0.000000000
 10
107.810904057
 20
24.329516009
 30
0.000000000
  0
SPLINE
  5
A15
330
A02
100
AcDbEntity
  8
Shape2DView
100
AcDbSpline
210
0
220
0
230
1
 70
8
 71
3
 72
80
 73
76
 74
0
 40
0.000000000
 40
0.000000000
 40
0.000000000
 40
0.000000000
 40
1.782697285
 40
1.782697285
 40
1.782697285
 40
3.565394569
 40
3.565394569
 40
3.565394569
 40
5.346615901
 40
5.346615901
 40
5.346615901
 40
7.124738567
 40
7.124738567
 40
7.124738567
 40
8.014229553
 40
8.014229553
 40
8.014229553
 40
14.240555087
 40
14.240555087
 40
14.240555087
 40
15.240566038
 40
15.240566038
 40
15.240566038
 40
16.240576988
 40
16.240576988
 40
16.240576988
 40
17.240587938
 40
17.240587938
 40
17.240587938
 40
18.240598888
 40
18.240598888
 40
18.240598888
 40
26.909699608
 40
26.909699608
 40
26.909699608
 40
29.370714539
 40
29.370714539
 40
29.370714539
 40
31.831729470
 40
31.831729470
 40
31.831729470
 40
32.911862721
 40
32.911862721
 40
32.911862721
 40
34.936608594
 40
34.936608594
 40
34.936608594
 40
36.448808813
 40
36.448808813
 40
36.448808813
 40
47.888268971
 40
47.888268971
 40
47.888268971
 40
52.357590485
 40
52.357590485
 40
52.357590485
 40
56.976395018
 40
56.976395018
 40
56.976395018
 40
58.154437341
 40
58.154437341
 40
58.154437341
 40
60.103799073
 40
60.103799073
 40
60.103799073
 40
62.053160805
 40
62.053160805
 40
62.053160805
 40
64.002522537
 40
64.002522537
 40
64.002522537
 40
65.951884269
 40
65.951884269
 40
65.951884269
 40
82.771123359
 40
82.771123359
 40
82.771123359
 40
82.771123359
 10
102.304217020
 20
84.031828417
 30
0.000000000
 10
102.371282931
 20
83.603970143
 30
0.000000000
 10
102.440781836
 20
83.159955905
 30
0.000000000
 10
102.516604568
 20
82.674687054
 30
0.000000000
 10
102.592113729
 20
82.191425203
 30
0.000000000
 10
102.671958726
 20
81.679558504
 30
0.000000000
 10
102.751250406
 20
81.170184294
 30
0.000000000
 10
102.830571873
 20
80.660637778
 30
0.000000000
 10
102.910196919
 20
80.148124614
 30
0.000000000
 10
102.986636985
 20
79.655157382
 30
0.000000000
 10
103.063013910
 20
79.162606135
 30
0.000000000
 10
103.136182176
 20
78.689764815
 30
0.000000000
 10
103.202976112
 20
78.257391453
 30
0.000000000
 10
103.236396948
 20
78.041051685
 30
0.000000000
 10
103.269609911
 20
77.825867284
 30
0.000000000
 10
103.302615002
 20
77.611838252
 30
0.000000000
 10
103.534527257
 20
76.108004103
 30
0.000000000
 10
103.762317800
 20
74.621323030
 30
0.000000000
 10
103.985986631
 20
73.151795032
 30
0.000000000
 10
104.021566373
 20
72.918043679
 30
0.000000000
 10
104.058574308
 20
72.674583467
 30
0.000000000
 10
104.097010435
 20
72.421414395
 30
0.000000000
 10
104.135931792
 20
72.165041104
 30
0.000000000
 10
104.175919532
 20
71.901318274
 30
0.000000000
 10
104.216973654
 20
71.630245904
 30
0.000000000
 10
104.258027636
 20
71.359174347
 30
0.000000000
 10
104.297934031
 20
71.095343757
 30
0.000000000
 10
104.336692840
 20
70.838754135
 30
0.000000000
 10
104.374966140
 20
70.585370357
 30
0.000000000
 10
104.411732183
 20
70.341574452
 30
0.000000000
 10
104.446990970
 20
70.107366418
 30
0.000000000
 10
104.754964006
 20
68.057970972
 30
0.000000000
 10
105.069635510
 20
65.955998031
 30
0.000000000
 10
105.361089796
 20
63.866198913
 30
0.000000000
 10
105.443076521
 20
63.277418811
 30
0.000000000
 10
105.526501371
 20
62.661292891
 30
0.000000000
 10
105.608823308
 20
62.028551510
 30
0.000000000
 10
105.691177166
 20
61.395880251
 30
0.000000000
 10
105.768064647
 20
60.779793942
 30
0.000000000
 10
105.837838533
 20
60.192986342
 30
0.000000000
 10
105.869407447
 20
59.927586294
 30
0.000000000
 10
105.894087888
 20
59.716391885
 30
0.000000000
 10
105.925612055
 20
59.441230236
 30
0.000000000
 10
105.982758411
 20
58.942668942
 30
0.000000000
 10
106.045517649
 20
58.370776023
 30
0.000000000
 10
106.097989896
 20
57.870128574
 30
0.000000000
 10
106.137709242
 20
57.491562673
 30
0.000000000
 10
106.173756605
 20
57.136208158
 30
0.000000000
 10
106.208980610
 20
56.777973264
 30
0.000000000
 10
106.475171593
 20
54.069700811
 30
0.000000000
 10
106.671039375
 20
51.399554706
 30
0.000000000
 10
106.803128751
 20
48.713272986
 30
0.000000000
 10
106.854699780
 20
47.664410095
 30
0.000000000
 10
106.895958286
 20
46.621389839
 30
0.000000000
 10
106.927272856
 20
45.600512621
 30
0.000000000
 10
106.959675035
 20
44.543545000
 30
0.000000000
 10
106.982142157
 20
43.501802250
 30
0.000000000
 10
106.995534686
 20
42.426271112
 30
0.000000000
 10
106.998289028
 20
42.153140047
 30
0.000000000
 10
107.001043370
 20
41.880008981
 30
0.000000000
 10
107.003797711
 20
41.606877915
 30
0.000000000
 10
107.007343881
 20
41.158357655
 30
0.000000000
 10
107.009020815
 20
40.698385851
 30
0.000000000
 10
107.008828516
 20
40.226962505
 30
0.000000000
 10
107.008598695
 20
39.751660776
 30
0.000000000
 10
107.006477450
 20
39.267892640
 30
0.000000000
 10
107.002464783
 20
38.775658099
 30
0.000000000
 10
106.998446958
 20
38.283415010
 30
0.000000000
 10
106.992678477
 20
37.800531662
 30
0.000000000
 10
106.985159341
 20
37.327008055
 30
0.000000000
 10
106.977667412
 20
36.857345736
 30
0.000000000
 10
106.968481407
 20
36.400158846
 30
0.000000000
 10
106.957601328
 20
35.955447385
 30
0.000000000
 10
106.862767583
 20
32.093609071
 30
0.000000000
 10
106.641651299
 20
28.266668953
 30
0.000000000
 10
106.222367285
 20
24.506883299
 30
0.000000000
  0
SPLINE
  5
A16
330
A02
100
AcDbEntity
  8
Shape2DView
100
AcDbSpline
210
0
220
0
230
1
 70
8
 71
1
 72
4
 73
2
 74
0
 40
0.000090373
 40
0.000090373
 40
1.606176104
 40
1.606176104
 10
102.304306049
 20
84.031842450
 30
0.000000000
 10
103.884559734
 20
84.279496338
 30
0.000000000
  0
SPLINE
  5
A17
330
A02
100
AcDbEntity
  8
Shape2DView
100
AcDbSpline
210
0
220
0
230
1
 70
8
 71
3
 72
44
 73
40
 74
0
 40
0.000000000
 40
0.000000000
 40
0.000000000
 40
0.000000000
 40
11.920929132
 40
11.920929132
 40
11.920929132
 40
23.855347160
 40
23.855347160
 40
23.855347160
 40
29.874811210
 40
29.874811210
 40
29.874811210
 40
33.730393308
 40
33.730393308
 40
33.730393308
 40
35.894275259
 40
35.894275259
 40
35.894275259
 40
38.883180534
 40
38.883180534
 40
38.883180534
 40
41.862557438
 40
41.862557438
 40
41.862557438
 40
44.932125533
 40
44.932125533
 40
44.932125533
 40
48.001693628
 40
48.001693628
 40
48.001693628
 40
52.041245195
 40
52.041245195
 40
52.041245195
 40
54.140829818
 40
54.140829818
 40
54.140829818
 40
57.036784178
 40
57.036784178
 40
57.036784178
 40
60.099253920
 40
60.099253920
 40
60.099253920
 40
60.099253920
 10
107.810914041
 20
24.329515452
 30
0.000000000
 10
108.246955633
 20
28.242499604
 30
0.000000000
 10
108.461998215
 20
32.178415445
 30
0.000000000
 10
108.548011826
 20
36.137392630
 30
0.000000000
 10
108.631634459
 20
40.105621733
 30
0.000000000
 10
108.588521663
 20
44.062943644
 30
0.000000000
 10
108.410038990
 20
48.054929335
 30
0.000000000
 10
108.319587373
 20
50.071075927
 30
0.000000000
 10
108.194130159
 20
52.077553000
 30
0.000000000
 10
108.033667349
 20
54.074360553
 30
0.000000000
 10
107.930801743
 20
55.353787794
 30
0.000000000
 10
107.813918550
 20
56.628972945
 30
0.000000000
 10
107.680692040
 20
57.919942549
 30
0.000000000
 10
107.606007254
 20
58.644197459
 30
0.000000000
 10
107.525946244
 20
59.374212727
 30
0.000000000
 10
107.440509008
 20
60.109988352
 30
0.000000000
 10
107.321870330
 20
61.131225644
 30
0.000000000
 10
107.193343813
 20
62.156729980
 30
0.000000000
 10
107.057028375
 20
63.171490817
 30
0.000000000
 10
106.920293037
 20
64.184385275
 30
0.000000000
 10
106.778156622
 20
65.195587141
 30
0.000000000
 10
106.630619129
 20
66.205096413
 30
0.000000000
 10
106.479107803
 20
67.246579022
 30
0.000000000
 10
106.325179189
 20
68.279981618
 30
0.000000000
 10
106.174345787
 20
69.285282753
 30
0.000000000
 10
106.023224006
 20
70.292113629
 30
0.000000000
 10
105.874675649
 20
71.273941410
 30
0.000000000
 10
105.726138620
 20
72.253577398
 30
0.000000000
 10
105.530737572
 20
73.542127375
 30
0.000000000
 10
105.333852557
 20
74.835223844
 30
0.000000000
 10
105.129555395
 20
76.173893599
 30
0.000000000
 10
105.023278198
 20
76.870175600
 30
0.000000000
 10
104.915972942
 20
77.572364924
 30
0.000000000
 10
104.807639628
 20
78.280461571
 30
0.000000000
 10
104.659402713
 20
79.249646690
 30
0.000000000
 10
104.510192606
 20
80.221020280
 30
0.000000000
 10
104.360009309
 20
81.194582340
 30
0.000000000
 10
104.201329315
 20
82.223959495
 30
0.000000000
 10
104.041599955
 20
83.256729985
 30
0.000000000
 10
103.884560339
 20
84.279502093
 30
0.000000000
  0
SPLINE
  5
A18
330
A02
100
AcDbEntity
  8
Shape2DView
100
AcDbSpline
210
0
220
0
230
1
 70
8
 71
3
 72
80
 73
76
 74
0
 40
0.000000000
 40
0.000000000
 40
0.000000000
 40
0.000000000
 40
1.782694819
 40
1.782694819
 40
1.782694819
 40
3.565389637
 40
3.565389637
 40
3.565389637
 40
5.346608475
 40
5.346608475
 40
5.346608475
 40
7.124728594
 40
7.124728594
 40
7.124728594
 40
8.014218342
 40
8.014218342
 40
8.014218342
 40
14.240535216
 40
14.240535216
 40
14.240535216
 40
15.240546666
 40
15.240546666
 40
15.240546666
 40
16.240558116
 40
16.240558116
 40
16.240558116
 40
17.240569566
 40
17.240569566
 40
17.240569566
 40
18.240581016
 40
18.240581016
 40
18.240581016
 40
26.909681106
 40
26.909681106
 40
26.909681106
 40
29.370694964
 40
29.370694964
 40
29.370694964
 40
31.831708823
 40
31.831708823
 40
31.831708823
 40
32.911844034
 40
32.911844034
 40
32.911844034
 40
34.936589979
 40
34.936589979
 40
34.936589979
 40
36.448791394
 40
36.448791394
 40
36.448791394
 40
47.888253567
 40
47.888253567
 40
47.888253567
 40
52.357575119
 40
52.357575119
 40
52.357575119
 40
56.976379522
 40
56.976379522
 40
56.976379522
 40
58.154421848
 40
58.154421848
 40
58.154421848
 40
60.103784189
 40
60.103784189
 40
60.103784189
 40
62.053146530
 40
62.053146530
 40
62.053146530
 40
64.002508870
 40
64.002508870
 40
64.002508870
 40
65.951871211
 40
65.951871211
 40
65.951871211
 40
82.771119758
 40
82.771119758
 40
82.771119758
 40
82.771119758
 10
-102.304217022
 20
84.031828417
 30
0.000000000
 10
-102.371282842
 20
83.603970728
 30
0.000000000
 10
-102.440781644
 20
83.159957140
 30
0.000000000
 10
-102.516604259
 20
82.674689047
 30
0.000000000
 10
-102.592113303
 20
82.191427948
 30
0.000000000
 10
-102.671958176
 20
81.679562045
 30
0.000000000
 10
-102.751249746
 20
81.170188549
 30
0.000000000
 10
-102.830571100
 20
80.660642757
 30
0.000000000
 10
-102.910196041
 20
80.148130280
 30
0.000000000
 10
-102.986636028
 20
79.655163570
 30
0.000000000
 10
-103.063012865
 20
79.162612895
 30
0.000000000
 10
-103.136181100
 20
78.689771784
 30
0.000000000
 10
-103.202974985
 20
78.257398760
 30
0.000000000
 10
-103.236395790
 20
78.041059193
 30
0.000000000
 10
-103.269608713
 20
77.825875059
 30
0.000000000
 10
-103.302613755
 20
77.611846355
 30
0.000000000
 10
-103.534525702
 20
76.108014230
 30
0.000000000
 10
-103.762315947
 20
74.621335149
 30
0.000000000
 10
-103.985984489
 20
73.151809112
 30
0.000000000
 10
-104.021564253
 20
72.918057626
 30
0.000000000
 10
-104.058572205
 20
72.674597311
 30
0.000000000
 10
-104.097008346
 20
72.421428169
 30
0.000000000
 10
-104.135929714
 20
72.165054816
 30
0.000000000
 10
-104.175917461
 20
71.901331947
 30
0.000000000
 10
-104.216971587
 20
71.630259562
 30
0.000000000
 10
-104.258025573
 20
71.359187990
 30
0.000000000
 10
-104.297931976
 20
71.095357367
 30
0.000000000
 10
-104.336690795
 20
70.838767692
 30
0.000000000
 10
-104.374964105
 20
70.585383852
 30
0.000000000
 10
-104.411730164
 20
70.341587859
 30
0.000000000
 10
-104.446988971
 20
70.107379711
 30
0.000000000
 10
-104.754961984
 20
68.057984544
 30
0.000000000
 10
-105.069633469
 20
65.956011917
 30
0.000000000
 10
-105.361087852
 20
63.866212899
 30
0.000000000
 10
-105.443074542
 20
63.277433286
 30
0.000000000
 10
-105.526499558
 20
62.661306412
 30
0.000000000
 10
-105.608821774
 20
62.028563210
 30
0.000000000
 10
-105.691175913
 20
61.395890128
 30
0.000000000
 10
-105.768063555
 20
60.779802879
 30
0.000000000
 10
-105.837837415
 20
60.192995752
 30
0.000000000
 10
-105.869406435
 20
59.927594925
 30
0.000000000
 10
-105.894086676
 20
59.716402337
 30
0.000000000
 10
-105.925610923
 20
59.441240139
 30
0.000000000
 10
-105.982757274
 20
58.942679145
 30
0.000000000
 10
-106.045516494
 20
58.370786740
 30
0.000000000
 10
-106.097988823
 20
57.870138813
 30
0.000000000
 10
-106.137708257
 20
57.491572302
 30
0.000000000
 10
-106.173755693
 20
57.136217263
 30
0.000000000
 10
-106.208979742
 20
56.777982124
 30
0.000000000
 10
-106.475170924
 20
54.069709116
 30
0.000000000
 10
-106.671038866
 20
51.399562638
 30
0.000000000
 10
-106.803128388
 20
48.713280407
 30
0.000000000
 10
-106.854699463
 20
47.664417519
 30
0.000000000
 10
-106.895958022
 20
46.621397113
 30
0.000000000
 10
-106.927272636
 20
45.600519839
 30
0.000000000
 10
-106.959674860
 20
44.543552178
 30
0.000000000
 10
-106.982142021
 20
43.501809693
 30
0.000000000
 10
-106.995534595
 20
42.426278596
 30
0.000000000
 10
-106.998288948
 20
42.153147527
 30
0.000000000
 10
-107.001043301
 20
41.880016458
 30
0.000000000
 10
-107.003797654
 20
41.606885390
 30
0.000000000
 10
-107.007343844
 20
41.158364964
 30
0.000000000
 10
-107.009020799
 20
40.698393068
 30
0.000000000
 10
-107.008828519
 20
40.226969701
 30
0.000000000
 10
-107.008598718
 20
39.751667974
 30
0.000000000
 10
-107.006477495
 20
39.267899896
 30
0.000000000
 10
-107.002464849
 20
38.775665466
 30
0.000000000
 10
-106.998447045
 20
38.283422488
 30
0.000000000
 10
-106.992678585
 20
37.800539197
 30
0.000000000
 10
-106.985159468
 20
37.327015594
 30
0.000000000
 10
-106.977667557
 20
36.857353255
 30
0.000000000
 10
-106.968481570
 20
36.400166272
 30
0.000000000
 10
-106.957601506
 20
35.955454645
 30
0.000000000
 10
-106.862767879
 20
32.093614178
 30
0.000000000
 10
-106.641651529
 20
28.266670942
 30
0.000000000
 10
-106.222367287
 20
24.506883299
 30
0.000000000
  0
SPLINE
  5
A19
330
A02
100
AcDbEntity
  8
Shape2DView
100
AcDbSpline
210
0
220
0
230
1
 70
8
 71
1
 72
4
 73
2
 74
0
 40
0.000090374
 40
0.000090374
 40
1.606176104
 40
1.606176104
 10
-102.304306051
 20
84.031842450
 30
0.000000000
 10
-103.884559736
 20
84.279496338
 30
0.000000000
  0
SPLINE
  5
A1A
330
A02
100
AcDbEntity
  8
Shape2DView
100
AcDbSpline
210
0
220
0
230
1
 70
8
 71
3
 72
44
 73
40
 74
0
 40
0.000000000
 40
0.000000000
 40
0.000000000
 40
0.000000000
 40
11.920929132
 40
11.920929132
 40
11.920929132
 40
23.855347160
 40
23.855347160
 40
23.855347160
 40
29.874811210
 40
29.874811210
 40
29.874811210
 40
33.730393308
 40
33.730393308
 40
33.730393308
 40
35.894275259
 40
35.894275259
 40
35.894275259
 40
38.883180534
 40
38.883180534
 40
38.883180534
 40
41.862557438
 40
41.862557438
 40
41.862557438
 40
44.932125533
 40
44.932125533
 40
44.932125533
 40
48.001693628
 40
48.001693628
 40
48.001693628
 40
52.041245195
 40
52.041245195
 40
52.041245195
 40
54.140829818
 40
54.140829818
 40
54.140829818
 40
57.036784178
 40
57.036784178
 40
57.036784178
 40
60.099253920
 40
60.099253920
 40
60.099253920
 40
60.099253920
 10
-107.810914043
 20
24.329515452
 30
0.000000000
 10
-108.246955635
 20
28.242499604
 30
0.000000000
 10
-108.461998217
 20
32.178415445
 30
0.000000000
 10
-108.548011828
 20
36.137392630
 30
0.000000000
 10
-108.631634461
 20
40.105621733
 30
0.000000000
 10
-108.588521665
 20
44.062943644
 30
0.000000000
 10
-108.410038992
 20
48.054929335
 30
0.000000000
 10
-108.319587374
 20
50.071075927
 30
0.000000000
 10
-108.194130161
 20
52.077553000
 30
0.000000000
 10
-108.033667351
 20
54.074360553
 30
0.000000000
 10
-107.930801745
 20
55.353787795
 30
0.000000000
 10
-107.813918552
 20
56.628972946
 30
0.000000000
 10
-107.680692042
 20
57.919942549
 30
0.000000000
 10
-107.606007256
 20
58.644197459
 30
0.000000000
 10
-107.525946246
 20
59.374212727
 30
0.000000000
 10
-107.440509010
 20
60.109988352
 30
0.000000000
 10
-107.321870331
 20
61.131225643
 30
0.000000000
 10
-107.193343814
 20
62.156729980
 30
0.000000000
 10
-107.057028377
 20
63.171490817
 30
0.000000000
 10
-106.920293039
 20
64.184385275
 30
0.000000000
 10
-106.778156623
 20
65.195587141
 30
0.000000000
 10
-106.630619131
 20
66.205096413
 30
0.000000000
 10
-106.479107805
 20
67.246579022
 30
0.000000000
 10
-106.325179191
 20
68.279981618
 30
0.000000000
 10
-106.174345789
 20
69.285282753
 30
0.000000000
 10
-106.023224008
 20
70.292113629
 30
0.000000000
 10
-105.874675651
 20
71.273941410
 30
0.000000000
 10
-105.726138622
 20
72.253577399
 30
0.000000000
 10
-105.530737574
 20
73.542127375
 30
0.000000000
 10
-105.333852559
 20
74.835223844
 30
0.000000000
 10
-105.129555396
 20
76.173893599
 30
0.000000000
 10
-105.023278199
 20
76.870175600
 30
0.000000000
 10
-104.915972943
 20
77.572364924
 30
0.000000000
 10
-104.807639630
 20
78.280461571
 30
0.000000000
 10
-104.659402714
 20
79.249646690
 30
0.000000000
 10
-104.510192608
 20
80.221020280
 30
0.000000000
 10
-104.360009311
 20
81.194582340
 30
0.000000000
 10
-104.201329316
 20
82.223959495
 30
0.000000000
 10
-104.041599957
 20
83.256729985
 30
0.000000000
 10
-103.884560340
 20
84.279502093
 30
0.000000000
  0
ENDSEC
  0
SECTION
  2
OBJECTS
  0
DICTIONARY
  5
F000
330
0
100
AcDbDictionary
  3
ACAD_GROUP
350
F001
  0
DICTIONARY
  5
F001
330
F000
100
AcDbDictionary
  0
ENDSEC
  0
EOF