999
FreeCAD v1.0 39285 (Git)
  0
SECTION
  2
HEADER
  9
$ACADVER
  1
AC1014
  9
$ACADMAINTVER
 70
     9
  9
$DWGCODEPAGE
  3
ANSI_1252
  9
$TEXTSTYLE
  7
STANDARD
  9
$DIMSTYLE
  2
STANDARD
  9
$DIMTXSTY
  7
STANDARD
  9
$CMLSTYLE
  2
STANDARD
  9
$LUNITS
 70
2
  9
$INSUNITS
 70
4
  9
$PEXTMAX
 10
50
 20
50
 30
50
  9
$PEXTMIN
 10
0
 20
0
 30
0
  9
$HANDSEED
  5
FFFF
  0
ENDSEC
  0
SECTION
  2
CLASSES
  0
CLASS
  1
ACDBDICTIONARYWDFLT
  2
AcDbDictionaryWithDefault
  3
ObjectDBX Classes
 90
        0
280
     0
281
     0
  0
CLASS
  1
XRECORD
  2
AcDbXrecord
  3
ObjectDBX Classes
 90
        0
280
     0
281
     0
  0
CLASS
  1
LWPOLYLINE
  2
AcDbPolyline
  3
ObjectDBX Classes
 90
        0
280
     0
281
     1
  0
ENDSEC
  0
SECTION
  2
TABLES
  0
TABLE
  2
VPORT
  5
20
330
0
100
AcDbSymbolTable
 70
     1
  0
VPORT
  5
21
330
20
100
AcDbSymbolTableRecord
100
AcDbViewportTableRecord
  2
*ACTIVE
 70
     0
  0
ENDTAB
  0
TABLE
  2
LTYPE
  5
22
330
0
100
AcDbSymbolTable
 70
     1
  0
LTYPE
  5
23
330
21
100
AcDbSymbolTableRecord
100
AcDbLinetypeTableRecord
  2
BYBLOCK
 70
     0
  3

 72
    65
 73
     0
 40
0.0
  0
LTYPE
  5
24
330
21
100
AcDbSymbolTableRecord
100
AcDbLinetypeTableRecord
  2
BYLAYER
 70
     0
  3

 72
    65
 73
     0
 40
0.0
  0
LTYPE
  5
25
330
21
100
AcDbSymbolTableRecord
100
AcDbLinetypeTableRecord
  2
CONTINUOUS
 70
     0
  3
Solid line
 72
    65
 73
     0
 40
0.0
  0
ENDTAB
  0
TABLE
  2
LAYER
  5
A3F
330
0
100
AcDbSymbolTable
 70
3
  0
LAYER
  5
A40
330
A3F
100
AcDbSymbolTableRecord
100
AcDbLayerTableRecord
  2
0
 70
   0
 62
   7
  6
CONTINUOUS
  0
LAYER
  5
A41
330
A3F
100
AcDbSymbolTableRecord
100
AcDbLayerTableRecord
  2
none
 70
    0
 62
    7
  6
CONTINUOUS
  0
LAYER
  5
A42
330
A3F
100
AcDbSymbolTableRecord
100
AcDbLayerTableRecord
  2
Block
 70
    0
 62
    7
  6
CONTINUOUS
  0
ENDTAB
  0
TABLE
  2
STYLE
  5
70
330
0
100
AcDbSymbolTable
 70
     2
  0
STYLE
  5
71
330
70
100
AcDbSymbolTableRecord
100
AcDbTextStyleTableRecord
  2
STANDARD
 70
     0
 40
0.0
 41
1.0
 50
0.0
 71
     0
 42
2.5
  3
arial.ttf
  4

  0
STYLE
  5
72
330
70
100
AcDbSymbolTableRecord
100
AcDbTextStyleTableRecord
  2
ANNOTATIVE
 70
     0
 40
0.0
 41
1.0
 50
0.0
 71
     0
 42
2.5
  3
arial.ttf
  4

  0
ENDTAB
  0
TABLE
  2
VIEW
  5
73
330
0
100
AcDbSymbolTable
 70
     0
  0
ENDTAB
  0
TABLE
  2
UCS
  5
74
330
0
100
AcDbSymbolTable
 70
     0
  0
ENDTAB
  0
TABLE
  2
APPID
  5
75
330
0
100
AcDbSymbolTable
 70
     2
  0
APPID
  5
76
330
75
100
AcDbSymbolTableRecord
100
AcDbRegAppTableRecord
  2
ACAD
 70
     0
  0
APPID
  5
77
330
75
100
AcDbSymbolTableRecord
100
AcDbRegAppTableRecord
  2
ACADANNOTATIVE
 70
     0
  0
ENDTAB
  0
TABLE
  2
DIMSTYLE
  5
78
330
0
100
AcDbSymbolTable
 70
     2
  0
DIMSTYLE
105
79
330
78
100
AcDbSymbolTableRecord
100
AcDbDimStyleTableRecord
  2
STANDARD
 70
     0
  3

  4

  5

  6

  7

 40
0.0
 41
2.5
 42
0.625
 43
3.75
 44
1.25
 45
0.0
 46
0.0
 47
0.0
 48
0.0
140
2.5
141
2.5
142
0.0
143
0.03937007874016
144
1.0
145
0.0
146
1.0
147
0.625
 71
     0
 72
     0
 73
     0
 74
     0
 75
     0
 76
     0
 77
     1
 78
     8
170
     0
171
     3
172
     1
173
     0
174
     0
175
     0
176
     0
177
     0
178
     0
270
     2
271
     2
272
     2
273
     2
274
     3
340
71
275
     0
280
     0
281
     0
282
     0
283
     0
284
     8
285
     0
286
     0
287
     3
288
     0
  0
ENDTAB
  0
TABLE
  2
BLOCK_RECORD
  5
A01
330
0
100
AcDbSymbolTable
  70
5
  0
BLOCK_RECORD
  5
A02
330
A01
100
AcDbSymbolTableRecord
100
AcDbBlockTableRecord
  2
*MODEL_SPACE
  0
BLOCK_RECORD
  5
A03
330
A01
100
AcDbSymbolTableRecord
100
AcDbBlockTableRecord
  2
*PAPER_SPACE
  0
ENDTAB
  0
ENDSEC
  0
SECTION
  2
BLOCKS
  0
BLOCK
  5
A04
330
A02
100
AcDbEntity
  8
0
100
AcDbBlockBegin
  2
*MODEL_SPACE
 70
   0
 10
0
 20
0
 30
0
  3
*MODEL_SPACE
  1
 
  0
ENDBLK
  5
A05
330
A02
100
AcDbEntity
  8
0
100
AcDbBlockEnd
  0
BLOCK
  5
A06
330
A03
100
AcDbEntity
 67
1
  8
0
100
AcDbBlockBegin
  2
*PAPER_SPACE
 70
   0
 10
0
 20
0
 30
0
  3
*PAPER_SPACE
  1
 
  0
ENDBLK
  5
A07
330
A03
100
AcDbEntity
 67
    1
  8
0
100
AcDbBlockEnd
  0
ENDSEC
  0
SECTION
  2
ENTITIES
  0
SPLINE
  5
A08
330
A02
100
AcDbEntity
  8
Block
100
AcDbSpline
210
0
220
0
230
1
 70
8
 71
3
 72
14
 73
10
 74
0
 40
0.000000000
 40
0.000000000
 40
0.000000000
 40
0.000000000
 40
27.797434061
 40
27.797434061
 40
27.797434061
 40
38.440339845
 40
38.440339845
 40
38.440339845
 40
46.509537682
 40
46.509537682
 40
46.509537682
 40
46.509537682
 10
126.121307861
 20
80.116074370
 30
0.000000000
 10
126.704114228
 20
73.584184700
 30
0.000000000
 10
126.833825546
 20
67.041018385
 30
0.000000000
 10
126.734510580
 20
60.507526629
 30
0.000000000
 10
126.693972327
 20
58.005068088
 30
0.000000000
 10
126.615291380
 20
55.519868750
 30
0.000000000
 10
126.495869757
 20
53.022375399
 30
0.000000000
 10
126.405498143
 20
51.130096820
 30
0.000000000
 10
126.291219991
 20
49.240198057
 30
0.000000000
 10
126.153035300
 20
47.352679109
 30
0.000000000
  0
SPLINE
  5
A09
330
A02
100
AcDbEntity
  8
Block
100
AcDbSpline
210
0
220
0
230
1
 70
8
 71
2
 72
6
 73
3
 74
0
 40
0.000000000
 40
0.000000000
 40
0.000000000
 40
10.000306521
 40
10.000306521
 40
10.000306521
 10
126.121307859
 20
80.116077529
 30
0.000000000
 10
125.807395037
 20
83.634953421
 30
0.000000000
 10
125.296781439
 20
87.138202609
 30
0.000000000
  0
LINE
  5
A0A
330
A02
100
AcDbEntity
  8
Block
100
AcDbLine
 10
125.296781439
 20
87.138202609
 30
0.000000000
 11
71.093705063
 21
87.138202609
 31
0.000000000
  0
LINE
  5
A0B
330
A02
100
AcDbEntity
  8
Block
100
AcDbLine
 10
71.093705063
 20
87.138202609
 30
0.000000000
 11
71.093705063
 21
73.429051511
 31
0.000000000
  0
SPLINE
  5
A0C
330
A02
100
AcDbEntity
  8
Block
100
AcDbSpline
210
0
220
0
230
1
 70
8
 71
3
 72
23
 73
19
 74
0
 40
0.000000000
 40
0.000000000
 40
0.000000000
 40
0.000000000
 40
1.507934728
 40
1.507934728
 40
1.507934728
 40
3.018519877
 40
3.018519877
 40
3.018519877
 40
4.526481548
 40
4.526481548
 40
4.526481548
 40
6.034526094
 40
6.034526094
 40
6.034526094
 40
7.545091092
 40
7.545091092
 40
7.545091092
 40
9.125007041
 40
9.125007041
 40
9.125007041
 40
9.125007041
 10
71.093705063
 20
73.429051511
 30
0.000000000
 10
71.094161187
 20
73.082859364
 30
0.000000000
 10
71.002164109
 20
72.737239378
 30
0.000000000
 10
70.829851707
 20
72.437037466
 30
0.000000000
 10
70.657974958
 20
72.135892391
 30
0.000000000
 10
70.406142228
 20
71.880935319
 30
0.000000000
 10
70.107145968
 20
71.705343522
 30
0.000000000
 10
69.809093022
 20
71.529327213
 30
0.000000000
 10
69.464639701
 20
71.433036610
 30
0.000000000
 10
69.118462610
 20
71.429204766
 30
0.000000000
 10
68.772263100
 20
71.424475497
 30
0.000000000
 10
68.425610847
 20
71.512137258
 30
0.000000000
 10
68.123264569
 20
71.680735502
 30
0.000000000
 10
67.820020434
 20
71.848869322
 30
0.000000000
 10
67.561981640
 20
72.097535842
 30
0.000000000
 10
67.382703937
 20
72.394332718
 30
0.000000000
 10
67.194368063
 20
72.704284366
 30
0.000000000
 10
67.093158301
 20
73.066309863
 30
0.000000000
 10
67.093705063
 20
73.429051511
 30
0.000000000
  0
LINE
  5
A0D
330
A02
100
AcDbEntity
  8
Block
100
AcDbLine
 10
67.093705063
 20
73.429051511
 30
0.000000000
 11
67.093705063
 21
87.138202609
 31
0.000000000
  0
LINE
  5
A0E
330
A02
100
AcDbEntity
  8
Block
100
AcDbLine
 10
67.093705063
 20
87.138202609
 30
0.000000000
 11
54.093705063
 21
87.138202609
 31
0.000000000
  0
LINE
  5
A0F
330
A02
100
AcDbEntity
  8
Block
100
AcDbLine
 10
54.093705063
 20
87.138202609
 30
0.000000000
 11
54.093705063
 21
23.623346138
 31
0.000000000
  0
SPLINE
  5
A10
330
A02
100
AcDbEntity
  8
Block
100
AcDbSpline
210
0
220
0
230
1
 70
8
 71
3
 72
17
 73
13
 74
0
 40
0.000000000
 40
0.000000000
 40
0.000000000
 40
0.000000000
 40
17.287831484
 40
17.287831484
 40
17.287831484
 40
34.586406388
 40
34.586406388
 40
34.586406388
 40
44.243326610
 40
44.243326610
 40
44.243326610
 40
53.900246831
 40
53.900246831
 40
53.900246831
 40
53.900246831
 10
54.093705063
 20
23.623346139
 30
0.000000000
 10
54.098533707
 20
19.655033305
 30
0.000000000
 10
53.079163346
 20
15.691168929
 30
0.000000000
 10
51.158714475
 20
12.218789831
 30
0.000000000
 10
49.245007517
 20
8.739967540
 30
0.000000000
 10
46.435593707
 20
5.759974770
 30
0.000000000
 10
43.075774364
 20
3.644292228
 30
0.000000000
 10
41.202041356
 20
2.461054856
 30
0.000000000
 10
39.160738845
 20
1.543721986
 30
0.000000000
 10
37.031612777
 20
0.928698840
 30
0.000000000
 10
34.902720872
 20
0.312772189
 30
0.000000000
 10
32.686680115
 20
-0.000487323
 30
0.000000000
 10
30.470358924
 20
-0.000000000
 30
0.000000000
  0
LINE
  5
A11
330
A02
100
AcDbEntity
  8
Block
100
AcDbLine
 10
30.470358924
 20
-0.000000000
 30
0.000000000
 11
-30.470358927
 21
-0.000000000
 31
0.000000000
  0
SPLINE
  5
A12
330
A02
100
AcDbEntity
  8
Block
100
AcDbSpline
210
0
220
0
230
1
 70
8
 71
3
 72
17
 73
13
 74
0
 40
0.000000000
 40
0.000000000
 40
0.000000000
 40
0.000000000
 40
17.287831483
 40
17.287831483
 40
17.287831483
 40
34.586406401
 40
34.586406401
 40
34.586406401
 40
44.243326631
 40
44.243326631
 40
44.243326631
 40
53.900246862
 40
53.900246862
 40
53.900246862
 40
53.900246862
 10
-30.470358927
 20
-0.000000000
 30
0.000000000
 10
-34.438671761
 20
-0.004828644
 30
0.000000000
 10
-38.402536135
 20
1.014541717
 30
0.000000000
 10
-41.874915233
 20
2.934990589
 30
0.000000000
 10
-45.353737528
 20
4.848697549
 30
0.000000000
 10
-48.333730291
 20
7.658111353
 30
0.000000000
 10
-50.449412836
 20
11.017930699
 30
0.000000000
 10
-51.632650210
 20
12.891663710
 30
0.000000000
 10
-52.549983079
 20
14.932966219
 30
0.000000000
 10
-53.165006225
 20
17.062092285
 30
0.000000000
 10
-53.780932874
 20
19.190984187
 30
0.000000000
 10
-54.094192388
 20
21.407024946
 30
0.000000000
 10
-54.093705064
 20
23.623346139
 30
0.000000000
  0
LINE
  5
A13
330
A02
100
AcDbEntity
  8
Block
100
AcDbLine
 10
-54.093705064
 20
23.623346139
 30
0.000000000
 11
-54.093705064
 21
87.138202609
 31
0.000000000
  0
LINE
  5
A14
330
A02
100
AcDbEntity
  8
Block
100
AcDbLine
 10
-54.093705064
 20
87.138202609
 30
0.000000000
 11
-67.093705064
 21
87.138202609
 31
0.000000000
  0
LINE
  5
A15
330
A02
100
AcDbEntity
  8
Block
100
AcDbLine
 10
-67.093705064
 20
87.138202609
 30
0.000000000
 11
-67.093705064
 21
73.429051512
 31
0.000000000
  0
SPLINE
  5
A16
330
A02
100
AcDbEntity
  8
Block
100
AcDbSpline
210
0
220
0
230
1
 70
8
 71
3
 72
23
 73
19
 74
0
 40
0.000000000
 40
0.000000000
 40
0.000000000
 40
0.000000000
 40
1.507934738
 40
1.507934738
 40
1.507934738
 40
3.018519899
 40
3.018519899
 40
3.018519899
 40
4.526481596
 40
4.526481596
 40
4.526481596
 40
6.034526160
 40
6.034526160
 40
6.034526160
 40
7.545091163
 40
7.545091163
 40
7.545091163
 40
9.125007113
 40
9.125007113
 40
9.125007113
 40
9.125007113
 10
-67.093705064
 20
73.429051511
 30
0.000000000
 10
-67.093248941
 20
73.082859361
 30
0.000000000
 10
-67.185246017
 20
72.737239381
 30
0.000000000
 10
-67.357558420
 20
72.437037466
 30
0.000000000
 10
-67.529435172
 20
72.135892388
 30
0.000000000
 10
-67.781267896
 20
71.880935321
 30
0.000000000
 10
-68.080264159
 20
71.705343522
 30
0.000000000
 10
-68.378317114
 20
71.529327209
 30
0.000000000
 10
-68.722770417
 20
71.433036613
 30
0.000000000
 10
-69.068947517
 20
71.429204768
 30
0.000000000
 10
-69.415147033
 20
71.424475500
 30
0.000000000
 10
-69.761799274
 20
71.512137256
 30
0.000000000
 10
-70.064145558
 20
71.680735502
 30
0.000000000
 10
-70.367389695
 20
71.848869323
 30
0.000000000
 10
-70.625428486
 20
72.097535843
 30
0.000000000
 10
-70.804706190
 20
72.394332720
 30
0.000000000
 10
-70.993042064
 20
72.704284369
 30
0.000000000
 10
-71.094251827
 20
73.066309862
 30
0.000000000
 10
-71.093705064
 20
73.429051513
 30
0.000000000
  0
LINE
  5
A17
330
A02
100
AcDbEntity
  8
Block
100
AcDbLine
 10
-71.093705064
 20
73.429051513
 30
0.000000000
 11
-71.093705064
 21
87.138202609
 31
0.000000000
  0
LINE
  5
A18
330
A02
100
AcDbEntity
  8
Block
100
AcDbLine
 10
-71.093705064
 20
87.138202609
 30
0.000000000
 11
-125.296781440
 21
87.138202609
 31
0.000000000
  0
SPLINE
  5
A19
330
A02
100
AcDbEntity
  8
Block
100
AcDbSpline
210
0
220
0
230
1
 70
8
 71
2
 72
6
 73
3
 74
0
 40
0.000000000
 40
0.000000000
 40
0.000000000
 40
10.000306521
 40
10.000306521
 40
10.000306521
 10
-125.296781440
 20
87.138202609
 30
0.000000000
 10
-125.807395039
 20
83.634953422
 30
0.000000000
 10
-126.121307860
 20
80.116077529
 30
0.000000000
  0
SPLINE
  5
A1A
330
A02
100
AcDbEntity
  8
Block
100
AcDbSpline
210
0
220
0
230
1
 70
8
 71
3
 72
14
 73
10
 74
0
 40
0.000000000
 40
0.000000000
 40
0.000000000
 40
0.000000000
 40
12.740377864
 40
12.740377864
 40
12.740377864
 40
27.745612263
 40
27.745612263
 40
27.745612263
 40
46.382526170
 40
46.382526170
 40
46.382526170
 40
46.382526170
 10
-126.121307886
 20
80.116073061
 30
0.000000000
 10
-126.390338039
 20
77.121920222
 30
0.000000000
 10
-126.560194672
 20
74.120950936
 30
0.000000000
 10
-126.658145203
 20
71.119302276
 30
0.000000000
 10
-126.772799099
 20
67.584366934
 30
0.000000000
 10
-126.790982675
 20
64.043205398
 30
0.000000000
 10
-126.734537721
 20
60.507506372
 30
0.000000000
 10
-126.663263330
 20
56.117234031
 30
0.000000000
 10
-126.473688835
 20
51.728567173
 30
0.000000000
 10
-126.153034941
 20
47.352681333
 30
0.000000000
  0
SPLINE
  5
A1B
330
A02
100
AcDbEntity
  8
Block
100
AcDbSpline
210
0
220
0
230
1
 70
8
 71
3
 72
14
 73
10
 74
0
 40
0.000000000
 40
0.000000000
 40
0.000000000
 40
0.000000000
 40
5.697618038
 40
5.697618038
 40
5.697618038
 40
7.223369016
 40
7.223369016
 40
7.223369016
 40
8.125396452
 40
8.125396452
 40
8.125396452
 40
8.125396452
 10
-126.153013971
 20
47.352677042
 30
0.000000000
 10
-126.047208972
 20
46.061085365
 30
0.000000000
 10
-126.025617323
 20
44.736430745
 30
0.000000000
 10
-126.024386190
 20
43.460360804
 30
0.000000000
 10
-126.024139718
 20
43.112935849
 30
0.000000000
 10
-126.025316891
 20
42.801420709
 30
0.000000000
 10
-126.027343160
 20
42.452301301
 30
0.000000000
 10
-126.028751939
 20
42.248056819
 30
0.000000000
 10
-126.030160719
 20
42.043812337
 30
0.000000000
 10
-126.031569498
 20
41.839567855
 30
0.000000000
  0
SPLINE
  5
A1C
330
A02
100
AcDbEntity
  8
Block
100
AcDbSpline
210
0
220
0
230
1
 70
8
 71
3
 72
17
 73
13
 74
0
 40
8.125396452
 40
8.125396452
 40
8.125396452
 40
8.125396452
 40
11.549662502
 40
11.549662502
 40
11.549662502
 40
14.890576604
 40
14.890576604
 40
14.890576604
 40
21.313074103
 40
21.313074103
 40
21.313074103
 40
25.253767522
 40
25.253767522
 40
25.253767522
 40
25.253767522
 10
-126.031569498
 20
41.839567855
 30
0.000000000
 10
-126.038607453
 20
41.063453809
 30
0.000000000
 10
-126.043905920
 20
40.285831824
 30
0.000000000
 10
-126.047464900
 20
39.506701901
 30
0.000000000
 10
-126.050047700
 20
38.749801215
 30
0.000000000
 10
-126.047953736
 20
37.954155169
 30
0.000000000
 10
-126.037654993
 20
37.174046464
 30
0.000000000
 10
-126.018318437
 20
35.669749019
 30
0.000000000
 10
-125.966359765
 20
34.091783601
 30
0.000000000
 10
-125.872011794
 20
32.496927096
 30
0.000000000
 10
-125.814372726
 20
31.516176359
 30
0.000000000
 10
-125.740550604
 20
30.519182603
 30
0.000000000
 10
-125.650545430
 20
29.505945828
 30
0.000000000
  0
SPLINE
  5
A1D
330
A02
100
AcDbEntity
  8
Block
100
AcDbSpline
210
0
220
0
230
1
 70
8
 71
3
 72
8
 73
4
 74
0
 40
0.000000645
 40
0.000000645
 40
0.000000645
 40
0.000000645
 40
14.962548627
 40
14.962548627
 40
14.962548627
 40
14.962548627
 10
-100.070498618
 20
-32.502384712
 30
0.000000000
 10
-103.030283184
 20
-30.597612285
 30
0.000000000
 10
-105.422554909
 20
-27.845736058
 30
0.000000000
 10
-106.941257286
 20
-24.688736320
 30
0.000000000
  0
SPLINE
  5
A1E
330
A02
100
AcDbEntity
  8
Block
100
AcDbSpline
210
0
220
0
230
1
 70
8
 71
3
 72
14
 73
10
 74
0
 40
0.000001876
 40
0.000001876
 40
0.000001876
 40
0.000001876
 40
22.898466119
 40
22.898466119
 40
22.898466119
 40
37.887324287
 40
37.887324287
 40
37.887324287
 40
66.290117496
 40
66.290117496
 40
66.290117496
 40
66.290117496
 10
-106.941257304
 20
-24.688736328
 30
0.000000000
 10
-109.291231732
 20
-19.821649127
 30
0.000000000
 10
-111.545532399
 20
-14.918731271
 30
0.000000000
 10
-113.620273367
 20
-9.941712998
 30
0.000000000
 10
-114.980868467
 20
-6.684655693
 30
0.000000000
 10
-116.259095194
 20
-3.395418647
 30
0.000000000
 10
-117.454953550
 20
-0.074001858
 30
0.000000000
 10
-119.718853115
 20
6.219573464
 30
0.000000000
 10
-121.661464752
 20
12.625969923
 30
0.000000000
 10
-123.301993682
 20
19.120852929
 30
0.000000000
  0
SPLINE
  5
A1F
330
A02
100
AcDbEntity
  8
Block
100
AcDbSpline
210
0
220
0
230
1
 70
8
 71
2
 72
6
 73
3
 74
0
 40
66.290117496
 40
66.290117496
 40
66.290117496
 40
81.329711113
 40
81.329711113
 40
81.329711113
 10
-123.301993682
 20
19.120852929
 30
0.000000000
 10
-124.606183592
 20
24.279538527
 30
0.000000000
 10
-125.650531915
 20
29.505943354
 30
0.000000000
  0
SPLINE
  5
A20
330
A02
100
AcDbEntity
  8
Block
100
AcDbSpline
210
0
220
0
230
1
 70
8
 71
3
 72
8
 73
4
 74
0
 40
0.000000000
 40
0.000000000
 40
0.000000000
 40
0.000000000
 40
36.235531122
 40
36.235531122
 40
36.235531122
 40
36.235531122
 10
-100.070494578
 20
-32.502378449
 30
0.000000000
 10
-92.878940429
 20
-37.145946495
 30
0.000000000
 10
-85.472374577
 20
-41.413498000
 30
0.000000000
 10
-77.826052239
 20
-45.178740184
 30
0.000000000
  0
SPLINE
  5
A21
330
A02
100
AcDbEntity
  8
Block
100
AcDbSpline
210
0
220
0
230
1
 70
8
 71
3
 72
8
 73
4
 74
0
 40
0.000000000
 40
0.000000000
 40
0.000000000
 40
0.000000000
 40
4.915949933
 40
4.915949933
 40
4.915949933
 40
4.915949933
 10
-77.826049150
 20
-45.178733917
 30
0.000000000
 10
-76.788372803
 20
-45.690319179
 30
0.000000000
 10
-75.700657655
 20
-46.101841023
 30
0.000000000
 10
-74.582444773
 20
-46.406208428
 30
0.000000000
  0
SPLINE
  5
A22
330
A02
100
AcDbEntity
  8
Block
100
AcDbSpline
210
0
220
0
230
1
 70
8
 71
3
 72
20
 73
16
 74
0
 40
0.000003122
 40
0.000003122
 40
0.000003122
 40
0.000003122
 40
28.072363700
 40
28.072363700
 40
28.072363700
 40
44.478982934
 40
44.478982934
 40
44.478982934
 40
65.070354811
 40
65.070354811
 40
65.070354811
 40
76.298338741
 40
76.298338741
 40
76.298338741
 40
106.825406038
 40
106.825406038
 40
106.825406038
 40
106.825406038
 10
74.582439670
 20
-46.406198137
 30
0.000000000
 10
68.161434264
 20
-48.149549316
 30
0.000000000
 10
61.701271970
 20
-49.739930848
 30
0.000000000
 10
55.217007311
 20
-51.131551391
 30
0.000000000
 10
51.426981625
 20
-51.942942485
 30
0.000000000
 10
47.625008567
 20
-52.680461086
 30
0.000000000
 10
43.811845347
 20
-53.320122879
 30
0.000000000
 10
39.026010960
 20
-54.123698271
 30
0.000000000
 10
34.224163068
 20
-54.768897479
 30
0.000000000
 10
29.406301671
 20
-55.255720504
 30
0.000000000
 10
26.781796620
 20
-55.522505295
 30
0.000000000
 10
24.133073501
 20
-55.748590677
 30
0.000000000
 10
21.502506853
 20
-55.943437133
 30
0.000000000
 10
14.344513936
 20
-56.468037757
 30
0.000000000
 10
7.169310895
 20
-56.794511948
 30
0.000000000
 10
-0.000000001
 20
-56.844983395
 30
0.000000000
  0
SPLINE
  5
A23
330
A02
100
AcDbEntity
  8
Block
100
AcDbSpline
210
0
220
0
230
1
 70
8
 71
3
 72
20
 73
16
 74
0
 40
0.000000000
 40
0.000000000
 40
0.000000000
 40
0.000000000
 40
30.527067291
 40
30.527067291
 40
30.527067291
 40
41.755051437
 40
41.755051437
 40
41.755051437
 40
62.346423417
 40
62.346423417
 40
62.346423417
 40
78.753042648
 40
78.753042648
 40
78.753042648
 40
106.825406354
 40
106.825406354
 40
106.825406354
 40
106.825406354
 10
-0.000000001
 20
-56.844983395
 30
0.000000000
 10
-7.169310895
 20
-56.794511949
 30
0.000000000
 10
-14.344513934
 20
-56.468037757
 30
0.000000000
 10
-21.502506851
 20
-55.943437133
 30
0.000000000
 10
-24.133073574
 20
-55.748590671
 30
0.000000000
 10
-26.781796542
 20
-55.522505302
 30
0.000000000
 10
-29.406301668
 20
-55.255720504
 30
0.000000000
 10
-34.224163066
 20
-54.768897480
 30
0.000000000
 10
-39.026010959
 20
-54.123698272
 30
0.000000000
 10
-43.811845346
 20
-53.320122879
 30
0.000000000
 10
-47.625008566
 20
-52.680461086
 30
0.000000000
 10
-51.426981623
 20
-51.942942487
 30
0.000000000
 10
-55.217007308
 20
-51.131551392
 30
0.000000000
 10
-61.701272690
 20
-49.739930694
 30
0.000000000
 10
-68.161435701
 20
-48.149548965
 30
0.000000000
 10
-74.582441813
 20
-46.406197554
 30
0.000000000
  0
SPLINE
  5
A24
330
A02
100
AcDbEntity
  8
Block
100
AcDbSpline
210
0
220
0
230
1
 70
8
 71
3
 72
8
 73
4
 74
0
 40
0.000001632
 40
0.000001632
 40
0.000001632
 40
0.000001632
 40
4.915953080
 40
4.915953080
 40
4.915953080
 40
4.915953080
 10
77.826048115
 20
-45.178734426
 30
0.000000000
 10
76.788371415
 20
-45.690319780
 30
0.000000000
 10
75.700655896
 20
-46.101841648
 30
0.000000000
 10
74.582442629
 20
-46.406209011
 30
0.000000000
  0
SPLINE
  5
A25
330
A02
100
AcDbEntity
  8
Block
100
AcDbSpline
210
0
220
0
230
1
 70
8
 71
3
 72
8
 73
4
 74
0
 40
0.000000642
 40
0.000000642
 40
0.000000642
 40
0.000000642
 40
36.235532726
 40
36.235532726
 40
36.235532726
 40
36.235532726
 10
100.070494195
 20
-32.502378695
 30
0.000000000
 10
92.878939851
 20
-37.145946850
 30
0.000000000
 10
85.472373763
 20
-41.413498455
 30
0.000000000
 10
77.826051205
 20
-45.178740693
 30
0.000000000
  0
SPLINE
  5
A26
330
A02
100
AcDbEntity
  8
Block
100
AcDbSpline
210
0
220
0
230
1
 70
8
 71
3
 72
8
 73
4
 74
0
 40
0.000000000
 40
0.000000000
 40
0.000000000
 40
0.000000000
 40
14.962546721
 40
14.962546721
 40
14.962546721
 40
14.962546721
 10
100.070498235
 20
-32.502384959
 30
0.000000000
 10
103.030282596
 20
-30.597612765
 30
0.000000000
 10
105.422554247
 20
-27.845736885
 30
0.000000000
 10
106.941256707
 20
-24.688737515
 30
0.000000000
  0
SPLINE
  5
A27
330
A02
100
AcDbEntity
  8
Block
100
AcDbSpline
210
0
220
0
230
1
 70
8
 71
3
 72
14
 73
10
 74
0
 40
0.000000000
 40
0.000000000
 40
0.000000000
 40
0.000000000
 40
22.898466227
 40
22.898466227
 40
22.898466227
 40
37.887324390
 40
37.887324390
 40
37.887324390
 40
66.290122181
 40
66.290122181
 40
66.290122181
 40
66.290122181
 10
106.941256726
 20
-24.688737525
 30
0.000000000
 10
109.291231374
 20
-19.821649905
 30
0.000000000
 10
111.545532238
 20
-14.918731654
 30
0.000000000
 10
113.620273387
 20
-9.941712946
 30
0.000000000
 10
114.980868485
 20
-6.684655642
 30
0.000000000
 10
116.259095211
 20
-3.395418596
 30
0.000000000
 10
117.454953565
 20
-0.074001808
 30
0.000000000
 10
119.718853495
 20
6.219574537
 30
0.000000000
 10
121.661465421
 20
12.625972125
 30
0.000000000
 10
123.301994514
 20
19.120856228
 30
0.000000000
  0
SPLINE
  5
A28
330
A02
100
AcDbEntity
  8
Block
100
AcDbSpline
210
0
220
0
230
1
 70
8
 71
2
 72
6
 73
3
 74
0
 40
66.290122181
 40
66.290122181
 40
66.290122181
 40
81.329710696
 40
81.329710696
 40
81.329710696
 10
123.301994514
 20
19.120856228
 30
0.000000000
 10
124.606183955
 20
24.279540331
 30
0.000000000
 10
125.650531912
 20
29.505943354
 30
0.000000000
  0
SPLINE
  5
A29
330
A02
100
AcDbEntity
  8
Block
100
AcDbSpline
210
0
220
0
230
1
 70
8
 71
3
 72
14
 73
10
 74
0
 40
0.000000000
 40
0.000000000
 40
0.000000000
 40
0.000000000
 40
5.697617896
 40
5.697617896
 40
5.697617896
 40
7.223368162
 40
7.223368162
 40
7.223368162
 40
8.125395783
 40
8.125395783
 40
8.125395783
 40
8.125395783
 10
126.153013970
 20
47.352677042
 30
0.000000000
 10
126.047208973
 20
46.061085396
 30
0.000000000
 10
126.025617322
 20
44.736430817
 30
0.000000000
 10
126.024386189
 20
43.460360907
 30
0.000000000
 10
126.024139716
 20
43.112936188
 30
0.000000000
 10
126.025316889
 20
42.801420600
 30
0.000000000
 10
126.027343157
 20
42.452301430
 30
0.000000000
 10
126.028751937
 20
42.248056906
 30
0.000000000
 10
126.030160717
 20
42.043812382
 30
0.000000000
 10
126.031569496
 20
41.839567858
 30
0.000000000
  0
SPLINE
  5
A2A
330
A02
100
AcDbEntity
  8
Block
100
AcDbSpline
210
0
220
0
230
1
 70
8
 71
3
 72
17
 73
13
 74
0
 40
8.125395783
 40
8.125395783
 40
8.125395783
 40
8.125395783
 40
11.549661900
 40
11.549661900
 40
11.549661900
 40
14.890575990
 40
14.890575990
 40
14.890575990
 40
21.313073471
 40
21.313073471
 40
21.313073471
 40
25.253766813
 40
25.253766813
 40
25.253766813
 40
25.253766813
 10
126.031569496
 20
41.839567858
 30
0.000000000
 10
126.038607451
 20
41.063453797
 30
0.000000000
 10
126.043905919
 20
40.285831797
 30
0.000000000
 10
126.047464899
 20
39.506701859
 30
0.000000000
 10
126.050047699
 20
38.749801179
 30
0.000000000
 10
126.047953735
 20
37.954155098
 30
0.000000000
 10
126.037654991
 20
37.174046399
 30
0.000000000
 10
126.018318435
 20
35.669748957
 30
0.000000000
 10
125.966359760
 20
34.091783539
 30
0.000000000
 10
125.872011789
 20
32.496927038
 30
0.000000000
 10
125.814372721
 20
31.516176319
 30
0.000000000
 10
125.740550601
 20
30.519182583
 30
0.000000000
 10
125.650545429
 20
29.505945828
 30
0.000000000
  0
LINE
  5
A2B
330
A02
100
AcDbEntity
  8
Block
100
AcDbLine
 10
-64.093705064
 20
51.209933674
 30
0.000000000
 11
-64.093705064
 21
-14.675889445
 31
0.000000000
  0
SPLINE
  5
A2C
330
A02
100
AcDbEntity
  8
Block
100
AcDbSpline
210
0
220
0
230
1
 70
8
 71
3
 72
20
 73
16
 74
0
 40
0.000000000
 40
0.000000000
 40
0.000000000
 40
0.000000000
 40
2.462812189
 40
2.462812189
 40
2.462812189
 40
4.929403686
 40
4.929403686
 40
4.929403686
 40
7.392143879
 40
7.392143879
 40
7.392143879
 40
9.855917120
 40
9.855917120
 40
9.855917120
 40
13.687645734
 40
13.687645734
 40
13.687645734
 40
13.687645734
 10
-64.093705064
 20
-14.675889445
 30
0.000000000
 10
-64.092755161
 20
-15.241370388
 30
0.000000000
 10
-64.257025251
 20
-15.805569821
 30
0.000000000
 10
-64.560931476
 20
-16.282344388
 30
0.000000000
 10
-64.863801831
 20
-16.760784483
 30
0.000000000
 10
-65.305302797
 20
-17.150171943
 30
0.000000000
 10
-65.817957573
 20
-17.390595630
 30
0.000000000
 10
-66.329108665
 20
-17.632244412
 30
0.000000000
 10
-66.909193444
 20
-17.724034718
 30
0.000000000
 10
-67.470079030
 20
-17.652165700
 30
0.000000000
 10
-68.031370714
 20
-17.582018289
 30
0.000000000
 10
-68.570614557
 20
-17.347895965
 30
0.000000000
 10
-69.005713130
 20
-16.986475581
 30
0.000000000
 10
-69.687595831
 20
-16.428220590
 30
0.000000000
 10
-70.098786456
 20
-15.557332062
 30
0.000000000
 10
-70.093705064
 20
-14.675889445
 30
0.000000000
  0
LINE
  5
A2D
330
A02
100
AcDbEntity
  8
Block
100
AcDbLine
 10
-70.093705064
 20
-14.675889446
 30
0.000000000
 11
-70.093705064
 21
51.209933674
 31
0.000000000
  0
SPLINE
  5
A2E
330
A02
100
AcDbEntity
  8
Block
100
AcDbSpline
210
0
220
0
230
1
 70
8
 71
3
 72
20
 73
16
 74
0
 40
0.000000000
 40
0.000000000
 40
0.000000000
 40
0.000000000
 40
2.462812195
 40
2.462812195
 40
2.462812195
 40
4.929403712
 40
4.929403712
 40
4.929403712
 40
7.392143906
 40
7.392143906
 40
7.392143906
 40
9.855917125
 40
9.855917125
 40
9.855917125
 40
13.687645750
 40
13.687645750
 40
13.687645750
 40
13.687645750
 10
-70.093705064
 20
51.209933674
 30
0.000000000
 10
-70.094654967
 20
51.775414619
 30
0.000000000
 10
-69.930384878
 20
52.339614048
 30
0.000000000
 10
-69.626478652
 20
52.816388616
 30
0.000000000
 10
-69.323608293
 20
53.294828717
 30
0.000000000
 10
-68.882107337
 20
53.684216168
 30
0.000000000
 10
-68.369452555
 20
53.924639858
 30
0.000000000
 10
-67.858301463
 20
54.166288640
 30
0.000000000
 10
-67.278216684
 20
54.258078949
 30
0.000000000
 10
-66.717331099
 20
54.186209930
 30
0.000000000
 10
-66.156039421
 20
54.116062521
 30
0.000000000
 10
-65.616795565
 20
53.881940191
 30
0.000000000
 10
-65.181696998
 20
53.520519812
 30
0.000000000
 10
-64.499814296
 20
52.962264818
 30
0.000000000
 10
-64.088623671
 20
52.091376284
 30
0.000000000
 10
-64.093705064
 20
51.209933674
 30
0.000000000
  0
SPLINE
  5
A2F
330
A02
100
AcDbEntity
  8
Block
100
AcDbSpline
210
0
220
0
230
1
 70
8
 71
3
 72
23
 73
19
 74
0
 40
0.000000000
 40
0.000000000
 40
0.000000000
 40
0.000000000
 40
6.098958765
 40
6.098958765
 40
6.098958765
 40
12.197575050
 40
12.197575050
 40
12.197575050
 40
18.296578525
 40
18.296578525
 40
18.296578525
 40
24.395704544
 40
24.395704544
 40
24.395704544
 40
30.494494288
 40
30.494494288
 40
30.494494288
 40
38.009250241
 40
38.009250241
 40
38.009250241
 40
38.009250241
 10
92.793821191
 20
40.403416166
 30
0.000000000
 10
94.064246342
 20
41.056749136
 30
0.000000000
 10
95.501697512
 20
41.380862106
 30
0.000000000
 10
96.929564004
 20
41.336125314
 30
0.000000000
 10
98.357447249
 20
41.294580917
 30
0.000000000
 10
99.772610861
 20
40.884188271
 30
0.000000000
 10
101.001171201
 20
40.155339483
 30
0.000000000
 10
102.231426610
 20
39.429188051
 30
0.000000000
 10
103.272436323
 20
38.386271508
 30
0.000000000
 10
103.996213648
 20
37.154611016
 30
0.000000000
 10
104.722758984
 20
35.924510725
 30
0.000000000
 10
105.130356204
 20
34.508661670
 30
0.000000000
 10
105.169213168
 20
33.080556374
 30
0.000000000
 10
105.211246176
 20
31.652633409
 30
0.000000000
 10
104.884375767
 20
30.215957456
 30
0.000000000
 10
104.228619668
 20
28.946813812
 30
0.000000000
 10
103.425195647
 20
27.379933786
 30
0.000000000
 10
102.120329577
 20
26.077219012
 30
0.000000000
 10
100.551493305
 20
25.276667560
 30
0.000000000
  0
SPLINE
  5
A30
330
A02
100
AcDbEntity
  8
Block
100
AcDbSpline
210
0
220
0
230
1
 70
8
 71
3
 72
23
 73
19
 74
0
 40
0.000000000
 40
0.000000000
 40
0.000000000
 40
0.000000000
 40
6.098958770
 40
6.098958770
 40
6.098958770
 40
12.197575060
 40
12.197575060
 40
12.197575060
 40
18.296578528
 40
18.296578528
 40
18.296578528
 40
24.395704546
 40
24.395704546
 40
24.395704546
 40
30.494494298
 40
30.494494298
 40
30.494494298
 40
38.009250252
 40
38.009250252
 40
38.009250252
 40
38.009250252
 10
100.551493305
 20
25.276667560
 30
0.000000000
 10
99.281068152
 20
24.623334589
 30
0.000000000
 10
97.843616985
 20
24.299221620
 30
0.000000000
 10
96.415750492
 20
24.343958411
 30
0.000000000
 10
94.987867246
 20
24.385502809
 30
0.000000000
 10
93.572703637
 20
24.795895454
 30
0.000000000
 10
92.344143295
 20
25.524744242
 30
0.000000000
 10
91.113887888
 20
26.250895674
 30
0.000000000
 10
90.072878172
 20
27.293812217
 30
0.000000000
 10
89.349100848
 20
28.525472708
 30
0.000000000
 10
88.622555513
 20
29.755572998
 30
0.000000000
 10
88.214958292
 20
31.171422056
 30
0.000000000
 10
88.176101328
 20
32.599527352
 30
0.000000000
 10
88.134068320
 20
34.027450320
 30
0.000000000
 10
88.460938728
 20
35.464126267
 30
0.000000000
 10
89.116694828
 20
36.733269913
 30
0.000000000
 10
89.920118849
 20
38.300149940
 30
0.000000000
 10
91.224984919
 20
39.602864713
 30
0.000000000
 10
92.793821191
 20
40.403416166
 30
0.000000000
  0
SPLINE
  5
A31
330
A02
100
AcDbEntity
  8
Block
100
AcDbSpline
210
0
220
0
230
1
 70
8
 71
3
 72
20
 73
16
 74
0
 40
0.000000000
 40
0.000000000
 40
0.000000000
 40
0.000000000
 40
2.462812195
 40
2.462812195
 40
2.462812195
 40
4.929403714
 40
4.929403714
 40
4.929403714
 40
7.392143913
 40
7.392143913
 40
7.392143913
 40
9.855917152
 40
9.855917152
 40
9.855917152
 40
13.687645748
 40
13.687645748
 40
13.687645748
 40
13.687645748
 10
70.093705063
 20
-14.675889445
 30
0.000000000
 10
70.094654966
 20
-15.241370390
 30
0.000000000
 10
69.930384875
 20
-15.805569819
 30
0.000000000
 10
69.626478649
 20
-16.282344388
 30
0.000000000
 10
69.323608289
 20
-16.760784489
 30
0.000000000
 10
68.882107335
 20
-17.150171939
 30
0.000000000
 10
68.369452552
 20
-17.390595630
 30
0.000000000
 10
67.858301459
 20
-17.632244413
 30
0.000000000
 10
67.278216683
 20
-17.724034718
 30
0.000000000
 10
66.717331096
 20
-17.652165700
 30
0.000000000
 10
66.156039412
 20
-17.582018289
 30
0.000000000
 10
65.616795570
 20
-17.347895964
 30
0.000000000
 10
65.181696997
 20
-16.986475581
 30
0.000000000
 10
64.499814299
 20
-16.428220591
 30
0.000000000
 10
64.088623669
 20
-15.557332069
 30
0.000000000
 10
64.093705063
 20
-14.675889445
 30
0.000000000
  0
LINE
  5
A32
330
A02
100
AcDbEntity
  8
Block
100
AcDbLine
 10
64.093705063
 20
-14.675889446
 30
0.000000000
 11
64.093705063
 21
51.209933674
 31
0.000000000
  0
SPLINE
  5
A33
330
A02
100
AcDbEntity
  8
Block
100
AcDbSpline
210
0
220
0
230
1
 70
8
 71
3
 72
20
 73
16
 74
0
 40
0.000000000
 40
0.000000000
 40
0.000000000
 40
0.000000000
 40
2.462812213
 40
2.462812213
 40
2.462812213
 40
4.929403741
 40
4.929403741
 40
4.929403741
 40
7.392143937
 40
7.392143937
 40
7.392143937
 40
9.855917150
 40
9.855917150
 40
9.855917150
 40
13.687645740
 40
13.687645740
 40
13.687645740
 40
13.687645740
 10
64.093705063
 20
51.209933674
 30
0.000000000
 10
64.092755161
 20
51.775414625
 30
0.000000000
 10
64.257025247
 20
52.339614042
 30
0.000000000
 10
64.560931475
 20
52.816388616
 30
0.000000000
 10
64.863801837
 20
53.294828720
 30
0.000000000
 10
65.305302787
 20
53.684216166
 30
0.000000000
 10
65.817957572
 20
53.924639858
 30
0.000000000
 10
66.329108665
 20
54.166288641
 30
0.000000000
 10
66.909193442
 20
54.258078949
 30
0.000000000
 10
67.470079028
 20
54.186209930
 30
0.000000000
 10
68.031370704
 20
54.116062522
 30
0.000000000
 10
68.570614564
 20
53.881940190
 30
0.000000000
 10
69.005713129
 20
53.520519812
 30
0.000000000
 10
69.687595828
 20
52.962264820
 30
0.000000000
 10
70.098786456
 20
52.091376291
 30
0.000000000
 10
70.093705063
 20
51.209933674
 30
0.000000000
  0
LINE
  5
A34
330
A02
100
AcDbEntity
  8
Block
100
AcDbLine
 10
70.093705063
 20
51.209933674
 30
0.000000000
 11
70.093705063
 21
-14.675889445
 31
0.000000000
  0
SPLINE
  5
A35
330
A02
100
AcDbEntity
  8
Block
100
AcDbSpline
210
0
220
0
230
1
 70
8
 71
3
 72
23
 73
19
 74
0
 40
0.000000000
 40
0.000000000
 40
0.000000000
 40
0.000000000
 40
6.098958761
 40
6.098958761
 40
6.098958761
 40
12.197575043
 40
12.197575043
 40
12.197575043
 40
18.296578517
 40
18.296578517
 40
18.296578517
 40
24.395704530
 40
24.395704530
 40
24.395704530
 40
30.494494259
 40
30.494494259
 40
30.494494259
 40
38.009250221
 40
38.009250221
 40
38.009250221
 40
38.009250221
 10
89.545909995
 20
5.343088414
 30
0.000000000
 10
90.816335145
 20
5.996421384
 30
0.000000000
 10
92.253786315
 20
6.320534355
 30
0.000000000
 10
93.681652806
 20
6.275797563
 30
0.000000000
 10
95.109536049
 20
6.234253166
 30
0.000000000
 10
96.524699666
 20
5.823860519
 30
0.000000000
 10
97.753260005
 20
5.095011732
 30
0.000000000
 10
98.983515414
 20
4.368860299
 30
0.000000000
 10
100.024525125
 20
3.325943757
 30
0.000000000
 10
100.748302450
 20
2.094283264
 30
0.000000000
 10
101.474847784
 20
0.864182975
 30
0.000000000
 10
101.882445008
 20
-0.551666084
 30
0.000000000
 10
101.921301972
 20
-1.979771378
 30
0.000000000
 10
101.963334981
 20
-3.407694338
 30
0.000000000
 10
101.636464569
 20
-4.844370300
 30
0.000000000
 10
100.980708472
 20
-6.113513939
 30
0.000000000
 10
100.177284450
 20
-7.680393967
 30
0.000000000
 10
98.872418382
 20
-8.983108736
 30
0.000000000
 10
97.303582107
 20
-9.783660192
 30
0.000000000
  0
SPLINE
  5
A36
330
A02
100
AcDbEntity
  8
Block
100
AcDbSpline
210
0
220
0
230
1
 70
8
 71
3
 72
23
 73
19
 74
0
 40
0.000000000
 40
0.000000000
 40
0.000000000
 40
0.000000000
 40
6.098958775
 40
6.098958775
 40
6.098958775
 40
12.197575078
 40
12.197575078
 40
12.197575078
 40
18.296578562
 40
18.296578562
 40
18.296578562
 40
24.395704574
 40
24.395704574
 40
24.395704574
 40
30.494494293
 40
30.494494293
 40
30.494494293
 40
38.009250241
 40
38.009250241
 40
38.009250241
 40
38.009250241
 10
97.303582107
 20
-9.783660192
 30
0.000000000
 10
96.033156952
 20
-10.436993164
 30
0.000000000
 10
94.595705791
 20
-10.761106132
 30
0.000000000
 10
93.167839296
 20
-10.716369340
 30
0.000000000
 10
91.739956045
 20
-10.674824942
 30
0.000000000
 10
90.324792445
 20
-10.264432299
 30
0.000000000
 10
89.096232099
 20
-9.535583509
 30
0.000000000
 10
87.865976687
 20
-8.809432074
 30
0.000000000
 10
86.824966979
 20
-7.766515539
 30
0.000000000
 10
86.101189652
 20
-6.534855044
 30
0.000000000
 10
85.374644318
 20
-5.304754755
 30
0.000000000
 10
84.967047093
 20
-3.888905693
 30
0.000000000
 10
84.928190130
 20
-2.460800400
 30
0.000000000
 10
84.886157121
 20
-1.032877443
 30
0.000000000
 10
85.213027534
 20
0.403798526
 30
0.000000000
 10
85.868783630
 20
1.672942162
 30
0.000000000
 10
86.672207651
 20
3.239822187
 30
0.000000000
 10
87.977073726
 20
4.542536963
 30
0.000000000
 10
89.545909995
 20
5.343088414
 30
0.000000000
  0
SPLINE
  5
A37
330
A02
100
AcDbEntity
  8
Block
100
AcDbSpline
210
0
220
0
230
1
 70
8
 71
3
 72
23
 73
19
 74
0
 40
0.000000000
 40
0.000000000
 40
0.000000000
 40
0.000000000
 40
6.098958771
 40
6.098958771
 40
6.098958771
 40
12.197575054
 40
12.197575054
 40
12.197575054
 40
18.296578518
 40
18.296578518
 40
18.296578518
 40
24.395704537
 40
24.395704537
 40
24.395704537
 40
30.494494266
 40
30.494494266
 40
30.494494266
 40
38.009250205
 40
38.009250205
 40
38.009250205
 40
38.009250205
 10
-103.701446763
 20
60.057719903
 30
0.000000000
 10
-104.973335503
 20
60.708199014
 30
0.000000000
 10
-106.075327777
 20
61.686426030
 30
0.000000000
 10
-106.872184562
 20
62.872100256
 30
0.000000000
 10
-107.671643662
 20
64.055925261
 30
0.000000000
 10
-108.164139193
 20
65.444650696
 30
0.000000000
 10
-108.289130105
 20
66.867661003
 30
0.000000000
 10
-108.417300644
 20
68.290473913
 30
0.000000000
 10
-108.177797945
 20
69.744439048
 30
0.000000000
 10
-107.599905223
 20
71.050915675
 30
0.000000000
 10
-107.024894727
 20
72.358729798
 30
0.000000000
 10
-106.112925432
 20
73.515914334
 30
0.000000000
 10
-104.975835836
 20
74.380796898
 30
0.000000000
 10
-103.840747599
 20
75.248152331
 30
0.000000000
 10
-102.483288827
 20
75.821029082
 30
0.000000000
 10
-101.069971836
 20
76.029059654
 30
0.000000000
 10
-99.328696254
 20
76.290904098
 30
0.000000000
 10
-97.509348029
 20
75.991382283
 30
0.000000000
 10
-95.943774649
 20
75.184468510
 30
0.000000000
  0
SPLINE
  5
A38
330
A02
100
AcDbEntity
  8
Block
100
AcDbSpline
210
0
220
0
230
1
 70
8
 71
3
 72
23
 73
19
 74
0
 40
0.000000000
 40
0.000000000
 40
0.000000000
 40
0.000000000
 40
6.098958762
 40
6.098958762
 40
6.098958762
 40
12.197575058
 40
12.197575058
 40
12.197575058
 40
18.296578532
 40
18.296578532
 40
18.296578532
 40
24.395704549
 40
24.395704549
 40
24.395704549
 40
30.494494293
 40
30.494494293
 40
30.494494293
 40
38.009250242
 40
38.009250242
 40
38.009250242
 40
38.009250242
 10
-95.943774649
 20
75.184468510
 30
0.000000000
 10
-94.671885911
 20
74.533989400
 30
0.000000000
 10
-93.569893632
 20
73.555762380
 30
0.000000000
 10
-92.773036849
 20
72.370088156
 30
0.000000000
 10
-91.973577747
 20
71.186263148
 30
0.000000000
 10
-91.481082222
 20
69.797537721
 30
0.000000000
 10
-91.356091308
 20
68.374527410
 30
0.000000000
 10
-91.227920770
 20
66.951714496
 30
0.000000000
 10
-91.467423465
 20
65.497749368
 30
0.000000000
 10
-92.045316188
 20
64.191272737
 30
0.000000000
 10
-92.620326684
 20
62.883458616
 30
0.000000000
 10
-93.532295981
 20
61.726274078
 30
0.000000000
 10
-94.669385575
 20
60.861391514
 30
0.000000000
 10
-95.804473817
 20
59.994036079
 30
0.000000000
 10
-97.161932580
 20
59.421159333
 30
0.000000000
 10
-98.575249576
 20
59.213128759
 30
0.000000000
 10
-100.316525159
 20
58.951284314
 30
0.000000000
 10
-102.135873377
 20
59.250806129
 30
0.000000000
 10
-103.701446763
 20
60.057719903
 30
0.000000000
  0
SPLINE
  5
A39
330
A02
100
AcDbEntity
  8
Block
100
AcDbSpline
210
0
220
0
230
1
 70
8
 71
3
 72
23
 73
19
 74
0
 40
0.000000000
 40
0.000000000
 40
0.000000000
 40
0.000000000
 40
6.098958777
 40
6.098958777
 40
6.098958777
 40
12.197575069
 40
12.197575069
 40
12.197575069
 40
18.296578541
 40
18.296578541
 40
18.296578541
 40
24.395704552
 40
24.395704552
 40
24.395704552
 40
30.494494275
 40
30.494494275
 40
30.494494275
 40
38.009250225
 40
38.009250225
 40
38.009250225
 40
38.009250225
 10
-100.551493306
 20
25.276667559
 30
0.000000000
 10
-101.823382049
 20
25.927146672
 30
0.000000000
 10
-102.925374319
 20
26.905373685
 30
0.000000000
 10
-103.722231105
 20
28.091047913
 30
0.000000000
 10
-104.521690207
 20
29.274872920
 30
0.000000000
 10
-105.014185736
 20
30.663598349
 30
0.000000000
 10
-105.139176648
 20
32.086608659
 30
0.000000000
 10
-105.267347187
 20
33.509421573
 30
0.000000000
 10
-105.027844489
 20
34.963386702
 30
0.000000000
 10
-104.449951766
 20
36.269863332
 30
0.000000000
 10
-103.874941271
 20
37.577677451
 30
0.000000000
 10
-102.962971975
 20
38.734861992
 30
0.000000000
 10
-101.825882382
 20
39.599744555
 30
0.000000000
 10
-100.690794146
 20
40.467099986
 30
0.000000000
 10
-99.333335370
 20
41.039976739
 30
0.000000000
 10
-97.920018381
 20
41.248007311
 30
0.000000000
 10
-96.178742797
 20
41.509851755
 30
0.000000000
 10
-94.359394579
 20
41.210329940
 30
0.000000000
 10
-92.793821192
 20
40.403416166
 30
0.000000000
  0
SPLINE
  5
A3A
330
A02
100
AcDbEntity
  8
Block
100
AcDbSpline
210
0
220
0
230
1
 70
8
 71
3
 72
23
 73
19
 74
0
 40
0.000000000
 40
0.000000000
 40
0.000000000
 40
0.000000000
 40
6.098958753
 40
6.098958753
 40
6.098958753
 40
12.197575039
 40
12.197575039
 40
12.197575039
 40
18.296578509
 40
18.296578509
 40
18.296578509
 40
24.395704519
 40
24.395704519
 40
24.395704519
 40
30.494494254
 40
30.494494254
 40
30.494494254
 40
38.009250204
 40
38.009250204
 40
38.009250204
 40
38.009250204
 10
-92.793821192
 20
40.403416166
 30
0.000000000
 10
-91.521932457
 20
39.752937058
 30
0.000000000
 10
-90.419940174
 20
38.774710034
 30
0.000000000
 10
-89.623083393
 20
37.589035813
 30
0.000000000
 10
-88.823624292
 20
36.405210807
 30
0.000000000
 10
-88.331128764
 20
35.016485374
 30
0.000000000
 10
-88.206137851
 20
33.593475066
 30
0.000000000
 10
-88.077967313
 20
32.170662154
 30
0.000000000
 10
-88.317470009
 20
30.716697023
 30
0.000000000
 10
-88.895362732
 20
29.410220394
 30
0.000000000
 10
-89.470373226
 20
28.102406274
 30
0.000000000
 10
-90.382342526
 20
26.945221733
 30
0.000000000
 10
-91.519432119
 20
26.080339171
 30
0.000000000
 10
-92.654520358
 20
25.212983737
 30
0.000000000
 10
-94.011979126
 20
24.640106988
 30
0.000000000
 10
-95.425296119
 20
24.432076415
 30
0.000000000
 10
-97.166571703
 20
24.170231971
 30
0.000000000
 10
-98.985919921
 20
24.469753785
 30
0.000000000
 10
-100.551493306
 20
25.276667560
 30
0.000000000
  0
SPLINE
  5
A3B
330
A02
100
AcDbEntity
  8
Block
100
AcDbSpline
210
0
220
0
230
1
 70
8
 71
3
 72
23
 73
19
 74
0
 40
0.000000000
 40
0.000000000
 40
0.000000000
 40
0.000000000
 40
6.098958766
 40
6.098958766
 40
6.098958766
 40
12.197575065
 40
12.197575065
 40
12.197575065
 40
18.296578542
 40
18.296578542
 40
18.296578542
 40
24.395704555
 40
24.395704555
 40
24.395704555
 40
30.494494287
 40
30.494494287
 40
30.494494287
 40
38.009250227
 40
38.009250227
 40
38.009250227
 40
38.009250227
 10
-97.303582110
 20
-9.783660192
 30
0.000000000
 10
-98.575470849
 20
-9.133181082
 30
0.000000000
 10
-99.677463125
 20
-8.154954063
 30
0.000000000
 10
-100.474319909
 20
-6.969279839
 30
0.000000000
 10
-101.273779012
 20
-5.785454829
 30
0.000000000
 10
-101.766274537
 20
-4.396729404
 30
0.000000000
 10
-101.891265451
 20
-2.973719092
 30
0.000000000
 10
-102.019435989
 20
-1.550906177
 30
0.000000000
 10
-101.779933294
 20
-0.096941052
 30
0.000000000
 10
-101.202040571
 20
1.209535580
 30
0.000000000
 10
-100.627030075
 20
2.517349700
 30
0.000000000
 10
-99.715060777
 20
3.674534240
 30
0.000000000
 10
-98.577971183
 20
4.539416803
 30
0.000000000
 10
-97.442882945
 20
5.406772236
 30
0.000000000
 10
-96.085424174
 20
5.979648986
 30
0.000000000
 10
-94.672107183
 20
6.187679559
 30
0.000000000
 10
-92.930831601
 20
6.449524003
 30
0.000000000
 10
-91.111483376
 20
6.150002188
 30
0.000000000
 10
-89.545909996
 20
5.343088414
 30
0.000000000
  0
SPLINE
  5
A3C
330
A02
100
AcDbEntity
  8
Block
100
AcDbSpline
210
0
220
0
230
1
 70
8
 71
3
 72
23
 73
19
 74
0
 40
0.000000000
 40
0.000000000
 40
0.000000000
 40
0.000000000
 40
6.098958764
 40
6.098958764
 40
6.098958764
 40
12.197575044
 40
12.197575044
 40
12.197575044
 40
18.296578508
 40
18.296578508
 40
18.296578508
 40
24.395704515
 40
24.395704515
 40
24.395704515
 40
30.494494242
 40
30.494494242
 40
30.494494242
 40
38.009250202
 40
38.009250202
 40
38.009250202
 40
38.009250202
 10
-89.545909996
 20
5.343088414
 30
0.000000000
 10
-88.274021257
 20
4.692609305
 30
0.000000000
 10
-87.172028980
 20
3.714382285
 30
0.000000000
 10
-86.375172197
 20
2.528708061
 30
0.000000000
 10
-85.575713097
 20
1.344883058
 30
0.000000000
 10
-85.083217566
 20
-0.043842380
 30
0.000000000
 10
-84.958226653
 20
-1.466852685
 30
0.000000000
 10
-84.830056115
 20
-2.889665596
 30
0.000000000
 10
-85.069558814
 20
-4.343630730
 30
0.000000000
 10
-85.647451535
 20
-5.650107358
 30
0.000000000
 10
-86.222462030
 20
-6.957921476
 30
0.000000000
 10
-87.134431328
 20
-8.115106019
 30
0.000000000
 10
-88.271520921
 20
-8.979988581
 30
0.000000000
 10
-89.406609158
 20
-9.847344013
 30
0.000000000
 10
-90.764067931
 20
-10.420220764
 30
0.000000000
 10
-92.177384921
 20
-10.628251337
 30
0.000000000
 10
-93.918660508
 20
-10.890095781
 30
0.000000000
 10
-95.738008718
 20
-10.590573967
 30
0.000000000
 10
-97.303582110
 20
-9.783660192
 30
0.000000000
  0
SPLINE
  5
A3D
330
A02
100
AcDbEntity
  8
Block
100
AcDbSpline
210
0
220
0
230
1
 70
8
 71
3
 72
23
 73
19
 74
0
 40
0.000000000
 40
0.000000000
 40
0.000000000
 40
0.000000000
 40
6.098958759
 40
6.098958759
 40
6.098958759
 40
12.197575045
 40
12.197575045
 40
12.197575045
 40
18.296578513
 40
18.296578513
 40
18.296578513
 40
24.395704537
 40
24.395704537
 40
24.395704537
 40
30.494494276
 40
30.494494276
 40
30.494494276
 40
38.009250225
 40
38.009250225
 40
38.009250225
 40
38.009250225
 10
95.943774648
 20
75.184468510
 30
0.000000000
 10
97.214199798
 20
75.837801479
 30
0.000000000
 10
98.651650969
 20
76.161914450
 30
0.000000000
 10
100.079517459
 20
76.117177658
 30
0.000000000
 10
101.507400703
 20
76.075633261
 30
0.000000000
 10
102.922564317
 20
75.665240614
 30
0.000000000
 10
104.151124658
 20
74.936391827
 30
0.000000000
 10
105.381380065
 20
74.210240395
 30
0.000000000
 10
106.422389778
 20
73.167323852
 30
0.000000000
 10
107.146167103
 20
71.935663361
 30
0.000000000
 10
107.872712439
 20
70.705563069
 30
0.000000000
 10
108.280309660
 20
69.289714014
 30
0.000000000
 10
108.319166624
 20
67.861608718
 30
0.000000000
 10
108.361199634
 20
66.433685754
 30
0.000000000
 10
108.034329223
 20
64.997009798
 30
0.000000000
 10
107.378573125
 20
63.727866156
 30
0.000000000
 10
106.575149105
 20
62.160986130
 30
0.000000000
 10
105.270283030
 20
60.858271355
 30
0.000000000
 10
103.701446762
 20
60.057719903
 30
0.000000000
  0
SPLINE
  5
A3E
330
A02
100
AcDbEntity
  8
Block
100
AcDbSpline
210
0
220
0
230
1
 70
8
 71
3
 72
23
 73
19
 74
0
 40
0.000000000
 40
0.000000000
 40
0.000000000
 40
0.000000000
 40
6.098958770
 40
6.098958770
 40
6.098958770
 40
12.197575071
 40
12.197575071
 40
12.197575071
 40
18.296578548
 40
18.296578548
 40
18.296578548
 40
24.395704547
 40
24.395704547
 40
24.395704547
 40
30.494494286
 40
30.494494286
 40
30.494494286
 40
38.009250245
 40
38.009250245
 40
38.009250245
 40
38.009250245
 10
103.701446762
 20
60.057719903
 30
0.000000000
 10
102.431021608
 20
59.404386932
 30
0.000000000
 10
100.993570443
 20
59.080273963
 30
0.000000000
 10
99.565703949
 20
59.125010755
 30
0.000000000
 10
98.137820698
 20
59.166555153
 30
0.000000000
 10
96.722657097
 20
59.576947796
 30
0.000000000
 10
95.494096752
 20
60.305796586
 30
0.000000000
 10
94.263841342
 20
61.031948019
 30
0.000000000
 10
93.222831630
 20
62.074864558
 30
0.000000000
 10
92.499054305
 20
63.306525052
 30
0.000000000
 10
91.772508972
 20
64.536625336
 30
0.000000000
 10
91.364911746
 20
65.952474407
 30
0.000000000
 10
91.326054783
 20
67.380579695
 30
0.000000000
 10
91.284021774
 20
68.808502659
 30
0.000000000
 10
91.610892186
 20
70.245178615
 30
0.000000000
 10
92.266648285
 20
71.514322257
 30
0.000000000
 10
93.070072307
 20
73.081202284
 30
0.000000000
 10
94.374938373
 20
74.383917054
 30
0.000000000
 10
95.943774648
 20
75.184468510
 30
0.000000000
  0
ENDSEC
  0
SECTION
  2
OBJECTS
  0
DICTIONARY
  5
F000
330
0
100
AcDbDictionary
  3
ACAD_GROUP
350
F001
  0
DICTIONARY
  5
F001
330
F000
100
AcDbDictionary
  0
ENDSEC
  0
EOF